<?xml version="1.0" encoding="UTF-8"?><svg id="Warstwa_2" xmlns="http://www.w3.org/2000/svg" viewBox="0 0 41.76 41.76"><defs><style>.cls-1{fill:#fff;}</style></defs><g id="OBJECTS"><g><path class="cls-1" d="M20.88,0C9.35,0,0,9.35,0,20.88s9.35,20.88,20.88,20.88,20.88-9.35,20.88-20.88S32.42,0,20.88,0Zm11.9,27.18c0,1.03-.84,1.87-1.87,1.87H10.86c-1.03,0-1.87-.84-1.87-1.87V15.13c0-1.03,.84-1.87,1.87-1.87H30.9c1.03,0,1.87,.84,1.87,1.87v12.05Z"/><path class="cls-1" d="M27.43,17.3l-6.55,4.35-6.55-4.35c-.43-.29-1.01-.17-1.3,.26-.29,.43-.17,1.01,.26,1.3l7.07,4.69c.16,.1,.34,.16,.52,.16s.36-.05,.52-.16l7.07-4.69c.43-.29,.55-.87,.26-1.3-.29-.43-.87-.55-1.3-.26Z"/></g></g></svg>