<?xml version="1.0" encoding="UTF-8"?><svg id="Warstwa_2" xmlns="http://www.w3.org/2000/svg" viewBox="0 0 65.73 68.05"><defs><style>.cls-1{fill:aqua;}.cls-2{fill:#003053;}.cls-3{fill:#2f54ea;}</style></defs><g id="Warstwa_1-2"><g><circle class="cls-3" cx="32.87" cy="35.19" r="32.87"/><rect class="cls-2" x="12.93" y="16.11" width="40.06" height="46.98"/><path class="cls-2" d="M22.35,16.11V63.09h30.64V16.11H22.35Zm20.62,22.44c-.31,1.09-1.05,2.02-2.2,2.46-.64,.79-1.61,1.33-2.93,1.33-1.53,0-2.58-.71-3.2-1.71-.61-.42-1.05-1.01-1.32-1.68-3.66-1.3-3.2-7.69,1.38-7.69,1.42,0,2.43,.62,3.06,1.51,.63-.91,1.65-1.56,3.1-1.56,4.27,0,4.96,5.51,2.1,7.34Z"/><g><g><path class="cls-1" d="M22.88,63.73H11.86V15.54h11.02V63.73Zm-9.77-1.26h8.51V16.8H13.11V62.47Z"/><path class="cls-1" d="M53.74,63.73H21.62V15.54H53.74V63.73Zm-30.86-1.26h29.6V16.8H22.88V62.47Z"/></g><path class="cls-1" d="M45.64,16.8H28.84V8.4c0-4.63,3.77-8.4,8.4-8.4s8.4,3.77,8.4,8.4v8.4Zm-15.54-1.26h14.29v-7.14c0-3.94-3.2-7.14-7.14-7.14s-7.14,3.2-7.14,7.14v7.14Z"/><path class="cls-1" d="M38.42,16.8H21.62V8.4C21.62,3.77,25.39,0,30.02,0s8.4,3.77,8.4,8.4v8.4Zm-15.54-1.26h14.29v-7.14c0-3.94-3.2-7.14-7.14-7.14s-7.14,3.2-7.14,7.14v7.14Z"/><path class="cls-1" d="M37.79,43.42c-.15,0-.31-.04-.46-.13-1.99-1.17-3.53-2.32-4.85-3.62-.97-.95-1.62-1.83-2.06-2.77-.35-.76-.5-1.54-.45-2.32,.13-1.77,1.36-3.34,3.05-3.92,1.71-.58,3.55-.11,4.77,1.16,.1-.1,.2-.2,.31-.3,.96-.83,2.09-1.2,3.38-1.09,2.09,.18,3.78,1.76,4.09,3.85,.15,1.02-.05,2.02-.62,3.05-.43,.78-1.02,1.54-1.81,2.31-1.32,1.3-2.92,2.49-4.89,3.64-.15,.09-.3,.13-.45,.13Zm-3.27-11.75c-.36,0-.73,.06-1.1,.18-1.2,.41-2.11,1.57-2.2,2.82-.04,.57,.07,1.13,.33,1.69,.37,.8,.95,1.56,1.81,2.41,1.21,1.19,2.62,2.25,4.43,3.33,1.8-1.07,3.27-2.16,4.47-3.35,.71-.7,1.22-1.35,1.59-2.03,.43-.78,.59-1.52,.48-2.26h0c-.22-1.48-1.47-2.65-2.96-2.78-.93-.08-1.76,.18-2.45,.79-.15,.13-.3,.29-.45,.47-.08,.09-.16,.18-.25,.27l-.49,.52-.45-.56s-.07-.08-.09-.11c-.65-.9-1.63-1.39-2.67-1.39Z"/><rect class="cls-1" x="30.59" y="48.05" width="14.43" height="1.26"/><rect class="cls-1" x="30.59" y="51.82" width="14.43" height="1.26"/><rect class="cls-1" x="30.59" y="55.58" width="14.43" height="1.26"/></g></g></g></svg>