<?xml version="1.0" encoding="UTF-8"?><svg id="Warstwa_2" xmlns="http://www.w3.org/2000/svg" viewBox="0 0 65.73 76.33"><defs><style>.cls-1{fill:aqua;}.cls-2{fill:#003053;}.cls-3{fill:#2f54ea;}</style></defs><g id="Warstwa_1-2"><g><path class="cls-3" d="M53.14,17.63c.32,.76,.51,1.62,.53,2.6,0,.32-.01,.62-.02,.93,.09,.76,.08,1.54-.06,2.3,.61,2.43,.02,5.19-1.79,6.93-.16,2.06-1.14,4.04-2.92,5.18-2.02,3.96-4.04,7.94-4.63,12.54-.08,.59-.21,1.17-.38,1.73,.44,.26,.8,.58,1.08,.96,.29-.1,.6-.16,.9-.17,.65-.03,1.39,.31,1.84,.76,.54,.54,.67,1.12,.76,1.84,.12,.9-.2,1.81-.74,2.52-.59,.76-1.35,1.16-2.24,1.47-.73,.26-1.48,.08-2.08-.34-.74,.35-1.62,.46-2.63,.17-.01,0-.02,0-.03-.01-.34,.2-.74,.35-1.2,.4-2.4,.26-4.85,.14-7.26-.13-3.6,.02-7.19,.16-10.78,.53-1.25,.13-2.01-.54-2.32-1.44-2.04-.61-3.13-3.57-.75-4.62,1.28-.57,2.61-.85,3.98-.96-.44-.87-.66-1.84-.53-2.85,.02-.15,.02-.31,.04-.46-.27-.31-.51-.64-.73-.98-.83-1.28-1.06-3.13-.79-4.66-.08-.19-.15-.38-.21-.57-.43-.4-.82-.85-1.16-1.36-.41-.64-.67-1.34-.81-2.07-.19-.15-.38-.31-.56-.47-.83-.76-1.42-1.89-1.73-3.04-.73-.53-1.38-1.18-1.88-1.96-.59-.91-.87-1.93-.92-2.95-.62-.74-1.1-1.58-1.38-2.43-.44-1.35-.25-3.06,.31-4.43-.47-1.31-.52-2.89-.17-4.14,.03-.12,.07-.22,.11-.34C4.67,24.12,0,33.24,0,43.46c0,18.15,14.71,32.87,32.87,32.87s32.87-14.71,32.87-32.87c0-10.49-4.93-19.82-12.59-25.83Z"/><path class="cls-2" d="M32.84,71.27h0c-6.2,0-11.23-5.03-11.23-11.23v-2.69h22.47v2.69c0,6.2-5.03,11.23-11.23,11.23Z"/><path class="cls-2" d="M32.8,39.23c4.83-2.14,8.21-6.97,8.21-12.59s-3.37-10.45-8.21-12.59c-4.83,2.14-8.21,6.97-8.21,12.59s3.37,10.45,8.21,12.59Z"/><g><path class="cls-1" d="M44.73,51.42H20.86v-.63c0-5.56-1.85-10.93-5.2-15.11-3.52-4.38-5.2-9.9-4.75-15.53C11.77,9.44,20.51,.79,31.24,.05c6.16-.42,12.04,1.65,16.54,5.85,4.44,4.14,6.98,9.99,6.98,16.06,0,5-1.73,9.9-4.87,13.78-3.33,4.12-5.16,9.46-5.16,15.05v.63Zm-22.62-1.26h21.37c.13-5.65,2.05-11.03,5.43-15.21,2.96-3.66,4.59-8.28,4.59-12.99,0-5.72-2.4-11.23-6.58-15.14-4.24-3.96-9.77-5.92-15.59-5.51-10.12,.7-18.36,8.84-19.16,18.95-.43,5.32,1.17,10.52,4.48,14.65,3.4,4.24,5.34,9.64,5.47,15.26Z"/><path class="cls-1" d="M32.8,71.91c-6.58,0-11.93-5.35-11.93-11.93v-3.56h23.87v3.56c0,6.58-5.35,11.93-11.93,11.93Zm-10.68-14.24v2.3c0,5.89,4.79,10.68,10.68,10.68s10.68-4.79,10.68-10.68v-2.3H22.12Z"/><g><path class="cls-1" d="M32.8,40.24l-.25-.11c-5.34-2.36-8.79-7.66-8.79-13.48s3.45-11.12,8.79-13.48l.25-.11,.25,.11c5.34,2.36,8.79,7.66,8.79,13.48s-3.45,11.12-8.79,13.48l-.25,.11Zm0-25.81c-4.74,2.22-7.79,6.98-7.79,12.22s3.05,10,7.79,12.22c4.74-2.22,7.79-6.98,7.79-12.22s-3.05-10-7.79-12.22Z"/><rect class="cls-1" x="32.17" y="13.73" width="1.26" height="36.6"/><rect class="cls-1" x="28.57" y="19.58" width="1.26" height="10.96" transform="translate(-9.28 25.38) rotate(-41.13)"/></g><path class="cls-1" d="M45.58,57.67H20.02c-2.07,0-3.75-1.68-3.75-3.75s1.68-3.75,3.75-3.75h25.56c2.07,0,3.75,1.68,3.75,3.75s-1.68,3.75-3.75,3.75Zm-25.56-6.25c-1.38,0-2.5,1.12-2.5,2.5s1.12,2.5,2.5,2.5h25.56c1.38,0,2.5-1.12,2.5-2.5s-1.12-2.5-2.5-2.5H20.02Z"/></g></g></g></svg>