<?xml version="1.0" encoding="UTF-8"?><svg id="Warstwa_2" xmlns="http://www.w3.org/2000/svg" viewBox="0 0 69.7 77.25"><defs><style>.cls-1{fill:aqua;}.cls-2{fill:#003053;}.cls-3{fill:#2f54ea;}</style></defs><g id="Warstwa_1-2"><g><path class="cls-3" d="M36.33,71.95c-.62,0-1.17-.14-1.63-.35-2.78,.15-5.56,.24-8.34,.23-.43,0-.81-.08-1.17-.19-.54,.29-1.16,.49-1.81,.58-2.05,.27-4.1,.32-6.14,.26,5.17,3.04,11.19,4.78,17.61,4.78,6.95,0,13.42-2.04,18.85-5.55-5.77,.37-11.58,.3-17.37,.24Z"/><path class="cls-3" d="M54.23,64.07c.99-.07,1.97-.15,2.95-.24,.33-.03,.63-.02,.91,.02,.09,0,.16-.03,.25-.03,1.34,0,2.18,.78,2.51,1.76,5.49-6.16,8.83-14.27,8.83-23.18,0-19.25-15.6-34.85-34.85-34.85S0,23.16,0,42.41c0,8.46,3.02,16.22,8.04,22.26,.51-.25,1.13-.39,1.87-.32,1.08,.1,2.16,.2,3.24,.29v-30.9H4.86L33.69,9.32l28.83,24.4h-8.28v30.34Z"/><polygon class="cls-2" points="25.12 5.85 42.26 5.85 42.26 17.45 34.02 10.36 25.12 17.13 25.12 5.85"/><circle class="cls-2" cx="33.69" cy="32.57" r="6.08"/><rect class="cls-2" x="18.55" y="48.29" width="30.27" height="15.38"/><g><path class="cls-1" d="M54.23,65H13.15v-31.27H4.86L33.69,9.32l28.83,24.4h-8.28v31.27Zm-39.75-1.33H52.9v-31.27h5.98L33.69,11.07,8.49,32.39h5.98v31.27Z"/><path class="cls-1" d="M33.69,38.97c-3.62,0-6.57-2.95-6.57-6.57s2.95-6.57,6.57-6.57,6.57,2.95,6.57,6.57-2.95,6.57-6.57,6.57Zm0-11.81c-2.89,0-5.24,2.35-5.24,5.24s2.35,5.24,5.24,5.24,5.24-2.35,5.24-5.24-2.35-5.24-5.24-5.24Z"/><rect class="cls-1" x="33.02" y="26.5" width="1.33" height="11.81"/><rect class="cls-1" x="27.79" y="31.73" width="11.8" height="1.33"/><path class="cls-1" d="M49.49,65H17.89v-21.48h31.61v21.48Zm-30.27-1.33h28.94v-18.82H19.22v18.82Z"/><rect class="cls-1" x="18.55" y="48.29" width="30.27" height="1.33"/><polygon class="cls-1" points="42.92 17.45 41.59 17.45 41.59 1.33 25.78 1.33 25.78 17.45 24.45 17.45 24.45 0 42.92 0 42.92 17.45"/><rect class="cls-1" x="25.12" y="5.18" width="17.14" height="1.33"/><path class="cls-1" d="M61.36,72.71H6.01v-9.04H61.36v9.04Zm-54.02-1.33H60.03v-6.38H7.34v6.38Z"/></g></g></g></svg>