<svg id="Layer_1" data-name="Layer 1" xmlns="http://www.w3.org/2000/svg" viewBox="0 0 73.9 71.79"><defs><style>.cls-1{fill:#313c53;}</style></defs><path class="cls-1" d="M362.24,202.38H291.53a1.6,1.6,0,0,1,0-3.19h70.71a1.6,1.6,0,1,1,0,3.19Z" transform="translate(-289.94 -130.59)"/><path class="cls-1" d="M357.54,202.17H341.92v-60h15.62ZM344.7,199.4h10.06V145H344.7Z" transform="translate(-289.94 -130.59)"/><path class="cls-1" d="M335.33,202.17H319.71V162.8h15.62Zm-12.84-2.77h10.06V165.57H322.49Z" transform="translate(-289.94 -130.59)"/><path class="cls-1" d="M311.73,202.17H296.12V182.53h15.61Zm-12.84-2.77H309V185.31H298.89Z" transform="translate(-289.94 -130.59)"/><path class="cls-1" d="M293.06,173.89a1.39,1.39,0,0,1-1-2.37L333,131.05a1.39,1.39,0,1,1,1.95,2L294,173.49A1.36,1.36,0,0,1,293.06,173.89Z" transform="translate(-289.94 -130.59)"/><path class="cls-1" d="M334,143.09a1.45,1.45,0,0,1-1.45-1.44v-8.17h-9.38a1.45,1.45,0,1,1,0-2.89H334A1.44,1.44,0,0,1,335.4,132v9.61A1.44,1.44,0,0,1,334,143.09Z" transform="translate(-289.94 -130.59)"/></svg>