<svg id="Layer_1" data-name="Layer 1" xmlns="http://www.w3.org/2000/svg" viewBox="0 0 90.5 78.9"><defs><style>.cls-1{fill:#313c53;}</style></defs><path class="cls-1" d="M220.12,125.38H138.4A4.4,4.4,0,0,1,134,121V65.66a4.4,4.4,0,0,1,4.39-4.39h81.72a4.4,4.4,0,0,1,4.39,4.39V121A4.4,4.4,0,0,1,220.12,125.38ZM138.4,64.46a1.19,1.19,0,0,0-1.19,1.2V121a1.19,1.19,0,0,0,1.19,1.19h81.72a1.19,1.19,0,0,0,1.2-1.19V65.66a1.2,1.2,0,0,0-1.2-1.2Z" transform="translate(-134.01 -61.27)"/><rect class="cls-1" x="1.23" y="46.56" width="86.8" height="3.19"/><rect class="cls-1" x="25.52" y="62.73" width="3.19" height="14.58"/><rect class="cls-1" x="61.61" y="62.73" width="3.19" height="14.58"/><rect class="cls-1" x="18.2" y="75.71" width="53.74" height="3.19"/></svg>