<?xml version="1.0" encoding="UTF-8"?><svg id="Warstwa_2" xmlns="http://www.w3.org/2000/svg" viewBox="0 0 137.17 21.94"><defs><style>.cls-1{fill:#fff;}.cls-2{opacity:.56;}</style></defs><g id="Warstwa_1-2"><g><g><g><path class="cls-1" d="M12.62,11.02c0,3.69,1.85,6.95,4.68,8.91,2.81-1.99,4.64-5.26,4.64-8.96s-1.8-6.92-4.57-8.91c-2.86,1.95-4.75,5.24-4.75,8.96Z"/><path class="cls-1" d="M11.11,11.02c0-4,1.91-7.55,4.87-9.81-1.5-.77-3.2-1.21-5-1.21C4.91,0,0,4.91,0,10.97s4.91,10.97,10.97,10.97c1.77,0,3.45-.42,4.93-1.17-2.91-2.26-4.79-5.79-4.79-9.75Z"/></g><g class="cls-2"><path class="cls-1" d="M23.45,21.79c-5.94,0-10.77-4.83-10.77-10.77S17.51,.25,23.45,.25s10.77,4.83,10.77,10.77-4.83,10.77-10.77,10.77Zm0-20.03c-5.11,0-9.26,4.15-9.26,9.26s4.15,9.26,9.26,9.26,9.26-4.15,9.26-9.26S28.55,1.76,23.45,1.76Z"/></g></g><g><path class="cls-1" d="M41.63,14.86c-1.15-.82-1.73-2.01-1.73-3.59s.58-2.78,1.73-3.6,2.7-1.23,4.64-1.23,3.49,.41,4.63,1.23,1.72,2.02,1.72,3.6-.57,2.78-1.72,3.59c-1.15,.82-2.69,1.22-4.63,1.22s-3.49-.41-4.64-1.22Zm7.82-1.26c.72-.52,1.08-1.3,1.08-2.33s-.36-1.83-1.08-2.35-1.78-.78-3.18-.78-2.47,.26-3.19,.78c-.72,.52-1.08,1.3-1.08,2.35s.36,1.82,1.08,2.34c.72,.52,1.79,.77,3.19,.77s2.45-.26,3.18-.78Z"/><path class="cls-1" d="M63.95,6.97c.87,.36,1.55,.9,2.05,1.62s.75,1.62,.75,2.68-.25,1.94-.75,2.66c-.5,.72-1.19,1.26-2.05,1.62s-1.85,.53-2.96,.53-2.11-.16-2.93-.49c-.82-.33-1.46-.79-1.92-1.39v5.28h-1.94V6.74h1.94v1.58c.46-.61,1.11-1.08,1.92-1.4,.82-.33,1.79-.49,2.93-.49s2.09,.18,2.96,.53Zm-.36,6.58c.72-.55,1.08-1.31,1.08-2.28s-.38-1.72-1.13-2.27c-.75-.55-1.82-.83-3.19-.83s-2.4,.27-3.12,.82c-.72,.55-1.08,1.31-1.08,2.28s.38,1.72,1.14,2.27,1.83,.83,3.2,.83,2.39-.27,3.11-.82Z"/><path class="cls-1" d="M76.38,8.43h-4.6v3.49c0,.69,.06,1.21,.17,1.54,.11,.33,.33,.57,.64,.7,.31,.13,.78,.2,1.42,.2s1.42-.06,2.37-.19v1.66c-1.09,.17-2.03,.25-2.8,.25-.97,0-1.72-.12-2.25-.36-.53-.24-.91-.64-1.14-1.22-.23-.57-.34-1.39-.34-2.44v-3.64h-2.7v-1.69h2.7v-2.11l1.94-.65v2.76h4.6v1.69Z"/><path class="cls-1" d="M78.4,5.55V3.38h1.94v2.17h-1.94Zm0,10.22V6.74h1.94V15.77h-1.94Z"/><path class="cls-1" d="M100.72,7.51c.74,.72,1.12,1.83,1.15,3.32v4.94h-1.94v-4.77c0-.96-.24-1.67-.71-2.14s-1.26-.7-2.36-.7c-.64,0-1.25,.13-1.83,.39s-1.04,.64-1.4,1.15c-.36,.51-.54,1.12-.54,1.83v4.23h-1.94v-4.77c0-.96-.24-1.67-.71-2.14-.47-.46-1.25-.7-2.35-.7-.65,0-1.27,.13-1.84,.39s-1.05,.64-1.4,1.15c-.36,.51-.53,1.12-.53,1.83v4.23h-1.94V6.74h1.94v1.83c1.09-1.43,2.58-2.14,4.45-2.14,2.15,0,3.5,.84,4.04,2.52,1.12-1.68,2.69-2.52,4.72-2.52,1.37,0,2.43,.36,3.18,1.08Z"/><path class="cls-1" d="M122.1,7.51c.74,.72,1.12,1.83,1.15,3.32v4.94h-1.94v-4.77c0-.96-.24-1.67-.71-2.14s-1.26-.7-2.36-.7c-.64,0-1.25,.13-1.83,.39s-1.04,.64-1.4,1.15c-.36,.51-.54,1.12-.54,1.83v4.23h-1.94v-4.77c0-.96-.24-1.67-.71-2.14-.47-.46-1.25-.7-2.35-.7-.65,0-1.27,.13-1.84,.39s-1.05,.64-1.4,1.15c-.36,.51-.53,1.12-.53,1.83v4.23h-1.94V6.74h1.94v1.83c1.09-1.43,2.58-2.14,4.45-2.14,2.15,0,3.5,.84,4.04,2.52,1.12-1.68,2.69-2.52,4.72-2.52,1.37,0,2.43,.36,3.18,1.08Z"/><path class="cls-1" d="M133.65,13.98c.6-.28,1.04-.68,1.29-1.19h2.09c-.28,1.04-.94,1.85-1.98,2.43s-2.37,.87-3.98,.87c-1.94,0-3.49-.41-4.65-1.22-1.16-.81-1.73-2.01-1.73-3.6,0-1.06,.27-1.96,.81-2.68,.54-.72,1.28-1.26,2.22-1.62,.94-.36,2-.53,3.19-.53,1.92,0,3.44,.41,4.57,1.24s1.69,2.18,1.69,4.07h-10.38c.1,.92,.51,1.59,1.23,2.01s1.74,.63,3.06,.63c1.11,0,1.96-.14,2.56-.42Zm-6.73-3.81h8.04c-.2-.71-.63-1.24-1.31-1.57-.68-.34-1.59-.5-2.73-.5-2.24,0-3.57,.69-4,2.08Z"/></g></g></g></svg>