<?xml version="1.0" encoding="UTF-8"?><svg id="Warstwa_2" xmlns="http://www.w3.org/2000/svg" viewBox="0 0 41.76 41.76"><defs><style>.cls-1{fill:#fff;}</style></defs><g id="OBJECTS"><path class="cls-1" d="M20.88,0C9.35,0,0,9.35,0,20.88s9.35,20.88,20.88,20.88,20.88-9.35,20.88-20.88S32.42,0,20.88,0Zm9.55,29.04c-2.63,2.63-6.89,2.63-9.52,0l-8.19-8.19c-2.63-2.63-2.63-6.89,0-9.52h0c.77-.77,2.02-.77,2.79,0l2.7,2.7c.77,.77,.77,2.02,0,2.79l-1.31,1.31,6.73,6.73,1.31-1.31c.77-.77,2.02-.77,2.79,0l2.7,2.7c.77,.77,.77,2.02,0,2.79Z"/></g></svg>