<?xml version="1.0" encoding="utf-8"?>
<!-- Generator: Adobe Illustrator 27.0.1, SVG Export Plug-In . SVG Version: 6.00 Build 0)  -->
<svg version="1.1" id="Warstwa_1" xmlns:svgjs="http://svgjs.com/svgjs"
	 xmlns="http://www.w3.org/2000/svg" xmlns:xlink="http://www.w3.org/1999/xlink" x="0px" y="0px" viewBox="0 0 706 706"
	 style="enable-background:new 0 0 706 706;" xml:space="preserve">
<style type="text/css">
	.st0{fill:#FFFFFF;}
</style>
<g>
	<path class="st0" d="M386.2,386.6l281.9,0c18.3,0,33.2-14.8,33.2-33.2c0-18.3-14.8-33.2-33.2-33.2H386.2l0-281.9
		c0-18.3-14.8-33.2-33.2-33.2c-18.3,0-33.2,14.8-33.2,33.2l0,281.9l-281.9,0c-18.3,0-33.2,14.8-33.2,33.2c0,9.1,3.7,17.5,9.7,23.5
		s14.3,9.7,23.5,9.7l281.9,0v281.9c0,9.1,3.7,17.5,9.7,23.5c6,6,14.3,9.7,23.5,9.7c18.3,0,33.2-14.8,33.2-33.2L386.2,386.6z"/>
</g>
</svg>
