<svg id="Layer_1" data-name="Layer 1" xmlns="http://www.w3.org/2000/svg" viewBox="0 0 86.64 86.64"><defs><style>.cls-1{fill:#313c53;}</style></defs><path class="cls-1" d="M271.9,197.1a43.32,43.32,0,1,1,43.32-43.32A43.36,43.36,0,0,1,271.9,197.1Zm0-83.44A40.13,40.13,0,1,0,312,153.78,40.17,40.17,0,0,0,271.9,113.66Z" transform="translate(-228.58 -110.46)"/><circle class="cls-1" cx="42.71" cy="43.8" r="3.26"/><path class="cls-1" d="M253,173.92a1.6,1.6,0,0,1-1.12-2.73l17.8-17.59V122.29a1.6,1.6,0,1,1,3.19,0v32a1.61,1.61,0,0,1-.47,1.13l-18.28,18.06A1.57,1.57,0,0,1,253,173.92Z" transform="translate(-228.58 -110.46)"/></svg>