<?xml version="1.0" encoding="utf-8"?>
<!-- Generator: Adobe Illustrator 27.0.1, SVG Export Plug-In . SVG Version: 6.00 Build 0)  -->
<svg version="1.1" id="Warstwa_2_00000157274077945131321100000002539735615321477811_"
	 xmlns="http://www.w3.org/2000/svg" xmlns:xlink="http://www.w3.org/1999/xlink" x="0px" y="0px" viewBox="0 0 454.3 147.9"
	 style="enable-background:new 0 0 454.3 147.9;" xml:space="preserve">
<style type="text/css">
	.st0{fill:#FF8188;}
	.st1{enable-background:new    ;}
	.st2{fill:#FFFFFF;}
	.st3{fill:none;stroke:#FFFFFF;stroke-width:0.85;stroke-linecap:round;stroke-linejoin:round;}
	.st4{fill:#2F54EA;}
	.st5{fill:#F1F1F1;}
	.st6{fill:none;stroke:#CBCBCB;stroke-width:0.55;stroke-miterlimit:10;}
	.st7{fill:none;stroke:#FF8188;stroke-width:1.09;stroke-miterlimit:10;}
	.st8{fill:none;stroke:#FFFFFF;stroke-width:0.64;stroke-linecap:round;stroke-linejoin:round;}
</style>
<g id="Warstwa_1-2">
	<g>
		<path class="st0" d="M30.4,79.9h361.9c3.4,0,6.2,2.8,6.2,6.2v55.7c0,3.4-2.8,6.2-6.2,6.2H30.4c-3.4,0-6.2-2.8-6.2-6.2V86.1
			C24.2,82.7,27,79.9,30.4,79.9z"/>
		<g>
			<g>
				<g class="st1">
					<path class="st2" d="M101.7,129.5h-3.6v2.3c0.2-0.2,0.4-0.4,0.7-0.5c0.3-0.1,0.6-0.2,1-0.2c0.6,0,1,0.1,1.4,0.4
						c0.4,0.2,0.6,0.5,0.8,0.9c0.2,0.4,0.2,0.8,0.2,1.2c0,0.5-0.1,0.9-0.3,1.3c-0.2,0.4-0.5,0.7-0.8,0.9c-0.4,0.2-0.8,0.3-1.4,0.3
						c-0.7,0-1.3-0.2-1.7-0.6c-0.4-0.4-0.7-0.9-0.8-1.5H98c0.1,0.4,0.3,0.7,0.6,0.9c0.3,0.2,0.6,0.3,1.1,0.3c0.5,0,0.9-0.2,1.2-0.5
						c0.3-0.3,0.4-0.8,0.4-1.3s-0.1-0.9-0.4-1.2c-0.3-0.3-0.7-0.4-1.2-0.4c-0.4,0-0.7,0.1-0.9,0.3c-0.3,0.2-0.5,0.4-0.6,0.7h-0.9
						v-4.2h4.4V129.5z"/>
					<path class="st2" d="M103.8,131.5c-0.1-0.1-0.2-0.3-0.2-0.4s0.1-0.3,0.2-0.4c0.1-0.1,0.3-0.2,0.4-0.2c0.2,0,0.3,0.1,0.4,0.2
						c0.1,0.1,0.2,0.3,0.2,0.4s-0.1,0.3-0.2,0.4c-0.1,0.1-0.3,0.2-0.4,0.2C104.1,131.7,104,131.7,103.8,131.5z M103.8,135.9
						c-0.1-0.1-0.2-0.3-0.2-0.4c0-0.2,0.1-0.3,0.2-0.5c0.1-0.1,0.3-0.2,0.4-0.2c0.2,0,0.3,0.1,0.4,0.2c0.1,0.1,0.2,0.3,0.2,0.5
						c0,0.2-0.1,0.3-0.2,0.4c-0.1,0.1-0.3,0.2-0.4,0.2C104.1,136.1,104,136,103.8,135.9z"/>
					<path class="st2" d="M108.3,133.6c0.5-0.4,0.9-0.9,1.2-1.4c0.3-0.5,0.5-1,0.5-1.4c0-0.4-0.1-0.8-0.3-1c-0.2-0.3-0.6-0.4-1-0.4
						c-0.5,0-0.8,0.1-1.1,0.4s-0.4,0.7-0.4,1.2h-0.9c0-0.8,0.3-1.4,0.7-1.8s1-0.6,1.7-0.6c0.7,0,1.3,0.2,1.7,0.6
						c0.4,0.4,0.6,0.9,0.6,1.6c0,0.6-0.2,1.1-0.5,1.6s-0.7,1-1.1,1.4c-0.4,0.4-1,0.9-1.6,1.4h3.5v0.8h-4.9v-0.7
						C107.2,134.6,107.9,134,108.3,133.6z"/>
					<path class="st2" d="M113.4,129c0.4-0.4,1-0.5,1.7-0.5c0.5,0,0.9,0.1,1.2,0.2s0.6,0.4,0.8,0.7c0.2,0.3,0.3,0.6,0.3,1
						c0,0.4-0.1,0.8-0.4,1.1s-0.6,0.5-0.9,0.6v0.1c0.4,0.1,0.8,0.3,1.1,0.6c0.3,0.3,0.4,0.7,0.4,1.3c0,0.4-0.1,0.7-0.3,1
						c-0.2,0.3-0.4,0.6-0.8,0.7c-0.4,0.2-0.8,0.3-1.3,0.3c-0.7,0-1.3-0.2-1.8-0.6s-0.7-0.9-0.8-1.6h0.9c0,0.4,0.2,0.7,0.5,1
						c0.3,0.3,0.7,0.4,1.1,0.4s0.8-0.1,1.1-0.4c0.2-0.2,0.4-0.6,0.4-1c0-0.5-0.2-0.9-0.5-1.1s-0.9-0.3-1.5-0.3h-0.2v-0.8h0.2
						c0.6,0,1.1-0.1,1.4-0.3c0.3-0.2,0.5-0.5,0.5-0.9c0-0.4-0.1-0.6-0.4-0.9s-0.6-0.3-1-0.3c-0.4,0-0.8,0.1-1,0.3
						c-0.3,0.2-0.4,0.5-0.5,0.9h-0.9C112.7,129.9,113,129.4,113.4,129z"/>
				</g>
				<g>
					<g>
						<path class="st2" d="M104.8,119.2h6.2c0.7,0,1.2,0.5,1.2,1.2v1.8h-8.7v-1.8C103.6,119.7,104.2,119.2,104.8,119.2L104.8,119.2z
							"/>
						<path class="st2" d="M115.3,119.2h6.2c0.7,0,1.2,0.5,1.2,1.2v1.8h-8.7v-1.8C114.1,119.7,114.6,119.2,115.3,119.2L115.3,119.2z
							"/>
						<path class="st2" d="M125.7,119.2h6.2c0.7,0,1.2,0.5,1.2,1.2v1.8h-8.7v-1.8C124.5,119.7,125.1,119.2,125.7,119.2L125.7,119.2z
							"/>
						<path class="st2" d="M136.2,119.2h6.2c0.7,0,1.2,0.5,1.2,1.2v1.8H135v-1.8C135,119.7,135.5,119.2,136.2,119.2L136.2,119.2z"/>
						<path class="st2" d="M147.4,113.6h4.6c1.1,0,2,0.9,2,2v6.6h-8.7v-6.6C145.4,114.5,146.3,113.6,147.4,113.6L147.4,113.6z"/>
						<path class="st2" d="M157.9,113.6h4.6c1.1,0,2,0.9,2,2v6.6h-8.7v-6.6C155.8,114.5,156.8,113.6,157.9,113.6L157.9,113.6z"/>
						<path class="st2" d="M168.3,93.5h4.6c1.1,0,2,0.9,2,2v26.7h-8.7V95.5C166.3,94.4,167.2,93.5,168.3,93.5L168.3,93.5z"/>
						<path class="st2" d="M178.8,93.5h4.6c1.1,0,2,0.9,2,2v26.7h-8.7V95.5C176.7,94.4,177.6,93.5,178.8,93.5L178.8,93.5z"/>
						<path class="st2" d="M189.2,103.3h4.6c1.1,0,2,0.9,2,2v16.8h-8.7v-16.8C187.2,104.3,188.1,103.3,189.2,103.3L189.2,103.3z"/>
						<path class="st2" d="M199.7,103.3h4.6c1.1,0,2,0.9,2,2v16.8h-8.7v-16.8C197.6,104.3,198.5,103.3,199.7,103.3L199.7,103.3z"/>
						<path class="st2" d="M210.1,93.5h4.6c1.1,0,2,0.9,2,2v26.7h-8.7V95.5C208.1,94.4,209,93.5,210.1,93.5L210.1,93.5z"/>
						<path class="st2" d="M220.6,93.5h4.6c1.1,0,2,0.9,2,2v26.7h-8.7V95.5C218.5,94.4,219.4,93.5,220.6,93.5L220.6,93.5z"/>
						<path class="st2" d="M231,93.5h4.6c1.1,0,2,0.9,2,2v26.7h-8.7V95.5C228.9,94.4,229.9,93.5,231,93.5L231,93.5z"/>
						<path class="st2" d="M241.4,113.6h4.6c1.1,0,2,0.9,2,2v6.6h-8.7v-6.6C239.4,114.5,240.3,113.6,241.4,113.6L241.4,113.6z"/>
						<path class="st2" d="M251.9,113.6h4.6c1.1,0,2,0.9,2,2v6.6h-8.7v-6.6C249.8,114.5,250.8,113.6,251.9,113.6L251.9,113.6z"/>
						<path class="st2" d="M261.5,119.2h6.2c0.7,0,1.2,0.5,1.2,1.2v1.8h-8.7v-1.8C260.3,119.7,260.8,119.2,261.5,119.2L261.5,119.2z
							"/>
						<path class="st2" d="M271.9,119.2h6.2c0.7,0,1.2,0.5,1.2,1.2v1.8h-8.7v-1.8C270.7,119.7,271.3,119.2,271.9,119.2L271.9,119.2z
							"/>
						<path class="st2" d="M282.4,119.2h6.2c0.7,0,1.2,0.5,1.2,1.2v1.8h-8.7v-1.8C281.2,119.7,281.7,119.2,282.4,119.2L282.4,119.2z
							"/>
						<path class="st2" d="M292.8,119.2h6.2c0.7,0,1.2,0.5,1.2,1.2v1.8h-8.7v-1.8C291.6,119.7,292.2,119.2,292.8,119.2L292.8,119.2z
							"/>
						<path class="st2" d="M304.1,113.6h4.6c1.1,0,2,0.9,2,2v6.6h-8.7v-6.6C302.1,114.5,303,113.6,304.1,113.6z"/>
						<path class="st2" d="M314.5,113.6h4.6c1.1,0,2,0.9,2,2v6.6h-8.7v-6.6C312.5,114.5,313.4,113.6,314.5,113.6z"/>
						<path class="st2" d="M325,107.9h4.6c1.1,0,2,0.9,2,2v12.3h-8.7v-12.3C322.9,108.8,323.9,107.9,325,107.9z"/>
						<path class="st2" d="M335.4,107.9h4.6c1.1,0,2,0.9,2,2v12.3h-8.7v-12.3C333.4,108.8,334.3,107.9,335.4,107.9z"/>
						<path class="st2" d="M345.9,93.5h4.6c1.1,0,2,0.9,2,2v26.7h-8.7V95.5C343.8,94.4,344.7,93.5,345.9,93.5z"/>
						<path class="st2" d="M356.3,113.6h4.6c1.1,0,2,0.9,2,2v6.6h-8.7v-6.6C354.3,114.5,355.2,113.6,356.3,113.6z"/>
						<path class="st2" d="M366.8,113.6h4.6c1.1,0,2,0.9,2,2v6.6h-8.7v-6.6C364.7,114.5,365.6,113.6,366.8,113.6z"/>
					</g>
					<line class="st3" x1="96.8" y1="122.2" x2="380.2" y2="122.2"/>
				</g>
			</g>
			<g>
				<circle class="st2" cx="65.9" cy="113.9" r="22.1"/>
				<path class="st4" d="M75.2,112.4l-13.2-7.6c-1.1-0.7-2.6,0.2-2.6,1.5v15.2c0,1.3,1.4,2.1,2.6,1.5l13.2-7.6
					C76.4,114.7,76.4,113.1,75.2,112.4L75.2,112.4z"/>
			</g>
		</g>
	</g>
	<g>
		<path class="st5" d="M363.9,0h88.2c1.2,0,2.2,1,2.2,2.2v98.6c0,1.2-1,2.2-2.2,2.2h-88.2c-1.2,0-2.2-1-2.2-2.2V2.2
			C361.8,1,362.7,0,363.9,0z"/>
		<g>
			<g>
				<g>
					<g class="st1">
						<path class="st0" d="M378.3,87.8h1.4v0.6h-2.1v-4.3h0.7V87.8z"/>
						<path class="st0" d="M381.2,88.2c-0.3-0.1-0.5-0.3-0.6-0.6c-0.1-0.3-0.2-0.6-0.2-0.9c0-0.3,0.1-0.6,0.2-0.9s0.4-0.5,0.6-0.6
							c0.3-0.1,0.6-0.2,0.9-0.2c0.3,0,0.6,0.1,0.9,0.2c0.3,0.1,0.5,0.3,0.6,0.6s0.2,0.6,0.2,0.9c0,0.3-0.1,0.6-0.2,0.9
							s-0.4,0.5-0.6,0.6c-0.3,0.1-0.6,0.2-0.9,0.2C381.7,88.5,381.4,88.4,381.2,88.2z M382.5,87.7c0.2-0.1,0.3-0.2,0.4-0.4
							c0.1-0.2,0.1-0.4,0.1-0.6c0-0.2,0-0.5-0.1-0.6c-0.1-0.2-0.2-0.3-0.4-0.4s-0.3-0.1-0.5-0.1s-0.3,0-0.5,0.1
							c-0.2,0.1-0.3,0.2-0.4,0.4c-0.1,0.2-0.1,0.4-0.1,0.6c0,0.4,0.1,0.6,0.3,0.8c0.2,0.2,0.4,0.3,0.7,0.3
							C382.2,87.8,382.4,87.8,382.5,87.7z"/>
						<path class="st0" d="M385.8,85.1c0.2-0.1,0.4-0.1,0.6-0.1v0.7h-0.2c-0.3,0-0.5,0.1-0.6,0.2c-0.1,0.1-0.2,0.4-0.2,0.7v1.8h-0.7
							V85h0.7v0.5C385.5,85.3,385.6,85.2,385.8,85.1z"/>
						<path class="st0" d="M390.4,87h-2.6c0,0.3,0.1,0.5,0.3,0.7c0.2,0.2,0.4,0.2,0.7,0.2c0.4,0,0.6-0.2,0.8-0.5h0.8
							c-0.1,0.3-0.3,0.6-0.6,0.8s-0.6,0.3-1,0.3c-0.3,0-0.6-0.1-0.9-0.2c-0.3-0.1-0.5-0.3-0.6-0.6c-0.1-0.3-0.2-0.6-0.2-0.9
							c0-0.3,0.1-0.7,0.2-0.9s0.3-0.5,0.6-0.6c0.3-0.1,0.5-0.2,0.9-0.2c0.3,0,0.6,0.1,0.9,0.2c0.2,0.1,0.4,0.3,0.6,0.6
							c0.1,0.3,0.2,0.5,0.2,0.9C390.4,86.8,390.4,86.9,390.4,87z M389.7,86.4c0-0.3-0.1-0.5-0.3-0.6c-0.2-0.2-0.4-0.2-0.7-0.2
							c-0.2,0-0.4,0.1-0.6,0.2c-0.2,0.2-0.3,0.4-0.3,0.6H389.7z"/>
						<path class="st0" d="M396.1,85.1c0.2,0.1,0.4,0.3,0.5,0.5c0.1,0.2,0.2,0.5,0.2,0.8v2h-0.7v-1.9c0-0.3-0.1-0.5-0.2-0.7
							c-0.2-0.2-0.4-0.2-0.6-0.2s-0.5,0.1-0.6,0.2c-0.2,0.2-0.2,0.4-0.2,0.7v1.9h-0.7v-1.9c0-0.3-0.1-0.5-0.2-0.7
							c-0.2-0.2-0.4-0.2-0.6-0.2s-0.5,0.1-0.6,0.2c-0.2,0.2-0.2,0.4-0.2,0.7v1.9h-0.7V85h0.7v0.4c0.1-0.1,0.3-0.2,0.4-0.3
							c0.2-0.1,0.4-0.1,0.6-0.1c0.3,0,0.5,0.1,0.7,0.2c0.2,0.1,0.4,0.3,0.5,0.5c0.1-0.2,0.3-0.4,0.5-0.5s0.5-0.2,0.7-0.2
							C395.7,85,395.9,85,396.1,85.1z"/>
						<path class="st0" d="M400.5,84.1v4.3h-0.7v-4.3H400.5z"/>
						<path class="st0" d="M402.8,85.1c0.2-0.1,0.4-0.2,0.7-0.2c0.3,0,0.6,0.1,0.8,0.2c0.2,0.1,0.4,0.3,0.6,0.6
							c0.1,0.3,0.2,0.6,0.2,0.9s-0.1,0.6-0.2,0.9c-0.1,0.3-0.3,0.5-0.6,0.6c-0.2,0.1-0.5,0.2-0.8,0.2c-0.3,0-0.5-0.1-0.7-0.2
							c-0.2-0.1-0.4-0.2-0.5-0.4V90h-0.7v-5h0.7v0.5C402.5,85.4,402.6,85.2,402.8,85.1z M404.3,86.1c-0.1-0.2-0.2-0.3-0.4-0.4
							s-0.3-0.1-0.5-0.1c-0.2,0-0.3,0-0.5,0.1s-0.3,0.2-0.4,0.4c-0.1,0.2-0.1,0.4-0.1,0.6c0,0.2,0,0.4,0.1,0.6
							c0.1,0.2,0.2,0.3,0.4,0.4s0.3,0.1,0.5,0.1c0.2,0,0.3,0,0.5-0.1s0.3-0.2,0.4-0.4c0.1-0.2,0.1-0.4,0.1-0.6
							C404.4,86.5,404.4,86.3,404.3,86.1z"/>
						<path class="st0" d="M406.6,88.3c-0.2-0.1-0.4-0.2-0.5-0.4c-0.1-0.2-0.2-0.4-0.2-0.6h0.7c0,0.1,0.1,0.3,0.2,0.4
							c0.1,0.1,0.3,0.1,0.5,0.1c0.2,0,0.3,0,0.5-0.1c0.1-0.1,0.2-0.2,0.2-0.3c0-0.1-0.1-0.2-0.2-0.3c-0.1-0.1-0.3-0.1-0.6-0.2
							c-0.3-0.1-0.5-0.1-0.6-0.2c-0.2-0.1-0.3-0.2-0.4-0.3c-0.1-0.1-0.2-0.3-0.2-0.5c0-0.2,0.1-0.3,0.2-0.5c0.1-0.1,0.3-0.3,0.5-0.4
							c0.2-0.1,0.4-0.1,0.7-0.1c0.4,0,0.7,0.1,0.9,0.3c0.2,0.2,0.4,0.5,0.4,0.8h-0.7c0-0.2-0.1-0.3-0.2-0.4s-0.3-0.1-0.4-0.1
							c-0.2,0-0.3,0-0.4,0.1c-0.1,0.1-0.1,0.2-0.1,0.3c0,0.1,0,0.2,0.1,0.2s0.1,0.1,0.2,0.1c0.1,0,0.2,0.1,0.4,0.1
							c0.2,0.1,0.4,0.1,0.6,0.2s0.3,0.2,0.4,0.3c0.1,0.1,0.2,0.3,0.2,0.5c0,0.2-0.1,0.4-0.2,0.5c-0.1,0.2-0.3,0.3-0.5,0.4
							s-0.4,0.1-0.7,0.1C407,88.5,406.8,88.4,406.6,88.3z"/>
						<path class="st0" d="M412.6,85v3.4h-0.7V88c-0.1,0.1-0.3,0.2-0.4,0.3c-0.2,0.1-0.4,0.1-0.6,0.1c-0.3,0-0.5-0.1-0.7-0.2
							c-0.2-0.1-0.4-0.3-0.5-0.5c-0.1-0.2-0.2-0.5-0.2-0.8v-2h0.7v1.9c0,0.3,0.1,0.5,0.2,0.7c0.2,0.2,0.4,0.2,0.6,0.2
							c0.3,0,0.5-0.1,0.6-0.2s0.2-0.4,0.2-0.7V85H412.6z"/>
						<path class="st0" d="M418.6,85.1c0.2,0.1,0.4,0.3,0.5,0.5c0.1,0.2,0.2,0.5,0.2,0.8v2h-0.7v-1.9c0-0.3-0.1-0.5-0.2-0.7
							c-0.2-0.2-0.4-0.2-0.6-0.2c-0.3,0-0.5,0.1-0.6,0.2c-0.2,0.2-0.2,0.4-0.2,0.7v1.9h-0.7v-1.9c0-0.3-0.1-0.5-0.2-0.7
							c-0.2-0.2-0.4-0.2-0.6-0.2c-0.3,0-0.5,0.1-0.6,0.2c-0.2,0.2-0.2,0.4-0.2,0.7v1.9h-0.7V85h0.7v0.4c0.1-0.1,0.3-0.2,0.4-0.3
							c0.2-0.1,0.4-0.1,0.6-0.1c0.3,0,0.5,0.1,0.7,0.2c0.2,0.1,0.4,0.3,0.5,0.5c0.1-0.2,0.3-0.4,0.5-0.5s0.4-0.2,0.7-0.2
							C418.2,85,418.4,85,418.6,85.1z"/>
						<path class="st0" d="M424.8,84.4c0.3,0.2,0.6,0.4,0.8,0.7s0.3,0.7,0.3,1.1c0,0.4-0.1,0.8-0.3,1.1c-0.2,0.3-0.4,0.6-0.8,0.7
							c-0.3,0.2-0.7,0.3-1.2,0.3h-1.4v-4.3h1.4C424.1,84.1,424.5,84.2,424.8,84.4z M424.8,87.4c0.3-0.3,0.4-0.6,0.4-1.1
							c0-0.5-0.1-0.9-0.4-1.2s-0.6-0.4-1.1-0.4H423v3.1h0.7C424.1,87.8,424.5,87.7,424.8,87.4z"/>
						<path class="st0" d="M427.4,88.2c-0.3-0.1-0.5-0.3-0.6-0.6c-0.1-0.3-0.2-0.6-0.2-0.9c0-0.3,0.1-0.6,0.2-0.9s0.4-0.5,0.6-0.6
							c0.3-0.1,0.6-0.2,0.9-0.2c0.3,0,0.6,0.1,0.9,0.2c0.3,0.1,0.5,0.3,0.6,0.6s0.2,0.6,0.2,0.9c0,0.3-0.1,0.6-0.2,0.9
							s-0.4,0.5-0.6,0.6c-0.3,0.1-0.6,0.2-0.9,0.2C428,88.5,427.7,88.4,427.4,88.2z M428.8,87.7c0.2-0.1,0.3-0.2,0.4-0.4
							c0.1-0.2,0.1-0.4,0.1-0.6c0-0.2,0-0.5-0.1-0.6c-0.1-0.2-0.2-0.3-0.4-0.4s-0.3-0.1-0.5-0.1s-0.3,0-0.5,0.1
							c-0.2,0.1-0.3,0.2-0.4,0.4c-0.1,0.2-0.1,0.4-0.1,0.6c0,0.4,0.1,0.6,0.3,0.8c0.2,0.2,0.4,0.3,0.7,0.3
							C428.5,87.8,428.7,87.8,428.8,87.7z"/>
						<path class="st0" d="M431.7,83.9v4.5H431v-4.5H431.7z"/>
						<path class="st0" d="M433.5,88.2c-0.3-0.1-0.5-0.3-0.6-0.6c-0.1-0.3-0.2-0.6-0.2-0.9c0-0.3,0.1-0.6,0.2-0.9s0.4-0.5,0.6-0.6
							c0.3-0.1,0.6-0.2,0.9-0.2c0.3,0,0.6,0.1,0.9,0.2c0.3,0.1,0.5,0.3,0.6,0.6s0.2,0.6,0.2,0.9c0,0.3-0.1,0.6-0.2,0.9
							s-0.4,0.5-0.6,0.6c-0.3,0.1-0.6,0.2-0.9,0.2C434,88.5,433.7,88.4,433.5,88.2z M434.8,87.7c0.2-0.1,0.3-0.2,0.4-0.4
							c0.1-0.2,0.1-0.4,0.1-0.6c0-0.2,0-0.5-0.1-0.6c-0.1-0.2-0.2-0.3-0.4-0.4s-0.3-0.1-0.5-0.1s-0.3,0-0.5,0.1
							c-0.2,0.1-0.3,0.2-0.4,0.4c-0.1,0.2-0.1,0.4-0.1,0.6c0,0.4,0.1,0.6,0.3,0.8c0.2,0.2,0.4,0.3,0.7,0.3
							C434.5,87.8,434.7,87.8,434.8,87.7z"/>
						<path class="st0" d="M438.1,85.1c0.2-0.1,0.4-0.1,0.6-0.1v0.7h-0.2c-0.3,0-0.5,0.1-0.6,0.2c-0.1,0.1-0.2,0.4-0.2,0.7v1.8H437
							V85h0.7v0.5C437.8,85.3,438,85.2,438.1,85.1z"/>
					</g>
					<g class="st1">
						<path class="st4" d="M392,75.9h-1.2l-3.7-5.6v5.6h-1.2v-7.5h1.2l3.7,5.6v-5.6h1.2V75.9z"/>
						<path class="st4" d="M399.4,73.4h-4.5c0,0.5,0.2,0.9,0.5,1.1s0.7,0.4,1.2,0.4c0.7,0,1.1-0.3,1.4-0.8h1.3c-0.2,0.5-0.5,1-1,1.3
							c-0.5,0.3-1,0.5-1.7,0.5c-0.6,0-1.1-0.1-1.5-0.4c-0.4-0.3-0.8-0.6-1.1-1.1s-0.4-1-0.4-1.6s0.1-1.1,0.4-1.6
							c0.2-0.5,0.6-0.8,1-1.1c0.4-0.2,1-0.4,1.5-0.4c0.6,0,1.1,0.1,1.5,0.4s0.8,0.6,1,1s0.4,0.9,0.4,1.5
							C399.4,73.1,399.4,73.3,399.4,73.4z M398.2,72.5c0-0.5-0.2-0.8-0.5-1.1S397,71,396.5,71c-0.4,0-0.8,0.1-1.1,0.4
							c-0.3,0.3-0.5,0.6-0.5,1.1H398.2z"/>
						<path class="st4" d="M409,70l-1.8,5.9h-1.3l-1.2-4.4l-1.2,4.4h-1.3l-1.8-5.9h1.2l1.2,4.7l1.3-4.7h1.3l1.2,4.7l1.2-4.7H409z"/>
						<path class="st4" d="M421.9,70.2c0.4,0.2,0.7,0.5,0.9,0.9s0.3,0.8,0.3,1.4v3.5h-1.2v-3.3c0-0.5-0.1-0.9-0.4-1.2
							s-0.6-0.4-1.1-0.4c-0.5,0-0.8,0.1-1.1,0.4c-0.3,0.3-0.4,0.7-0.4,1.2v3.3h-1.2v-3.3c0-0.5-0.1-0.9-0.4-1.2s-0.6-0.4-1.1-0.4
							c-0.5,0-0.8,0.1-1.1,0.4c-0.3,0.3-0.4,0.7-0.4,1.2v3.3h-1.2V70h1.2v0.7c0.2-0.2,0.5-0.4,0.8-0.6c0.3-0.1,0.6-0.2,1-0.2
							c0.5,0,0.9,0.1,1.3,0.3s0.7,0.5,0.9,0.9c0.2-0.4,0.5-0.6,0.8-0.9c0.4-0.2,0.8-0.3,1.2-0.3C421.1,69.9,421.6,70,421.9,70.2z"/>
						<path class="st4" d="M430.4,73.4h-4.5c0,0.5,0.2,0.9,0.5,1.1s0.7,0.4,1.2,0.4c0.7,0,1.1-0.3,1.4-0.8h1.3c-0.2,0.5-0.5,1-1,1.3
							c-0.5,0.3-1,0.5-1.7,0.5c-0.6,0-1.1-0.1-1.5-0.4c-0.4-0.3-0.8-0.6-1.1-1.1s-0.4-1-0.4-1.6s0.1-1.1,0.4-1.6
							c0.2-0.5,0.6-0.8,1-1.1c0.4-0.2,1-0.4,1.5-0.4c0.6,0,1.1,0.1,1.5,0.4s0.8,0.6,1,1s0.4,0.9,0.4,1.5
							C430.5,73.1,430.5,73.3,430.4,73.4z M429.2,72.5c0-0.5-0.2-0.8-0.5-1.1S428,71,427.6,71c-0.4,0-0.8,0.1-1.1,0.4
							c-0.3,0.3-0.5,0.6-0.5,1.1H429.2z"/>
					</g>
				</g>
				<line class="st6" x1="388.9" y1="80" x2="427.2" y2="80"/>
			</g>
			<g>
				<path class="st4" d="M386.2,10.7h44.6c1.2,0,2.2,1,2.2,2.2v44.6c0,1.2-1,2.2-2.2,2.2h-44.6c-1.2,0-2.2-1-2.2-2.2V12.9
					C384,11.7,385,10.7,386.2,10.7z"/>
				<g>
					<path class="st7" d="M401.1,23.6h14.8c0.7,0,1.3,0.6,1.3,1.3v20.5c0,0.7-0.6,1.3-1.3,1.3h-14.8c-0.7,0-1.3-0.6-1.3-1.3V24.9
						C399.8,24.2,400.4,23.6,401.1,23.6z"/>
					<line class="st7" x1="399.8" y1="28.6" x2="417.2" y2="28.6"/>
					<line class="st7" x1="399.8" y1="41.8" x2="417.2" y2="41.8"/>
					<path class="st5" d="M409.3,44.4c0,0.4-0.4,0.8-0.8,0.8s-0.8-0.3-0.8-0.8s0.4-0.8,0.8-0.8S409.3,44,409.3,44.4z"/>
				</g>
			</g>
		</g>
	</g>
	<g>
		<path class="st5" d="M4.4,26.1h95.3c2.4,0,4.4,2,4.4,4.4v34.9c0,2.4-2,4.4-4.4,4.4H4.4c-2.4,0-4.4-2-4.4-4.4V30.5
			C0,28,2,26.1,4.4,26.1z"/>
		<g>
			<path class="st0" d="M96.4,31.6c1.2,0,2.2,1,2.2,2.2v28.4c0,1.2-1,2.2-2.2,2.2H7.6c-1.2,0-2.2-1-2.2-2.2V33.7
				c0-1.2,1-2.2,2.2-2.2L96.4,31.6 M96.4,31H7.6c-1.5,0-2.7,1.2-2.7,2.7v28.4c0,1.5,1.2,2.7,2.7,2.7h88.8c1.5,0,2.7-1.2,2.7-2.7
				V33.7C99.1,32.2,97.9,31,96.4,31C96.4,31,96.4,31,96.4,31z"/>
			<g>
				<g class="st1">
					<path class="st0" d="M39.9,50.6v-0.9l4.6-6.4h1.4v6.2h1.3v1h-1.3v2.1h-1.2v-2.1H39.9z M44.8,44.5l-3.5,5h3.5V44.5z"/>
					<path class="st0" d="M51.1,51.3c0.3,0.3,0.7,0.4,1.3,0.4c0.7,0,1.3-0.3,1.6-0.9c0.3-0.6,0.5-1.5,0.5-2.9
						c-0.2,0.4-0.5,0.7-0.9,0.9s-0.9,0.3-1.4,0.3c-0.6,0-1.1-0.1-1.6-0.4s-0.8-0.6-1.1-1.1c-0.3-0.5-0.4-1-0.4-1.7
						c0-0.9,0.3-1.7,0.8-2.3c0.5-0.6,1.3-0.9,2.3-0.9c1.2,0,2.1,0.4,2.6,1.2c0.5,0.8,0.7,2,0.7,3.6c0,1.1-0.1,2-0.3,2.7
						c-0.2,0.7-0.5,1.3-1,1.6c-0.5,0.4-1.1,0.6-1.9,0.6c-0.9,0-1.6-0.2-2.1-0.7c-0.5-0.5-0.8-1.1-0.9-1.8h1.1
						C50.6,50.6,50.8,51,51.1,51.3z M53.8,47.7c0.4-0.4,0.6-0.9,0.6-1.5c0-0.7-0.2-1.2-0.6-1.6c-0.4-0.4-0.9-0.6-1.5-0.6
						c-0.6,0-1.1,0.2-1.5,0.6c-0.4,0.4-0.5,0.9-0.5,1.5c0,0.6,0.2,1.1,0.5,1.5c0.4,0.4,0.9,0.6,1.6,0.6C52.9,48.2,53.4,48,53.8,47.7
						z"/>
					<path class="st0" d="M58.6,43.7c0.6-0.5,1.3-0.7,2.2-0.7c0.6,0,1.1,0.1,1.5,0.3c0.4,0.2,0.8,0.5,1,0.9c0.2,0.4,0.3,0.8,0.3,1.2
						c0,0.5-0.2,1-0.5,1.4s-0.7,0.6-1.2,0.8v0.1c0.6,0.1,1,0.4,1.3,0.8c0.3,0.4,0.5,0.9,0.5,1.6c0,0.5-0.1,0.9-0.3,1.3
						s-0.6,0.7-1,0.9c-0.5,0.2-1,0.3-1.6,0.3c-0.9,0-1.7-0.2-2.3-0.7c-0.6-0.5-0.9-1.2-1-2.1h1.2c0.1,0.5,0.3,1,0.6,1.3
						c0.4,0.3,0.9,0.5,1.5,0.5s1.1-0.2,1.4-0.5c0.3-0.3,0.5-0.7,0.5-1.2c0-0.7-0.2-1.1-0.7-1.4c-0.4-0.3-1.1-0.4-2-0.4h-0.3v-1h0.3
						c0.8,0,1.4-0.1,1.8-0.4c0.4-0.3,0.6-0.7,0.6-1.2c0-0.5-0.2-0.8-0.5-1.1S61.3,44,60.8,44c-0.5,0-1,0.1-1.3,0.4
						c-0.3,0.3-0.5,0.7-0.6,1.1h-1.2C57.8,44.8,58.1,44.2,58.6,43.7z"/>
				</g>
				<g>
					<g>
						<path class="st4" d="M73.7,38.4h17c0.6,0,1.1,0.5,1.1,1.1v17c0,0.6-0.5,1.1-1.1,1.1h-17c-0.6,0-1.1-0.5-1.1-1.1v-17
							C72.6,38.8,73.1,38.4,73.7,38.4z"/>
						<polyline class="st8" points="80.9,44.4 84.5,47.9 80.9,51.5 						"/>
					</g>
					<g>
						<path class="st4" d="M13.4,38.4h17c0.6,0,1.1,0.5,1.1,1.1v17c0,0.6-0.5,1.1-1.1,1.1h-17c-0.6,0-1.1-0.5-1.1-1.1v-17
							C12.3,38.8,12.7,38.4,13.4,38.4z"/>
						<polyline class="st8" points="23.2,51.5 19.6,47.9 23.2,44.4 						"/>
					</g>
				</g>
			</g>
		</g>
	</g>
	<g>
		<path class="st5" d="M119.1,26.1h95.3c2.4,0,4.4,2,4.4,4.4v34.9c0,2.4-2,4.4-4.4,4.4h-95.3c-2.4,0-4.4-2-4.4-4.4V30.5
			C114.7,28,116.6,26.1,119.1,26.1z"/>
		<g>
			<path class="st4" d="M211.1,31.6c1.2,0,2.2,1,2.2,2.2v28.4c0,1.2-1,2.2-2.2,2.2h-88.8c-1.2,0-2.2-1-2.2-2.2V33.7
				c0-1.2,1-2.2,2.2-2.2L211.1,31.6 M211.1,31h-88.8c-1.5,0-2.7,1.2-2.7,2.7v28.4c0,1.5,1.2,2.7,2.7,2.7h88.8c1.5,0,2.7-1.2,2.7-2.7
				V33.7C213.8,32.2,212.6,31,211.1,31C211.1,31,211.1,31,211.1,31z"/>
			<g>
				<g>
					<g>
						<path class="st0" d="M188.4,38.4h17c0.6,0,1.1,0.5,1.1,1.1v17c0,0.6-0.5,1.1-1.1,1.1h-17c-0.6,0-1.1-0.5-1.1-1.1v-17
							C187.3,38.8,187.8,38.4,188.4,38.4z"/>
						<g>
							<line class="st8" x1="191.8" y1="47.9" x2="201.9" y2="47.9"/>
							<line class="st8" x1="196.9" y1="42.9" x2="196.9" y2="53"/>
						</g>
					</g>
					<g>
						<path class="st0" d="M128,38.4h17c0.6,0,1.1,0.5,1.1,1.1v17c0,0.6-0.5,1.1-1.1,1.1h-17c-0.6,0-1.1-0.5-1.1-1.1v-17
							C126.9,38.8,127.4,38.4,128,38.4z"/>
						<line class="st8" x1="131.5" y1="47.9" x2="141.6" y2="47.9"/>
					</g>
				</g>
				<g class="st1">
					<path class="st4" d="M161,44.1l-3.6,8.5h-1.2l3.7-8.4h-5.1v-1h6.2V44.1z"/>
					<path class="st4" d="M162.6,50.6v-0.9l4.6-6.4h1.4v6.2h1.3v1h-1.3v2.1h-1.2v-2.1H162.6z M167.5,44.5l-3.5,5h3.5V44.5z"/>
					<path class="st4" d="M173.8,51.3c0.3,0.3,0.7,0.4,1.3,0.4c0.7,0,1.3-0.3,1.6-0.9c0.3-0.6,0.5-1.5,0.5-2.9
						c-0.2,0.4-0.5,0.7-0.9,0.9s-0.9,0.3-1.4,0.3c-0.6,0-1.1-0.1-1.6-0.4s-0.8-0.6-1.1-1.1c-0.3-0.5-0.4-1-0.4-1.7
						c0-0.9,0.3-1.7,0.8-2.3c0.5-0.6,1.3-0.9,2.3-0.9c1.2,0,2.1,0.4,2.6,1.2c0.5,0.8,0.7,2,0.7,3.6c0,1.1-0.1,2-0.3,2.7
						c-0.2,0.7-0.5,1.3-1,1.6c-0.5,0.4-1.1,0.6-1.9,0.6c-0.9,0-1.6-0.2-2.1-0.7c-0.5-0.5-0.8-1.1-0.9-1.8h1.1
						C173.2,50.6,173.4,51,173.8,51.3z M176.4,47.7c0.4-0.4,0.6-0.9,0.6-1.5c0-0.7-0.2-1.2-0.6-1.6c-0.4-0.4-0.9-0.6-1.5-0.6
						c-0.6,0-1.1,0.2-1.5,0.6c-0.4,0.4-0.5,0.9-0.5,1.5c0,0.6,0.2,1.1,0.5,1.5c0.4,0.4,0.9,0.6,1.6,0.6
						C175.6,48.2,176.1,48,176.4,47.7z"/>
				</g>
			</g>
		</g>
	</g>
</g>
</svg>
