<?xml version="1.0" encoding="utf-8"?>
<!-- Generator: Adobe Illustrator 27.0.1, SVG Export Plug-In . SVG Version: 6.00 Build 0)  -->
<svg version="1.1" id="Warstwa_2_00000019672336295707624470000011284389633445185190_"
	 xmlns="http://www.w3.org/2000/svg" xmlns:xlink="http://www.w3.org/1999/xlink" x="0px" y="0px" viewBox="0 0 455.4 287.3"
	 style="enable-background:new 0 0 455.4 287.3;" xml:space="preserve">
<style type="text/css">
	.st0{fill:url(#SVGID_1_);}
	.st1{fill:#2F54EA;}
	.st2{opacity:0.3;fill:#FF8188;enable-background:new    ;}
	.st3{fill:#FF8188;}
	.st4{enable-background:new    ;}
	.st5{fill:#FFFFFF;}
	.st6{opacity:0.5;}
	.st7{fill:#F1F1F1;}
	.st8{fill:none;stroke:#FF8188;stroke-width:0.81;stroke-linecap:round;stroke-linejoin:round;}
	
		.st9{fill:url(#SVGID_00000142157184576960192940000005294478226822393788_);stroke:#2F54EA;stroke-width:0.61;stroke-miterlimit:10;}
	.st10{fill:none;stroke:#CBCBCB;stroke-width:0.4;stroke-miterlimit:10;}
	.st11{fill:none;stroke:#2F54EA;stroke-width:0.4;stroke-miterlimit:10;}
	.st12{fill:none;stroke:#FFFFFF;stroke-width:0.4;stroke-linecap:round;stroke-linejoin:round;}
	.st13{fill:none;stroke:#FFFFFF;stroke-width:0.63;stroke-linecap:round;stroke-linejoin:round;}
	.st14{fill:none;stroke:#FF8188;stroke-width:0.81;stroke-miterlimit:10;}
	.st15{fill:none;stroke:#FFFFFF;stroke-width:0.47;stroke-linecap:round;stroke-linejoin:round;}
	.st16{fill:#B2B2B2;}
	.st17{fill:none;stroke:#2F54EA;stroke-width:0.81;stroke-linecap:round;stroke-linejoin:round;}
	.st18{fill:none;stroke:#FFFFFF;stroke-width:0.81;stroke-linecap:round;stroke-linejoin:round;}
</style>
<g id="Warstwa_1-2">
	<g>
		<g>
			
				<linearGradient id="SVGID_1_" gradientUnits="userSpaceOnUse" x1="184.46" y1="111.1233" x2="361.84" y2="111.1233" gradientTransform="matrix(1 0 0 -1 0 287.2284)">
				<stop  offset="0" style="stop-color:#193BA7"/>
				<stop  offset="0.66" style="stop-color:#07336C"/>
				<stop  offset="1" style="stop-color:#003053"/>
			</linearGradient>
			<path class="st0" d="M187.7,95.5h170.9c1.8,0,3.2,1.4,3.2,3.2v154.8c0,1.8-1.4,3.2-3.2,3.2H187.7c-1.8,0-3.2-1.4-3.2-3.2V98.7
				C184.5,96.9,185.9,95.5,187.7,95.5z"/>
			<path class="st1" d="M187.7,95.5h170.9c1.8,0,3.2,1.4,3.2,3.2v21H184.5v-21C184.5,96.9,185.9,95.5,187.7,95.5L187.7,95.5z"/>
		</g>
		<g>
			<g>
				<g>
					<path class="st2" d="M296.9,203.8h-71.4c-3.6,0-6.6-2.9-6.6-6.6l0,0c0-3.6,2.9-6.6,6.6-6.6h71.4c3.6,0,6.5,2.9,6.5,6.6l0,0
						C303.4,200.9,300.5,203.8,296.9,203.8z"/>
					<g>
						<path class="st3" d="M232,197.2c0,3.6-2.9,6.6-6.6,6.6s-6.6-2.9-6.6-6.6s2.9-6.6,6.6-6.6S232,193.6,232,197.2z"/>
						<path class="st3" d="M303.4,197.2c0,3.6-2.9,6.6-6.5,6.6s-6.5-2.9-6.5-6.6s2.9-6.6,6.5-6.6S303.4,193.6,303.4,197.2z"/>
					</g>
				</g>
				<g>
					<g class="st4">
						<path class="st5" d="M204.5,130.7v5.7h-0.7v-4.2l-1.9,4.2h-0.5l-1.9-4.2v4.2h-0.7v-5.7h0.8l2.1,4.7l2.1-4.7H204.5z"/>
					</g>
					<g class="st4">
						<path class="st5" d="M227.4,130.7v0.6h-1.6v5.1h-0.7v-5.1h-1.6v-0.6H227.4z"/>
					</g>
					<g class="st4">
						<path class="st5" d="M253,130.7l-1.7,5.7h-0.8l-1.3-4.6l-1.4,4.6l-0.8,0l-1.6-5.7h0.8l1.2,4.8l1.4-4.8h0.8l1.3,4.8l1.2-4.8
							H253z"/>
					</g>
					<g class="st4">
						<path class="st5" d="M275,130.7v0.6h-1.6v5.1h-0.7v-5.1h-1.6v-0.6H275z"/>
					</g>
					<g class="st4">
						<path class="st5" d="M298.7,130.7v0.6h-2.5v1.9h2v0.6h-2v2.6h-0.7v-5.7H298.7z"/>
					</g>
					<g class="st6">
						<g class="st4">
							<path class="st5" d="M319.7,136.3c-0.3-0.1-0.5-0.3-0.7-0.6c-0.2-0.2-0.3-0.5-0.3-0.8h0.8c0,0.3,0.1,0.5,0.3,0.7
								s0.5,0.3,0.8,0.3c0.4,0,0.6-0.1,0.8-0.3c0.2-0.2,0.3-0.4,0.3-0.7c0-0.2-0.1-0.4-0.2-0.5c-0.1-0.1-0.3-0.2-0.4-0.3
								c-0.2-0.1-0.4-0.1-0.7-0.2c-0.4-0.1-0.7-0.2-0.9-0.3c-0.2-0.1-0.4-0.3-0.6-0.5c-0.2-0.2-0.2-0.5-0.2-0.8
								c0-0.3,0.1-0.6,0.2-0.8c0.2-0.2,0.4-0.4,0.7-0.6c0.3-0.1,0.6-0.2,1-0.2c0.5,0,1,0.1,1.3,0.4c0.3,0.3,0.5,0.6,0.6,1.1h-0.8
								c0-0.2-0.1-0.4-0.3-0.6c-0.2-0.2-0.5-0.2-0.8-0.2c-0.3,0-0.6,0.1-0.8,0.2c-0.2,0.2-0.3,0.4-0.3,0.7c0,0.2,0.1,0.4,0.2,0.5
								s0.3,0.2,0.4,0.3c0.2,0.1,0.4,0.1,0.7,0.2c0.4,0.1,0.7,0.2,0.9,0.3c0.2,0.1,0.4,0.3,0.6,0.5c0.2,0.2,0.2,0.5,0.2,0.9
								c0,0.3-0.1,0.5-0.2,0.8c-0.1,0.2-0.4,0.4-0.7,0.6c-0.3,0.2-0.6,0.2-1,0.2C320.3,136.5,320,136.4,319.7,136.3z"/>
						</g>
					</g>
					<g class="st6">
						<g class="st4">
							<path class="st5" d="M343.5,136.3c-0.3-0.1-0.5-0.3-0.7-0.6c-0.2-0.2-0.3-0.5-0.3-0.8h0.8c0,0.3,0.1,0.5,0.3,0.7
								s0.5,0.3,0.8,0.3c0.4,0,0.6-0.1,0.8-0.3c0.2-0.2,0.3-0.4,0.3-0.7c0-0.2-0.1-0.4-0.2-0.5c-0.1-0.1-0.3-0.2-0.5-0.3
								c-0.2-0.1-0.4-0.1-0.7-0.2c-0.4-0.1-0.7-0.2-0.9-0.3c-0.2-0.1-0.4-0.3-0.6-0.5c-0.2-0.2-0.2-0.5-0.2-0.8
								c0-0.3,0.1-0.6,0.2-0.8c0.2-0.2,0.4-0.4,0.7-0.6s0.6-0.2,1-0.2c0.5,0,1,0.1,1.3,0.4c0.3,0.3,0.5,0.6,0.6,1.1h-0.8
								c0-0.2-0.1-0.4-0.3-0.6c-0.2-0.2-0.5-0.2-0.8-0.2c-0.3,0-0.6,0.1-0.8,0.2c-0.2,0.2-0.3,0.4-0.3,0.7c0,0.2,0.1,0.4,0.2,0.5
								s0.3,0.2,0.4,0.3s0.4,0.1,0.7,0.2c0.4,0.1,0.7,0.2,0.9,0.3c0.2,0.1,0.4,0.3,0.6,0.5c0.2,0.2,0.2,0.5,0.2,0.9
								c0,0.3-0.1,0.5-0.2,0.8c-0.1,0.2-0.4,0.4-0.7,0.6c-0.3,0.2-0.6,0.2-1,0.2C344.1,136.5,343.8,136.4,343.5,136.3z"/>
						</g>
					</g>
					<g class="st4">
						<path class="st5" d="M201.7,173.4c-0.5,0-0.8,0.2-1.1,0.6c-0.2,0.4-0.4,1-0.4,1.8c0.1-0.3,0.3-0.5,0.6-0.7
							c0.3-0.2,0.6-0.2,1-0.2c0.6,0,1,0.2,1.3,0.5s0.5,0.8,0.5,1.4c0,0.4-0.1,0.7-0.2,1c-0.1,0.3-0.4,0.5-0.7,0.7
							c-0.3,0.2-0.6,0.3-1.1,0.3c-0.6,0-1-0.1-1.3-0.4c-0.3-0.3-0.5-0.6-0.7-1c-0.1-0.4-0.2-1-0.2-1.6c0-2,0.7-3,2.1-3
							c0.5,0,1,0.1,1.3,0.4c0.3,0.3,0.5,0.7,0.5,1.1h-0.7C202.7,173.7,202.3,173.4,201.7,173.4z M201.1,175.7
							c-0.2,0.1-0.4,0.2-0.5,0.4c-0.1,0.2-0.2,0.4-0.2,0.7c0,0.4,0.1,0.8,0.4,1c0.2,0.3,0.6,0.4,1,0.4c0.4,0,0.7-0.1,0.9-0.4
							s0.3-0.6,0.3-1c0-0.4-0.1-0.8-0.3-1c-0.2-0.2-0.5-0.4-1-0.4C201.5,175.5,201.3,175.6,201.1,175.7z"/>
					</g>
					<g class="st4">
						<path class="st5" d="M227.4,173.5l-2.3,5.3h-0.8l2.3-5.3h-3.2v-0.6h3.9V173.5z"/>
					</g>
					<g class="st4">
						<path class="st5" d="M247.6,175.2c-0.2-0.2-0.2-0.5-0.2-0.8c0-0.3,0.1-0.6,0.2-0.8c0.1-0.2,0.4-0.4,0.7-0.6
							c0.3-0.1,0.6-0.2,1.1-0.2c0.4,0,0.8,0.1,1.1,0.2c0.3,0.1,0.5,0.3,0.7,0.6c0.1,0.2,0.2,0.5,0.2,0.8c0,0.3-0.1,0.6-0.3,0.8
							c-0.2,0.2-0.4,0.4-0.7,0.5c0.3,0.1,0.6,0.3,0.8,0.5c0.2,0.3,0.3,0.6,0.3,0.9c0,0.4-0.1,0.7-0.3,0.9c-0.2,0.3-0.4,0.5-0.7,0.6
							c-0.3,0.1-0.7,0.2-1.1,0.2c-0.4,0-0.8-0.1-1.1-0.2c-0.3-0.1-0.6-0.3-0.7-0.6c-0.2-0.3-0.3-0.6-0.3-0.9c0-0.4,0.1-0.7,0.3-0.9
							c0.2-0.3,0.5-0.4,0.8-0.5C248,175.6,247.7,175.4,247.6,175.2z M248.3,176.3c-0.3,0.2-0.4,0.5-0.4,0.8c0,0.3,0.1,0.6,0.4,0.8
							c0.2,0.2,0.6,0.3,1,0.3c0.4,0,0.8-0.1,1-0.3c0.2-0.2,0.4-0.5,0.4-0.8c0-0.4-0.1-0.6-0.4-0.8c-0.3-0.2-0.6-0.3-1-0.3
							C248.8,176.1,248.5,176.2,248.3,176.3z M250.1,173.7c-0.2-0.2-0.5-0.3-0.9-0.3c-0.4,0-0.7,0.1-0.9,0.3s-0.3,0.4-0.3,0.8
							c0,0.3,0.1,0.5,0.3,0.7c0.2,0.2,0.5,0.3,0.9,0.3c0.4,0,0.7-0.1,0.9-0.3c0.2-0.2,0.3-0.4,0.3-0.7
							C250.5,174.1,250.4,173.9,250.1,173.7z"/>
					</g>
					<g class="st4">
						<path class="st5" d="M272.3,177.9c0.2,0.2,0.5,0.3,0.8,0.3c0.5,0,0.8-0.2,1-0.5c0.2-0.4,0.3-1,0.3-1.8
							c-0.1,0.2-0.3,0.4-0.6,0.6c-0.3,0.1-0.6,0.2-0.9,0.2c-0.4,0-0.7-0.1-1-0.2c-0.3-0.2-0.5-0.4-0.7-0.7c-0.2-0.3-0.2-0.6-0.2-1
							c0-0.6,0.2-1.1,0.5-1.4c0.3-0.4,0.8-0.5,1.4-0.5c0.8,0,1.3,0.2,1.6,0.7c0.3,0.5,0.5,1.2,0.5,2.2c0,0.7-0.1,1.3-0.2,1.7
							c-0.1,0.4-0.3,0.8-0.6,1c-0.3,0.2-0.7,0.4-1.2,0.4c-0.6,0-1-0.1-1.3-0.4c-0.3-0.3-0.5-0.7-0.5-1.1h0.7
							C272,177.5,272.1,177.8,272.3,177.9z M274,175.7c0.2-0.2,0.4-0.5,0.4-0.9c0-0.4-0.1-0.7-0.3-1c-0.2-0.3-0.6-0.4-1-0.4
							c-0.4,0-0.7,0.1-0.9,0.4c-0.2,0.2-0.3,0.6-0.3,0.9c0,0.4,0.1,0.7,0.3,1c0.2,0.2,0.5,0.4,1,0.4
							C273.5,176,273.8,175.9,274,175.7z"/>
					</g>
					<g class="st4">
						<path class="st5" d="M293.1,173.6v-0.7h1.5v5.9h-0.8v-5.2H293.1z"/>
						<path class="st5" d="M296.7,173.6c0.3-0.5,0.8-0.8,1.6-0.8c0.8,0,1.3,0.3,1.6,0.8c0.3,0.5,0.5,1.3,0.5,2.2
							c0,1-0.2,1.7-0.5,2.2c-0.3,0.5-0.8,0.8-1.6,0.8c-0.8,0-1.3-0.3-1.6-0.8c-0.3-0.5-0.5-1.3-0.5-2.2
							C296.3,174.9,296.4,174.1,296.7,173.6z M299.6,174.6c-0.1-0.3-0.2-0.6-0.4-0.8c-0.2-0.2-0.5-0.3-0.8-0.3
							c-0.4,0-0.7,0.1-0.8,0.3c-0.2,0.2-0.3,0.5-0.4,0.8s-0.1,0.7-0.1,1.2c0,0.5,0,0.9,0.1,1.2s0.2,0.6,0.4,0.8s0.5,0.3,0.8,0.3
							c0.4,0,0.6-0.1,0.8-0.3s0.3-0.5,0.4-0.8s0.1-0.7,0.1-1.2C299.7,175.3,299.6,174.9,299.6,174.6z"/>
					</g>
					<g class="st6">
						<g class="st4">
							<path class="st5" d="M318.2,173.6v-0.7h1.5v5.9H319v-5.2H318.2z"/>
							<path class="st5" d="M321.2,173.6v-0.7h1.5v5.9h-0.8v-5.2H321.2z"/>
						</g>
					</g>
					<g class="st6">
						<g class="st4">
							<path class="st5" d="M341,173.6v-0.7h1.5v5.9h-0.8v-5.2H341z"/>
							<path class="st5" d="M345.6,176.8c0.4-0.4,0.7-0.7,1-1.1s0.4-0.8,0.4-1.1c0-0.4-0.1-0.6-0.3-0.8s-0.4-0.3-0.8-0.3
								c-0.4,0-0.7,0.1-0.9,0.3s-0.3,0.5-0.3,0.9H344c0-0.6,0.2-1.1,0.6-1.4s0.8-0.5,1.3-0.5c0.6,0,1,0.2,1.3,0.5
								c0.3,0.3,0.5,0.7,0.5,1.3c0,0.5-0.1,0.9-0.4,1.3s-0.6,0.8-0.9,1.1c-0.3,0.3-0.8,0.7-1.3,1.1h2.8v0.6H344v-0.5
								C344.7,177.7,345.3,177.2,345.6,176.8z"/>
						</g>
					</g>
					<g class="st4">
						<path class="st5" d="M198.1,194.9v-0.7h1.5v5.9h-0.8v-5.2H198.1z"/>
						<path class="st5" d="M201.8,194.6c0.3-0.3,0.8-0.4,1.4-0.4c0.4,0,0.7,0.1,1,0.2c0.3,0.1,0.5,0.3,0.6,0.5
							c0.1,0.2,0.2,0.5,0.2,0.8c0,0.3-0.1,0.6-0.3,0.9s-0.4,0.4-0.8,0.5v0c0.4,0.1,0.6,0.3,0.8,0.5c0.2,0.3,0.3,0.6,0.3,1
							c0,0.3-0.1,0.6-0.2,0.8c-0.1,0.2-0.4,0.4-0.6,0.6s-0.6,0.2-1,0.2c-0.6,0-1.1-0.2-1.4-0.5c-0.4-0.3-0.6-0.7-0.6-1.3h0.7
							c0,0.3,0.2,0.6,0.4,0.8s0.5,0.3,0.9,0.3c0.4,0,0.7-0.1,0.9-0.3c0.2-0.2,0.3-0.5,0.3-0.8c0-0.4-0.1-0.7-0.4-0.9
							s-0.7-0.3-1.2-0.3h-0.2v-0.6h0.2c0.5,0,0.9-0.1,1.1-0.2c0.3-0.2,0.4-0.4,0.4-0.7c0-0.3-0.1-0.5-0.3-0.7
							c-0.2-0.2-0.5-0.3-0.8-0.3c-0.3,0-0.6,0.1-0.8,0.3c-0.2,0.2-0.3,0.4-0.4,0.7h-0.7C201.2,195.2,201.4,194.9,201.8,194.6z"/>
					</g>
					<g class="st4">
						<path class="st5" d="M221.7,194.9v-0.7h1.5v5.9h-0.8v-5.2H221.7z"/>
						<path class="st5" d="M224.7,198.9v-0.6l2.9-4h0.9v3.9h0.8v0.6h-0.8v1.3h-0.7v-1.3H224.7z M227.7,195.1l-2.2,3.1h2.2V195.1z"/>
					</g>
					<g class="st4">
						<path class="st5" d="M245.5,194.9v-0.7h1.5v5.9h-0.8v-5.2H245.5z"/>
						<path class="st5" d="M252.4,194.9h-2.9v1.9c0.1-0.2,0.3-0.3,0.6-0.4c0.2-0.1,0.5-0.2,0.8-0.2c0.5,0,0.8,0.1,1.1,0.3
							c0.3,0.2,0.5,0.4,0.6,0.7c0.1,0.3,0.2,0.6,0.2,0.9c0,0.4-0.1,0.7-0.2,1.1c-0.1,0.3-0.4,0.6-0.7,0.7s-0.7,0.3-1.1,0.3
							c-0.6,0-1-0.1-1.4-0.4c-0.4-0.3-0.6-0.7-0.6-1.2h0.7c0.1,0.3,0.2,0.6,0.4,0.7c0.2,0.2,0.5,0.3,0.9,0.3c0.4,0,0.8-0.1,1-0.4
							c0.2-0.3,0.3-0.6,0.3-1s-0.1-0.8-0.3-1c-0.2-0.2-0.5-0.3-1-0.3c-0.3,0-0.5,0.1-0.8,0.2c-0.2,0.1-0.4,0.3-0.5,0.6h-0.7v-3.3
							h3.6V194.9z"/>
					</g>
					<g class="st4">
						<path class="st5" d="M269.3,194.9v-0.7h1.5v5.9h-0.8v-5.2H269.3z"/>
						<path class="st5" d="M274.6,194.8c-0.5,0-0.8,0.2-1.1,0.6c-0.2,0.4-0.4,1-0.4,1.8c0.1-0.3,0.3-0.5,0.6-0.7
							c0.3-0.2,0.6-0.2,1-0.2c0.6,0,1,0.2,1.3,0.5s0.5,0.8,0.5,1.4c0,0.4-0.1,0.7-0.2,1c-0.1,0.3-0.4,0.5-0.7,0.7
							c-0.3,0.2-0.6,0.3-1.1,0.3c-0.6,0-1-0.1-1.3-0.4c-0.3-0.3-0.5-0.6-0.7-1c-0.1-0.4-0.2-1-0.2-1.6c0-2,0.7-3,2.1-3
							c0.5,0,1,0.1,1.3,0.4c0.3,0.3,0.5,0.7,0.5,1.1h-0.7C275.6,195.1,275.2,194.8,274.6,194.8z M274,197c-0.2,0.1-0.4,0.2-0.5,0.4
							c-0.1,0.2-0.2,0.4-0.2,0.7c0,0.4,0.1,0.8,0.4,1c0.2,0.3,0.6,0.4,1,0.4c0.4,0,0.7-0.1,0.9-0.4c0.2-0.2,0.3-0.6,0.3-1
							c0-0.4-0.1-0.8-0.3-1c-0.2-0.2-0.5-0.4-1-0.4C274.4,196.9,274.2,196.9,274,197z"/>
					</g>
					<g class="st4">
						<path class="st5" d="M293.5,194.9v-0.7h1.5v5.9h-0.8v-5.2H293.5z"/>
						<path class="st5" d="M300.3,194.8l-2.3,5.3h-0.8l2.3-5.3h-3.2v-0.6h3.9V194.8z"/>
					</g>
					<g class="st6">
						<g class="st4">
							<path class="st5" d="M316.9,194.9v-0.7h1.5v5.9h-0.8v-5.2H316.9z"/>
							<path class="st5" d="M320.5,196.6c-0.2-0.2-0.2-0.5-0.2-0.8c0-0.3,0.1-0.6,0.2-0.8c0.1-0.2,0.4-0.4,0.7-0.6
								c0.3-0.1,0.6-0.2,1.1-0.2s0.8,0.1,1.1,0.2c0.3,0.1,0.5,0.3,0.7,0.6s0.2,0.5,0.2,0.8c0,0.3-0.1,0.6-0.3,0.8
								c-0.2,0.2-0.4,0.4-0.7,0.5c0.3,0.1,0.6,0.3,0.8,0.5c0.2,0.3,0.3,0.6,0.3,0.9c0,0.4-0.1,0.7-0.3,0.9c-0.2,0.3-0.4,0.5-0.7,0.6
								c-0.3,0.1-0.7,0.2-1.1,0.2s-0.8-0.1-1.1-0.2c-0.3-0.1-0.6-0.3-0.7-0.6c-0.2-0.3-0.3-0.6-0.3-0.9c0-0.4,0.1-0.7,0.3-0.9
								c0.2-0.3,0.5-0.4,0.8-0.5C320.9,197,320.6,196.8,320.5,196.6z M321.2,197.7c-0.3,0.2-0.4,0.5-0.4,0.8c0,0.3,0.1,0.6,0.4,0.8
								c0.2,0.2,0.6,0.3,1,0.3s0.8-0.1,1-0.3c0.2-0.2,0.4-0.5,0.4-0.8c0-0.4-0.1-0.6-0.4-0.8c-0.2-0.2-0.6-0.3-1-0.3
								C321.7,197.4,321.4,197.5,321.2,197.7z M323,195.1c-0.2-0.2-0.5-0.3-0.9-0.3c-0.4,0-0.7,0.1-0.9,0.3s-0.3,0.4-0.3,0.8
								c0,0.3,0.1,0.5,0.3,0.7c0.2,0.2,0.5,0.3,0.9,0.3c0.4,0,0.7-0.1,0.9-0.3c0.2-0.2,0.3-0.4,0.3-0.7
								C323.4,195.5,323.3,195.2,323,195.1z"/>
						</g>
					</g>
					<g class="st6">
						<g class="st4">
							<path class="st5" d="M340.8,194.9v-0.7h1.5v5.9h-0.8v-5.2H340.8z"/>
							<path class="st5" d="M345.2,199.3c0.2,0.2,0.5,0.3,0.8,0.3c0.5,0,0.8-0.2,1-0.5c0.2-0.4,0.3-1,0.3-1.8
								c-0.1,0.2-0.3,0.4-0.6,0.6c-0.3,0.1-0.6,0.2-0.9,0.2c-0.4,0-0.7-0.1-1-0.2c-0.3-0.2-0.5-0.4-0.7-0.7c-0.2-0.3-0.2-0.6-0.2-1
								c0-0.6,0.2-1.1,0.5-1.4c0.3-0.4,0.8-0.5,1.4-0.5c0.8,0,1.3,0.2,1.6,0.7c0.3,0.5,0.5,1.2,0.5,2.2c0,0.7-0.1,1.3-0.2,1.7
								c-0.1,0.4-0.3,0.8-0.6,1c-0.3,0.2-0.7,0.4-1.2,0.4c-0.6,0-1-0.1-1.3-0.4c-0.3-0.3-0.5-0.7-0.5-1.1h0.7
								C344.9,198.9,345,199.1,345.2,199.3z M346.9,197.1c0.2-0.2,0.4-0.5,0.4-0.9c0-0.4-0.1-0.7-0.3-1c-0.2-0.3-0.5-0.4-1-0.4
								c-0.4,0-0.7,0.1-0.9,0.4c-0.2,0.2-0.3,0.6-0.3,0.9c0,0.4,0.1,0.7,0.3,1c0.2,0.2,0.5,0.4,1,0.4
								C346.4,197.4,346.7,197.3,346.9,197.1z"/>
						</g>
					</g>
					<g class="st4">
						<path class="st5" d="M198.6,219.6c0.4-0.4,0.7-0.7,1-1.1s0.4-0.8,0.4-1.1c0-0.4-0.1-0.6-0.3-0.8c-0.2-0.2-0.4-0.3-0.8-0.3
							c-0.4,0-0.7,0.1-0.9,0.3c-0.2,0.2-0.3,0.5-0.3,0.9H197c0-0.6,0.2-1.1,0.6-1.4s0.8-0.5,1.3-0.5c0.6,0,1,0.2,1.3,0.5
							c0.3,0.3,0.5,0.7,0.5,1.3c0,0.5-0.1,0.9-0.4,1.3s-0.6,0.8-0.9,1.1c-0.3,0.3-0.8,0.7-1.3,1.1h2.8v0.6H197v-0.5
							C197.7,220.4,198.2,219.9,198.6,219.6z"/>
						<path class="st5" d="M202.5,216.3c0.3-0.5,0.8-0.8,1.6-0.8c0.8,0,1.3,0.3,1.6,0.8c0.3,0.5,0.5,1.3,0.5,2.2
							c0,1-0.2,1.7-0.5,2.2c-0.3,0.5-0.8,0.8-1.6,0.8c-0.8,0-1.3-0.3-1.6-0.8c-0.3-0.5-0.5-1.3-0.5-2.2
							C202.1,217.6,202.2,216.8,202.5,216.3z M205.4,217.3c-0.1-0.3-0.2-0.6-0.4-0.8c-0.2-0.2-0.5-0.3-0.8-0.3
							c-0.4,0-0.7,0.1-0.8,0.3c-0.2,0.2-0.3,0.5-0.4,0.8c-0.1,0.3-0.1,0.7-0.1,1.2c0,0.5,0,0.9,0.1,1.2c0.1,0.3,0.2,0.6,0.4,0.8
							s0.5,0.3,0.8,0.3c0.4,0,0.6-0.1,0.8-0.3s0.3-0.5,0.4-0.8s0.1-0.7,0.1-1.2C205.5,218,205.4,217.6,205.4,217.3z"/>
					</g>
					<g class="st4">
						<path class="st5" d="M223.7,219.6c0.4-0.4,0.7-0.7,1-1.1s0.4-0.8,0.4-1.1c0-0.4-0.1-0.6-0.3-0.8c-0.2-0.2-0.4-0.3-0.8-0.3
							c-0.4,0-0.7,0.1-0.9,0.3c-0.2,0.2-0.3,0.5-0.3,0.9h-0.7c0-0.6,0.2-1.1,0.6-1.4s0.8-0.5,1.3-0.5c0.6,0,1,0.2,1.3,0.5
							c0.3,0.3,0.5,0.7,0.5,1.3c0,0.5-0.1,0.9-0.4,1.3s-0.6,0.8-0.9,1.1c-0.3,0.3-0.8,0.7-1.3,1.1h2.8v0.6H222v-0.5
							C222.7,220.4,223.3,219.9,223.7,219.6z"/>
						<path class="st5" d="M227,216.3v-0.7h1.5v5.9h-0.8v-5.2H227z"/>
					</g>
					<g class="st4">
						<path class="st5" d="M246.4,219.6c0.4-0.4,0.7-0.7,1-1.1s0.4-0.8,0.4-1.1c0-0.4-0.1-0.6-0.3-0.8s-0.4-0.3-0.8-0.3
							c-0.4,0-0.7,0.1-0.9,0.3s-0.3,0.5-0.3,0.9h-0.7c0-0.6,0.2-1.1,0.6-1.4s0.8-0.5,1.3-0.5c0.6,0,1,0.2,1.3,0.5
							c0.3,0.3,0.5,0.7,0.5,1.3c0,0.5-0.1,0.9-0.4,1.3s-0.6,0.8-0.9,1.1c-0.3,0.3-0.8,0.7-1.3,1.1h2.8v0.6h-3.9v-0.5
							C245.5,220.4,246,219.9,246.4,219.6z"/>
						<path class="st5" d="M251.5,219.6c0.4-0.4,0.7-0.7,1-1.1s0.4-0.8,0.4-1.1c0-0.4-0.1-0.6-0.3-0.8s-0.4-0.3-0.8-0.3
							c-0.4,0-0.7,0.1-0.9,0.3s-0.3,0.5-0.3,0.9h-0.7c0-0.6,0.2-1.1,0.6-1.4s0.8-0.5,1.3-0.5c0.6,0,1,0.2,1.3,0.5
							c0.3,0.3,0.5,0.7,0.5,1.3c0,0.5-0.1,0.9-0.4,1.3s-0.6,0.8-0.9,1.1c-0.3,0.3-0.8,0.7-1.3,1.1h2.8v0.6h-3.9v-0.5
							C250.5,220.4,251.1,219.9,251.5,219.6z"/>
					</g>
					<g class="st4">
						<path class="st5" d="M270.2,219.6c0.4-0.4,0.7-0.7,1-1.1s0.4-0.8,0.4-1.1c0-0.4-0.1-0.6-0.3-0.8s-0.4-0.3-0.8-0.3
							c-0.4,0-0.7,0.1-0.9,0.3s-0.3,0.5-0.3,0.9h-0.7c0-0.6,0.2-1.1,0.6-1.4s0.8-0.5,1.3-0.5c0.6,0,1,0.2,1.3,0.5
							c0.3,0.3,0.5,0.7,0.5,1.3c0,0.5-0.1,0.9-0.4,1.3s-0.6,0.8-0.9,1.1c-0.3,0.3-0.8,0.7-1.3,1.1h2.8v0.6h-3.9v-0.5
							C269.2,220.4,269.8,219.9,270.2,219.6z"/>
						<path class="st5" d="M274.2,215.9c0.3-0.3,0.8-0.4,1.4-0.4c0.4,0,0.7,0.1,1,0.2c0.3,0.1,0.5,0.3,0.6,0.5
							c0.1,0.2,0.2,0.5,0.2,0.8c0,0.3-0.1,0.6-0.3,0.9s-0.4,0.4-0.8,0.5v0c0.4,0.1,0.6,0.3,0.8,0.5c0.2,0.3,0.3,0.6,0.3,1
							c0,0.3-0.1,0.6-0.2,0.8s-0.4,0.4-0.6,0.6s-0.6,0.2-1,0.2c-0.6,0-1.1-0.2-1.4-0.5c-0.4-0.3-0.6-0.7-0.6-1.3h0.7
							c0,0.3,0.2,0.6,0.4,0.8c0.2,0.2,0.5,0.3,0.9,0.3c0.4,0,0.7-0.1,0.9-0.3c0.2-0.2,0.3-0.5,0.3-0.8c0-0.4-0.1-0.7-0.4-0.9
							s-0.7-0.3-1.2-0.3h-0.2v-0.6h0.2c0.5,0,0.9-0.1,1.1-0.2c0.3-0.2,0.4-0.4,0.4-0.7c0-0.3-0.1-0.5-0.3-0.7
							c-0.2-0.2-0.5-0.3-0.8-0.3c-0.3,0-0.6,0.1-0.8,0.3c-0.2,0.2-0.3,0.4-0.4,0.7h-0.7C273.7,216.6,273.9,216.2,274.2,215.9z"/>
					</g>
					<g class="st4">
						<path class="st5" d="M293.8,219.6c0.4-0.4,0.7-0.7,1-1.1s0.4-0.8,0.4-1.1c0-0.4-0.1-0.6-0.3-0.8c-0.2-0.2-0.4-0.3-0.8-0.3
							c-0.4,0-0.7,0.1-0.9,0.3c-0.2,0.2-0.3,0.5-0.3,0.9h-0.7c0-0.6,0.2-1.1,0.6-1.4s0.8-0.5,1.3-0.5c0.6,0,1,0.2,1.3,0.5
							c0.3,0.3,0.5,0.7,0.5,1.3c0,0.5-0.1,0.9-0.4,1.3s-0.6,0.8-0.9,1.1c-0.3,0.3-0.8,0.7-1.3,1.1h2.8v0.6h-3.9v-0.5
							C292.9,220.4,293.4,219.9,293.8,219.6z"/>
						<path class="st5" d="M297.1,220.2v-0.6l2.9-4h0.9v3.9h0.8v0.6h-0.8v1.3h-0.7v-1.3H297.1z M300.2,216.4l-2.2,3.1h2.2V216.4z"/>
					</g>
					<g class="st6">
						<g class="st4">
							<path class="st5" d="M317.6,219.6c0.4-0.4,0.7-0.7,1-1.1s0.4-0.8,0.4-1.1c0-0.4-0.1-0.6-0.3-0.8s-0.4-0.3-0.8-0.3
								c-0.4,0-0.7,0.1-0.9,0.3s-0.3,0.5-0.3,0.9H316c0-0.6,0.2-1.1,0.6-1.4s0.8-0.5,1.3-0.5c0.6,0,1,0.2,1.3,0.5
								c0.3,0.3,0.5,0.7,0.5,1.3c0,0.5-0.1,0.9-0.4,1.3s-0.6,0.8-0.9,1.1c-0.3,0.3-0.8,0.7-1.3,1.1h2.8v0.6H316v-0.5
								C316.7,220.4,317.2,219.9,317.6,219.6z"/>
							<path class="st5" d="M324.9,216.3H322v1.9c0.1-0.2,0.3-0.3,0.6-0.4c0.2-0.1,0.5-0.2,0.8-0.2c0.5,0,0.8,0.1,1.1,0.3
								c0.3,0.2,0.5,0.4,0.6,0.7c0.1,0.3,0.2,0.6,0.2,0.9c0,0.4-0.1,0.7-0.2,1.1c-0.1,0.3-0.4,0.6-0.7,0.7c-0.3,0.2-0.7,0.3-1.1,0.3
								c-0.6,0-1-0.1-1.4-0.4c-0.4-0.3-0.6-0.7-0.6-1.2h0.7c0.1,0.3,0.2,0.6,0.4,0.7c0.2,0.2,0.5,0.3,0.9,0.3c0.4,0,0.8-0.1,1-0.4
								s0.3-0.6,0.3-1s-0.1-0.8-0.3-1s-0.5-0.3-1-0.3c-0.3,0-0.5,0.1-0.8,0.2s-0.4,0.3-0.5,0.6h-0.7v-3.3h3.6V216.3z"/>
						</g>
					</g>
					<g class="st6">
						<g class="st4">
							<path class="st5" d="M341.4,219.6c0.4-0.4,0.7-0.7,1-1.1s0.4-0.8,0.4-1.1c0-0.4-0.1-0.6-0.3-0.8s-0.4-0.3-0.8-0.3
								c-0.4,0-0.7,0.1-0.9,0.3s-0.3,0.5-0.3,0.9h-0.7c0-0.6,0.2-1.1,0.6-1.4s0.8-0.5,1.3-0.5c0.6,0,1,0.2,1.3,0.5
								c0.3,0.3,0.5,0.7,0.5,1.3c0,0.5-0.1,0.9-0.4,1.3s-0.6,0.8-0.9,1.1c-0.3,0.3-0.8,0.7-1.3,1.1h2.8v0.6h-3.9v-0.5
								C340.5,220.4,341,219.9,341.4,219.6z"/>
							<path class="st5" d="M347.1,216.1c-0.5,0-0.8,0.2-1.1,0.6c-0.2,0.4-0.4,1-0.4,1.8c0.1-0.3,0.3-0.5,0.6-0.7
								c0.3-0.2,0.6-0.2,1-0.2c0.6,0,1,0.2,1.3,0.5s0.5,0.8,0.5,1.4c0,0.4-0.1,0.7-0.2,1c-0.1,0.3-0.4,0.5-0.7,0.7
								c-0.3,0.2-0.6,0.3-1.1,0.3c-0.6,0-1-0.1-1.3-0.4c-0.3-0.3-0.5-0.6-0.7-1c-0.1-0.4-0.2-1-0.2-1.6c0-2,0.7-3,2.1-3
								c0.5,0,1,0.1,1.3,0.4c0.3,0.3,0.5,0.7,0.5,1.1h-0.7C348.1,216.4,347.7,216.1,347.1,216.1z M346.4,218.4
								c-0.2,0.1-0.4,0.2-0.5,0.4c-0.1,0.2-0.2,0.4-0.2,0.7c0,0.4,0.1,0.8,0.4,1c0.2,0.3,0.6,0.4,1,0.4c0.4,0,0.7-0.1,0.9-0.4
								c0.2-0.2,0.3-0.6,0.3-1c0-0.4-0.1-0.8-0.3-1c-0.2-0.2-0.5-0.4-1-0.4C346.9,218.2,346.6,218.3,346.4,218.4z"/>
						</g>
					</g>
					<g class="st4">
						<path class="st5" d="M198.9,241c0.4-0.4,0.7-0.7,1-1.1s0.4-0.8,0.4-1.1c0-0.4-0.1-0.6-0.3-0.8c-0.2-0.2-0.4-0.3-0.8-0.3
							c-0.4,0-0.7,0.1-0.9,0.3c-0.2,0.2-0.3,0.5-0.3,0.9h-0.7c0-0.6,0.2-1.1,0.6-1.4s0.8-0.5,1.3-0.5c0.6,0,1,0.2,1.3,0.5
							c0.3,0.3,0.5,0.7,0.5,1.3c0,0.5-0.1,0.9-0.4,1.3s-0.6,0.8-0.9,1.1c-0.3,0.3-0.8,0.7-1.3,1.1h2.8v0.6h-3.9v-0.5
							C198,241.8,198.5,241.3,198.9,241z"/>
						<path class="st5" d="M206.1,237.6l-2.3,5.3H203l2.3-5.3h-3.2V237h3.9V237.6z"/>
					</g>
					<g class="st4">
						<path class="st5" d="M222.4,241c0.4-0.4,0.7-0.7,1-1.1s0.4-0.8,0.4-1.1c0-0.4-0.1-0.6-0.3-0.8c-0.2-0.2-0.4-0.3-0.8-0.3
							c-0.4,0-0.7,0.1-0.9,0.3c-0.2,0.2-0.3,0.5-0.3,0.9h-0.7c0-0.6,0.2-1.1,0.6-1.4s0.8-0.5,1.3-0.5c0.6,0,1,0.2,1.3,0.5
							c0.3,0.3,0.5,0.7,0.5,1.3c0,0.5-0.1,0.9-0.4,1.3s-0.6,0.8-0.9,1.1c-0.3,0.3-0.8,0.7-1.3,1.1h2.8v0.6h-3.9v-0.5
							C221.5,241.8,222,241.3,222.4,241z"/>
						<path class="st5" d="M226.3,239.3c-0.2-0.2-0.2-0.5-0.2-0.8c0-0.3,0.1-0.6,0.2-0.8s0.4-0.4,0.7-0.6c0.3-0.1,0.6-0.2,1.1-0.2
							c0.4,0,0.8,0.1,1.1,0.2c0.3,0.1,0.5,0.3,0.7,0.6c0.1,0.2,0.2,0.5,0.2,0.8c0,0.3-0.1,0.6-0.3,0.8c-0.2,0.2-0.4,0.4-0.7,0.5
							c0.3,0.1,0.6,0.3,0.8,0.5c0.2,0.3,0.3,0.6,0.3,0.9c0,0.4-0.1,0.7-0.3,0.9c-0.2,0.3-0.4,0.5-0.7,0.6c-0.3,0.1-0.7,0.2-1.1,0.2
							c-0.4,0-0.8-0.1-1.1-0.2c-0.3-0.1-0.6-0.3-0.7-0.6c-0.2-0.3-0.3-0.6-0.3-0.9c0-0.4,0.1-0.7,0.3-0.9c0.2-0.3,0.5-0.4,0.8-0.5
							C226.7,239.7,226.4,239.6,226.3,239.3z M227,240.5c-0.3,0.2-0.4,0.5-0.4,0.8c0,0.3,0.1,0.6,0.4,0.8c0.2,0.2,0.6,0.3,1,0.3
							c0.4,0,0.8-0.1,1-0.3c0.2-0.2,0.4-0.5,0.4-0.8c0-0.4-0.1-0.6-0.4-0.8c-0.3-0.2-0.6-0.3-1-0.3
							C227.5,240.2,227.2,240.3,227,240.5z M228.8,237.8c-0.2-0.2-0.5-0.3-0.9-0.3c-0.4,0-0.7,0.1-0.9,0.3s-0.3,0.4-0.3,0.8
							c0,0.3,0.1,0.5,0.3,0.7s0.5,0.3,0.9,0.3c0.4,0,0.7-0.1,0.9-0.3c0.2-0.2,0.3-0.4,0.3-0.7C229.2,238.2,229.1,238,228.8,237.8z"
							/>
					</g>
					<g class="st4">
						<path class="st5" d="M246.2,241c0.4-0.4,0.7-0.7,1-1.1s0.4-0.8,0.4-1.1c0-0.4-0.1-0.6-0.3-0.8c-0.2-0.2-0.4-0.3-0.8-0.3
							c-0.4,0-0.7,0.1-0.9,0.3c-0.2,0.2-0.3,0.5-0.3,0.9h-0.7c0-0.6,0.2-1.1,0.6-1.4s0.8-0.5,1.3-0.5c0.6,0,1,0.2,1.3,0.5
							c0.3,0.3,0.5,0.7,0.5,1.3c0,0.5-0.1,0.9-0.4,1.3s-0.6,0.8-0.9,1.1c-0.3,0.3-0.8,0.7-1.3,1.1h2.8v0.6h-3.9v-0.5
							C245.3,241.8,245.8,241.3,246.2,241z"/>
						<path class="st5" d="M251,242.1c0.2,0.2,0.5,0.3,0.8,0.3c0.5,0,0.8-0.2,1-0.5c0.2-0.4,0.3-1,0.3-1.8c-0.1,0.2-0.3,0.4-0.6,0.6
							c-0.3,0.1-0.6,0.2-0.9,0.2c-0.4,0-0.7-0.1-1-0.2c-0.3-0.2-0.5-0.4-0.7-0.7c-0.2-0.3-0.2-0.6-0.2-1c0-0.6,0.2-1.1,0.5-1.4
							c0.3-0.4,0.8-0.5,1.4-0.5c0.8,0,1.3,0.2,1.6,0.7c0.3,0.5,0.5,1.2,0.5,2.2c0,0.7-0.1,1.3-0.2,1.7c-0.1,0.4-0.3,0.8-0.6,1
							c-0.3,0.2-0.7,0.4-1.2,0.4c-0.6,0-1-0.1-1.3-0.4c-0.3-0.3-0.5-0.7-0.5-1.1h0.7C250.7,241.6,250.8,241.9,251,242.1z
							 M252.7,239.8c0.2-0.2,0.4-0.5,0.4-0.9c0-0.4-0.1-0.7-0.3-1c-0.2-0.3-0.6-0.4-1-0.4c-0.4,0-0.7,0.1-0.9,0.4
							c-0.2,0.2-0.3,0.6-0.3,0.9c0,0.4,0.1,0.7,0.3,1c0.2,0.2,0.5,0.4,1,0.4C252.2,240.1,252.5,240,252.7,239.8z"/>
					</g>
					<g class="st4">
						<path class="st5" d="M269,237.3c0.3-0.3,0.8-0.4,1.4-0.4c0.4,0,0.7,0.1,1,0.2c0.3,0.1,0.5,0.3,0.6,0.5
							c0.1,0.2,0.2,0.5,0.2,0.8c0,0.3-0.1,0.6-0.3,0.9s-0.4,0.4-0.8,0.5v0c0.4,0.1,0.6,0.3,0.8,0.5c0.2,0.3,0.3,0.6,0.3,1
							c0,0.3-0.1,0.6-0.2,0.8s-0.4,0.4-0.6,0.6s-0.6,0.2-1,0.2c-0.6,0-1.1-0.2-1.4-0.5c-0.4-0.3-0.6-0.7-0.6-1.3h0.7
							c0,0.3,0.2,0.6,0.4,0.8c0.2,0.2,0.5,0.3,0.9,0.3c0.4,0,0.7-0.1,0.9-0.3c0.2-0.2,0.3-0.5,0.3-0.8c0-0.4-0.1-0.7-0.4-0.9
							s-0.7-0.3-1.2-0.3h-0.2v-0.6h0.2c0.5,0,0.9-0.1,1.1-0.2c0.3-0.2,0.4-0.4,0.4-0.7c0-0.3-0.1-0.5-0.3-0.7
							c-0.2-0.2-0.5-0.3-0.8-0.3c-0.3,0-0.6,0.1-0.8,0.3c-0.2,0.2-0.3,0.4-0.4,0.7h-0.7C268.4,238,268.6,237.6,269,237.3z"/>
						<path class="st5" d="M274,237.7c0.3-0.5,0.8-0.8,1.6-0.8c0.8,0,1.3,0.3,1.6,0.8c0.3,0.5,0.5,1.3,0.5,2.2c0,1-0.2,1.7-0.5,2.2
							c-0.3,0.5-0.8,0.8-1.6,0.8c-0.8,0-1.3-0.3-1.6-0.8c-0.3-0.5-0.5-1.3-0.5-2.2C273.6,239,273.7,238.2,274,237.7z M276.8,238.7
							c-0.1-0.3-0.2-0.6-0.4-0.8c-0.2-0.2-0.5-0.3-0.8-0.3c-0.4,0-0.7,0.1-0.8,0.3c-0.2,0.2-0.3,0.5-0.4,0.8s-0.1,0.7-0.1,1.2
							c0,0.5,0,0.9,0.1,1.2s0.2,0.6,0.4,0.8s0.5,0.3,0.8,0.3c0.4,0,0.6-0.1,0.8-0.3s0.3-0.5,0.4-0.8s0.1-0.7,0.1-1.2
							C276.9,239.4,276.9,239,276.8,238.7z"/>
					</g>
					<g class="st4">
						<path class="st5" d="M294.1,237.3c0.3-0.3,0.8-0.4,1.4-0.4c0.4,0,0.7,0.1,1,0.2c0.3,0.1,0.5,0.3,0.6,0.5
							c0.1,0.2,0.2,0.5,0.2,0.8c0,0.3-0.1,0.6-0.3,0.9s-0.4,0.4-0.8,0.5v0c0.4,0.1,0.6,0.3,0.8,0.5c0.2,0.3,0.3,0.6,0.3,1
							c0,0.3-0.1,0.6-0.2,0.8c-0.1,0.2-0.4,0.4-0.6,0.6s-0.6,0.2-1,0.2c-0.6,0-1.1-0.2-1.4-0.5c-0.4-0.3-0.6-0.7-0.6-1.3h0.7
							c0,0.3,0.2,0.6,0.4,0.8s0.5,0.3,0.9,0.3c0.4,0,0.7-0.1,0.9-0.3c0.2-0.2,0.3-0.5,0.3-0.8c0-0.4-0.1-0.7-0.4-0.9
							s-0.7-0.3-1.2-0.3h-0.2v-0.6h0.2c0.5,0,0.9-0.1,1.1-0.2c0.3-0.2,0.4-0.4,0.4-0.7c0-0.3-0.1-0.5-0.3-0.7
							c-0.2-0.2-0.5-0.3-0.8-0.3c-0.3,0-0.6,0.1-0.8,0.3c-0.2,0.2-0.3,0.4-0.4,0.7h-0.7C293.5,238,293.7,237.6,294.1,237.3z"/>
						<path class="st5" d="M298.4,237.7V237h1.5v5.9h-0.8v-5.2H298.4z"/>
					</g>
					<g class="st4">
						<path class="st5" d="M248.3,152.6v-0.7h1.5v5.9H249v-5.2H248.3z"/>
					</g>
					<g class="st4">
						<path class="st5" d="M272.8,155.9c0.4-0.4,0.7-0.7,1-1.1s0.4-0.8,0.4-1.1c0-0.4-0.1-0.6-0.3-0.8s-0.4-0.3-0.8-0.3
							c-0.4,0-0.7,0.1-0.9,0.3s-0.3,0.5-0.3,0.9h-0.7c0-0.6,0.2-1.1,0.6-1.4s0.8-0.5,1.3-0.5c0.6,0,1,0.2,1.3,0.5
							c0.3,0.3,0.5,0.7,0.5,1.3c0,0.5-0.1,0.9-0.4,1.3s-0.6,0.8-0.9,1.1c-0.3,0.3-0.8,0.7-1.3,1.1h2.8v0.6h-3.9v-0.5
							C271.8,156.7,272.4,156.2,272.8,155.9z"/>
					</g>
					<g class="st4">
						<path class="st5" d="M295.5,152.2c0.3-0.3,0.8-0.4,1.4-0.4c0.4,0,0.7,0.1,1,0.2c0.3,0.1,0.5,0.3,0.6,0.5
							c0.1,0.2,0.2,0.5,0.2,0.8c0,0.3-0.1,0.6-0.3,0.9s-0.4,0.4-0.8,0.5v0c0.4,0.1,0.6,0.3,0.8,0.5c0.2,0.3,0.3,0.6,0.3,1
							c0,0.3-0.1,0.6-0.2,0.8s-0.4,0.4-0.6,0.6s-0.6,0.2-1,0.2c-0.6,0-1.1-0.2-1.4-0.5c-0.4-0.3-0.6-0.7-0.6-1.3h0.7
							c0,0.3,0.2,0.6,0.4,0.8c0.2,0.2,0.5,0.3,0.9,0.3c0.4,0,0.7-0.1,0.9-0.3c0.2-0.2,0.3-0.5,0.3-0.8c0-0.4-0.1-0.7-0.4-0.9
							s-0.7-0.3-1.2-0.3h-0.2v-0.6h0.2c0.5,0,0.9-0.1,1.1-0.2c0.3-0.2,0.4-0.4,0.4-0.7c0-0.3-0.1-0.5-0.3-0.7
							c-0.2-0.2-0.5-0.3-0.8-0.3c-0.3,0-0.6,0.1-0.8,0.3c-0.2,0.2-0.3,0.4-0.4,0.7H295C295,152.9,295.2,152.5,295.5,152.2z"/>
					</g>
					<g class="st6">
						<g class="st4">
							<path class="st5" d="M318.4,156.5v-0.6l2.9-4h0.9v3.9h0.8v0.6h-0.8v1.3h-0.7v-1.3H318.4z M321.5,152.7l-2.2,3.1h2.2V152.7z"
								/>
						</g>
					</g>
					<g class="st6">
						<g class="st4">
							<path class="st5" d="M346.2,152.6h-2.9v1.9c0.1-0.2,0.3-0.3,0.6-0.4c0.2-0.1,0.5-0.2,0.8-0.2c0.5,0,0.8,0.1,1.1,0.3
								c0.3,0.2,0.5,0.4,0.6,0.7c0.1,0.3,0.2,0.6,0.2,0.9c0,0.4-0.1,0.7-0.2,1.1c-0.1,0.3-0.4,0.6-0.7,0.7c-0.3,0.2-0.7,0.3-1.1,0.3
								c-0.6,0-1-0.1-1.4-0.4c-0.4-0.3-0.6-0.7-0.6-1.2h0.7c0.1,0.3,0.2,0.6,0.4,0.7c0.2,0.2,0.5,0.3,0.9,0.3c0.4,0,0.8-0.1,1-0.4
								s0.3-0.6,0.3-1s-0.1-0.8-0.3-1s-0.5-0.3-1-0.3c-0.3,0-0.5,0.1-0.8,0.2s-0.4,0.3-0.5,0.6h-0.7v-3.3h3.6V152.6z"/>
						</g>
					</g>
				</g>
			</g>
			<g>
				<g>
					<g class="st4">
						<path class="st7" d="M218.9,111.9h-1.1l-4.5-6.8v6.8h-1.1v-8.6h1.1l4.5,6.8v-6.8h1.1V111.9z"/>
						<path class="st7" d="M222.5,111.6c-0.5-0.3-0.9-0.7-1.2-1.2c-0.3-0.5-0.4-1.1-0.4-1.8c0-0.7,0.1-1.3,0.4-1.8
							c0.3-0.5,0.7-0.9,1.2-1.2c0.5-0.3,1.1-0.4,1.7-0.4c0.6,0,1.2,0.1,1.7,0.4c0.5,0.3,0.9,0.7,1.2,1.2c0.3,0.5,0.4,1.1,0.4,1.8
							s-0.2,1.3-0.5,1.8c-0.3,0.5-0.7,0.9-1.2,1.2c-0.5,0.3-1.1,0.4-1.7,0.4C223.6,112,223,111.9,222.5,111.6z M225.4,110.8
							c0.4-0.2,0.6-0.5,0.9-0.8s0.3-0.8,0.3-1.4s-0.1-1-0.3-1.4c-0.2-0.4-0.5-0.7-0.8-0.8c-0.3-0.2-0.7-0.3-1.1-0.3
							c-0.4,0-0.8,0.1-1.1,0.3c-0.3,0.2-0.6,0.5-0.8,0.8c-0.2,0.4-0.3,0.8-0.3,1.4c0,0.5,0.1,1,0.3,1.4c0.2,0.4,0.5,0.7,0.8,0.8
							c0.3,0.2,0.7,0.3,1.1,0.3C224.6,111,225,110.9,225.4,110.8z"/>
						<path class="st7" d="M232.1,110.9l2.1-5.7h1.2l-2.6,6.7h-1.3l-2.6-6.7h1.2L232.1,110.9z"/>
						<path class="st7" d="M243.1,109h-5.4c0,0.7,0.3,1.2,0.7,1.6c0.4,0.4,0.9,0.6,1.5,0.6c0.5,0,0.9-0.1,1.2-0.3
							c0.3-0.2,0.5-0.5,0.7-0.9h1.2c-0.2,0.6-0.5,1.2-1.1,1.6c-0.5,0.4-1.2,0.6-2,0.6c-0.6,0-1.2-0.1-1.7-0.4
							c-0.5-0.3-0.9-0.7-1.2-1.2c-0.3-0.5-0.4-1.1-0.4-1.8s0.1-1.3,0.4-1.8c0.3-0.5,0.7-0.9,1.2-1.2c0.5-0.3,1.1-0.4,1.7-0.4
							c0.6,0,1.2,0.1,1.7,0.4c0.5,0.3,0.9,0.7,1.1,1.1c0.3,0.5,0.4,1,0.4,1.6C243.1,108.5,243.1,108.7,243.1,109z M241.7,107
							c-0.2-0.3-0.4-0.5-0.8-0.7s-0.7-0.2-1.1-0.2c-0.6,0-1,0.2-1.4,0.5c-0.4,0.4-0.6,0.9-0.7,1.5h4.2
							C242,107.6,241.9,107.3,241.7,107z"/>
						<path class="st7" d="M254.6,105.4c0.4,0.2,0.7,0.5,1,1s0.4,1,0.4,1.6v4h-1.1v-3.8c0-0.7-0.2-1.2-0.5-1.5
							c-0.3-0.4-0.8-0.5-1.3-0.5c-0.6,0-1,0.2-1.4,0.6c-0.3,0.4-0.5,0.9-0.5,1.6v3.7h-1.1v-3.8c0-0.7-0.2-1.2-0.5-1.5
							c-0.3-0.4-0.8-0.5-1.3-0.5c-0.6,0-1,0.2-1.4,0.6c-0.3,0.4-0.5,0.9-0.5,1.6v3.7h-1.1v-6.7h1.1v1c0.2-0.4,0.5-0.6,0.9-0.8
							c0.4-0.2,0.8-0.3,1.2-0.3c0.6,0,1.1,0.1,1.5,0.4c0.4,0.3,0.8,0.6,1,1.1c0.2-0.5,0.5-0.8,0.9-1.1c0.4-0.3,0.9-0.4,1.4-0.4
							C253.7,105.1,254.2,105.2,254.6,105.4z"/>
						<path class="st7" d="M260.3,105.5c0.4-0.3,0.9-0.4,1.5-0.4c0.6,0,1.2,0.1,1.6,0.4c0.5,0.3,0.9,0.7,1.1,1.2
							c0.3,0.5,0.4,1.1,0.4,1.8c0,0.7-0.1,1.3-0.4,1.8c-0.3,0.5-0.7,0.9-1.1,1.2c-0.5,0.3-1,0.4-1.6,0.4c-0.6,0-1.1-0.1-1.5-0.4
							c-0.4-0.3-0.8-0.6-1-1v1.2h-1.1v-9.1h1.1v3.6C259.5,106,259.9,105.7,260.3,105.5z M263.6,107.2c-0.2-0.4-0.5-0.7-0.8-0.9
							s-0.7-0.3-1.1-0.3c-0.4,0-0.8,0.1-1.1,0.3s-0.6,0.5-0.8,0.9c-0.2,0.4-0.3,0.8-0.3,1.3c0,0.5,0.1,1,0.3,1.3
							c0.2,0.4,0.5,0.7,0.8,0.9s0.7,0.3,1.1,0.3c0.4,0,0.8-0.1,1.1-0.3s0.6-0.5,0.8-0.9c0.2-0.4,0.3-0.8,0.3-1.3
							C263.9,108,263.8,107.6,263.6,107.2z"/>
						<path class="st7" d="M273.1,109h-5.4c0,0.7,0.3,1.2,0.7,1.6c0.4,0.4,0.9,0.6,1.5,0.6c0.5,0,0.9-0.1,1.2-0.3
							c0.3-0.2,0.6-0.5,0.7-0.9h1.2c-0.2,0.6-0.5,1.2-1.1,1.6c-0.5,0.4-1.2,0.6-2,0.6c-0.6,0-1.2-0.1-1.7-0.4
							c-0.5-0.3-0.9-0.7-1.2-1.2c-0.3-0.5-0.4-1.1-0.4-1.8s0.1-1.3,0.4-1.8s0.7-0.9,1.2-1.2s1.1-0.4,1.7-0.4c0.6,0,1.2,0.1,1.7,0.4
							c0.5,0.3,0.9,0.7,1.1,1.1c0.3,0.5,0.4,1,0.4,1.6C273.1,108.5,273.1,108.7,273.1,109z M271.7,107c-0.2-0.3-0.4-0.5-0.8-0.7
							c-0.3-0.2-0.7-0.2-1.1-0.2c-0.6,0-1,0.2-1.4,0.5s-0.6,0.9-0.7,1.5h4.2C271.9,107.6,271.9,107.3,271.7,107z"/>
						<path class="st7" d="M277,105.4c0.4-0.2,0.8-0.3,1.3-0.3v1.2H278c-1.3,0-1.9,0.7-1.9,2v3.7h-1.1v-6.7h1.1v1.1
							C276.4,105.9,276.6,105.6,277,105.4z"/>
					</g>
					<g class="st4">
						<path class="st7" d="M312.1,109c0.6-0.5,1.1-1.1,1.5-1.7c0.4-0.6,0.6-1.2,0.6-1.7c0-0.5-0.1-1-0.4-1.3
							c-0.3-0.3-0.7-0.5-1.2-0.5c-0.6,0-1,0.2-1.3,0.5s-0.5,0.8-0.5,1.4h-1.1c0-0.9,0.3-1.6,0.8-2.1c0.5-0.5,1.2-0.7,2-0.7
							c0.8,0,1.5,0.2,2,0.7c0.5,0.5,0.7,1.1,0.7,1.9c0,0.7-0.2,1.3-0.6,2c-0.4,0.6-0.9,1.2-1.4,1.7c-0.5,0.5-1.2,1.1-2,1.7h4.2v0.9
							h-5.9V111C310.7,110.2,311.5,109.5,312.1,109z"/>
						<path class="st7" d="M318,104.1c0.5-0.8,1.3-1.2,2.4-1.2c1.1,0,1.9,0.4,2.4,1.2c0.5,0.8,0.7,1.9,0.7,3.3
							c0,1.4-0.2,2.5-0.7,3.3c-0.5,0.8-1.3,1.2-2.4,1.2c-1.1,0-1.9-0.4-2.4-1.2c-0.5-0.8-0.7-1.9-0.7-3.3
							C317.3,106,317.6,104.9,318,104.1z M322.3,105.6c-0.1-0.5-0.3-0.9-0.6-1.2c-0.3-0.3-0.7-0.5-1.3-0.5c-0.6,0-1,0.2-1.3,0.5
							c-0.3,0.3-0.5,0.7-0.6,1.2c-0.1,0.5-0.1,1.1-0.1,1.8c0,0.7,0,1.4,0.1,1.9c0.1,0.5,0.3,0.9,0.6,1.2s0.7,0.5,1.3,0.5
							c0.5,0,1-0.2,1.3-0.5c0.3-0.3,0.5-0.7,0.6-1.2c0.1-0.5,0.1-1.1,0.1-1.9C322.4,106.7,322.3,106.1,322.3,105.6z"/>
						<path class="st7" d="M327.8,109c0.6-0.5,1.1-1.1,1.5-1.7c0.4-0.6,0.6-1.2,0.6-1.7c0-0.5-0.1-1-0.4-1.3
							c-0.3-0.3-0.7-0.5-1.2-0.5c-0.6,0-1,0.2-1.3,0.5s-0.5,0.8-0.5,1.4h-1.1c0-0.9,0.3-1.6,0.8-2.1c0.5-0.5,1.2-0.7,2-0.7
							c0.8,0,1.5,0.2,2,0.7c0.5,0.5,0.7,1.1,0.7,1.9c0,0.7-0.2,1.3-0.6,2c-0.4,0.6-0.9,1.2-1.4,1.7c-0.5,0.5-1.2,1.1-2,1.7h4.2v0.9
							h-5.9V111C326.4,110.2,327.2,109.5,327.8,109z"/>
						<path class="st7" d="M335.3,109c0.6-0.5,1.1-1.1,1.5-1.7s0.6-1.2,0.6-1.7c0-0.5-0.1-1-0.4-1.3s-0.7-0.5-1.2-0.5
							c-0.6,0-1,0.2-1.3,0.5s-0.5,0.8-0.5,1.4h-1.1c0-0.9,0.3-1.6,0.8-2.1s1.2-0.7,2-0.7c0.8,0,1.5,0.2,2,0.7
							c0.5,0.5,0.7,1.1,0.7,1.9c0,0.7-0.2,1.3-0.6,2c-0.4,0.6-0.9,1.2-1.4,1.7c-0.5,0.5-1.2,1.1-2,1.7h4.2v0.9h-5.9V111
							C333.9,110.2,334.8,109.5,335.3,109z"/>
					</g>
				</g>
				<g>
					<polyline class="st8" points="343.9,105.1 346.9,108.1 343.9,111.1 					"/>
					<polyline class="st8" points="287.4,105.1 290.4,108.1 287.4,111.1 					"/>
					<polyline class="st8" points="300.9,111.1 297.9,108.1 300.9,105.1 					"/>
					<polyline class="st8" points="203.6,111.1 200.6,108.1 203.6,105.1 					"/>
				</g>
			</g>
		</g>
	</g>
	<g>
		<g>
			
				<linearGradient id="SVGID_00000103223574152673790390000014787260059231777468_" gradientUnits="userSpaceOnUse" x1="32.8421" y1="309.4932" x2="154.4121" y2="121.9532" gradientTransform="matrix(1 0 0 -1 0 287.2284)">
				<stop  offset="0" style="stop-color:#2F54EA"/>
				<stop  offset="0.37" style="stop-color:#1C45AE"/>
				<stop  offset="0.8" style="stop-color:#07366C"/>
				<stop  offset="1" style="stop-color:#003053"/>
			</linearGradient>
			
				<path style="fill:url(#SVGID_00000103223574152673790390000014787260059231777468_);stroke:#2F54EA;stroke-width:0.61;stroke-miterlimit:10;" d="
				M48.3,15.2h146.7c1.8,0,3.2,1.4,3.2,3.2v192.8c0,1.8-1.4,3.2-3.2,3.2H48.3c-1.8,0-3.2-1.4-3.2-3.2V18.4
				C45.1,16.6,46.6,15.2,48.3,15.2z"/>
			<g>
				<g>
					<g>
						<line class="st10" x1="61.2" y1="79.7" x2="182.2" y2="79.7"/>
						<line class="st10" x1="61.2" y1="111.9" x2="182.2" y2="111.9"/>
						<line class="st10" x1="61.2" y1="144.2" x2="182.2" y2="144.2"/>
					</g>
					<g>
						<g>
							<path class="st11" d="M62.4,59.8h5.8c0.9,0,1.6,0.7,1.6,1.6v5.8c0,0.9-0.7,1.6-1.6,1.6h-5.8c-0.9,0-1.6-0.7-1.6-1.6v-5.8
								C60.8,60.6,61.5,59.8,62.4,59.8z"/>
							<g class="st4">
								<path class="st7" d="M77,62.6c0.3-0.5,0.7-0.9,1.2-1.2c0.5-0.3,1.1-0.4,1.7-0.4c0.7,0,1.4,0.2,1.9,0.5
									c0.5,0.4,0.9,0.9,1.2,1.5h-1.1c-0.2-0.4-0.5-0.7-0.8-0.9c-0.4-0.2-0.8-0.3-1.3-0.3c-0.5,0-0.9,0.1-1.3,0.3
									c-0.4,0.2-0.7,0.5-0.9,0.9c-0.2,0.4-0.3,0.9-0.3,1.4c0,0.5,0.1,1,0.3,1.4c0.2,0.4,0.5,0.7,0.9,0.9c0.4,0.2,0.8,0.3,1.3,0.3
									c0.5,0,0.9-0.1,1.3-0.3c0.4-0.2,0.6-0.5,0.8-0.9H83c-0.3,0.6-0.7,1.1-1.2,1.5c-0.5,0.4-1.2,0.5-1.9,0.5
									c-0.6,0-1.2-0.1-1.7-0.4c-0.5-0.3-0.9-0.7-1.2-1.2c-0.3-0.5-0.4-1.1-0.4-1.8S76.7,63.1,77,62.6z"/>
								<path class="st7" d="M84.7,63.6c0.2-0.4,0.5-0.7,0.9-1s0.8-0.3,1.3-0.3c0.5,0,0.9,0.1,1.2,0.3c0.3,0.2,0.6,0.5,0.8,0.8v-1
									h0.9v5.3h-0.9v-1c-0.2,0.3-0.4,0.6-0.8,0.8s-0.7,0.3-1.2,0.3c-0.5,0-0.9-0.1-1.3-0.3s-0.7-0.6-0.9-1
									c-0.2-0.4-0.3-0.9-0.3-1.4C84.4,64.5,84.5,64,84.7,63.6z M88.6,64c-0.2-0.3-0.4-0.5-0.7-0.7s-0.6-0.2-0.9-0.2
									s-0.6,0.1-0.9,0.2c-0.3,0.2-0.5,0.4-0.6,0.7c-0.2,0.3-0.2,0.6-0.2,1c0,0.4,0.1,0.8,0.2,1.1c0.2,0.3,0.4,0.5,0.6,0.7
									c0.3,0.2,0.6,0.2,0.9,0.2s0.6-0.1,0.9-0.2c0.3-0.2,0.5-0.4,0.7-0.7c0.2-0.3,0.2-0.7,0.2-1.1S88.8,64.3,88.6,64z"/>
								<path class="st7" d="M92.5,60.6v7.2h-0.9v-7.2H92.5z"/>
								<path class="st7" d="M95.3,60.6v7.2h-0.9v-7.2H95.3z"/>
								<path class="st7" d="M101.2,63.2v3.1c0,0.3,0.1,0.4,0.2,0.5s0.3,0.2,0.6,0.2h0.6v0.7h-0.8c-0.5,0-0.9-0.1-1.1-0.3
									s-0.4-0.6-0.4-1.1v-3.1h-0.7v-0.7h0.7v-1.3h0.9v1.3h1.4v0.7H101.2z"/>
								<path class="st7" d="M107.8,62.6c0.3,0.2,0.6,0.4,0.8,0.8c0.2,0.3,0.3,0.8,0.3,1.2v3.1h-0.9v-3c0-0.5-0.1-0.9-0.4-1.2
									c-0.3-0.3-0.6-0.4-1.1-0.4c-0.5,0-0.8,0.1-1.1,0.4s-0.4,0.7-0.4,1.3v2.9H104v-7.2h0.9v2.6c0.2-0.3,0.4-0.5,0.7-0.6
									c0.3-0.1,0.7-0.2,1-0.2C107.1,62.3,107.4,62.4,107.8,62.6z"/>
								<path class="st7" d="M115.4,65.4h-4.2c0,0.5,0.2,0.9,0.5,1.2c0.3,0.3,0.7,0.4,1.2,0.4c0.4,0,0.7-0.1,1-0.3
									c0.3-0.2,0.4-0.4,0.5-0.7h0.9c-0.1,0.5-0.4,0.9-0.9,1.2c-0.4,0.3-1,0.5-1.6,0.5c-0.5,0-1-0.1-1.4-0.3
									c-0.4-0.2-0.7-0.5-0.9-1c-0.2-0.4-0.3-0.9-0.3-1.4c0-0.5,0.1-1,0.3-1.4c0.2-0.4,0.5-0.7,0.9-1s0.9-0.3,1.4-0.3
									c0.5,0,0.9,0.1,1.3,0.3s0.7,0.5,0.9,0.9c0.2,0.4,0.3,0.8,0.3,1.3C115.5,65,115.5,65.2,115.4,65.4z M114.3,63.8
									c-0.1-0.2-0.4-0.4-0.6-0.6c-0.3-0.1-0.5-0.2-0.8-0.2c-0.4,0-0.8,0.1-1.1,0.4c-0.3,0.3-0.5,0.7-0.5,1.2h3.3
									C114.6,64.4,114.5,64.1,114.3,63.8z"/>
								<path class="st7" d="M120,63.6c0.2-0.4,0.5-0.7,0.9-1c0.4-0.2,0.8-0.3,1.3-0.3c0.7,0,1.2,0.2,1.6,0.5
									c0.4,0.3,0.7,0.8,0.8,1.3h-0.9c-0.1-0.3-0.3-0.6-0.5-0.8c-0.3-0.2-0.6-0.3-1-0.3c-0.5,0-0.9,0.2-1.2,0.5
									c-0.3,0.3-0.5,0.8-0.5,1.5c0,0.6,0.2,1.1,0.5,1.5c0.3,0.3,0.7,0.5,1.2,0.5c0.4,0,0.7-0.1,1-0.3s0.4-0.4,0.5-0.8h0.9
									c-0.1,0.5-0.4,1-0.9,1.3c-0.4,0.3-1,0.5-1.6,0.5c-0.5,0-1-0.1-1.3-0.3c-0.4-0.2-0.7-0.5-0.9-1c-0.2-0.4-0.3-0.9-0.3-1.5
									C119.7,64.5,119.8,64,120,63.6z"/>
								<path class="st7" d="M127.1,60.6v7.2h-0.9v-7.2H127.1z"/>
								<path class="st7" d="M129,61.4c-0.1-0.1-0.2-0.3-0.2-0.4c0-0.2,0.1-0.3,0.2-0.4s0.3-0.2,0.4-0.2c0.2,0,0.3,0.1,0.4,0.2
									c0.1,0.1,0.2,0.3,0.2,0.4c0,0.2-0.1,0.3-0.2,0.4c-0.1,0.1-0.3,0.2-0.4,0.2C129.3,61.6,129.2,61.5,129,61.4z M129.9,62.4v5.3
									H129v-5.3H129.9z"/>
								<path class="st7" d="M136.6,65.4h-4.2c0,0.5,0.2,0.9,0.5,1.2c0.3,0.3,0.7,0.4,1.2,0.4c0.4,0,0.7-0.1,1-0.3
									c0.3-0.2,0.4-0.4,0.5-0.7h0.9c-0.1,0.5-0.4,0.9-0.9,1.2c-0.4,0.3-1,0.5-1.6,0.5c-0.5,0-1-0.1-1.4-0.3
									c-0.4-0.2-0.7-0.5-0.9-1c-0.2-0.4-0.3-0.9-0.3-1.4c0-0.5,0.1-1,0.3-1.4c0.2-0.4,0.5-0.7,0.9-1s0.9-0.3,1.4-0.3
									c0.5,0,0.9,0.1,1.3,0.3s0.7,0.5,0.9,0.9c0.2,0.4,0.3,0.8,0.3,1.3C136.6,65,136.6,65.2,136.6,65.4z M135.5,63.8
									c-0.1-0.2-0.4-0.4-0.6-0.6c-0.3-0.1-0.5-0.2-0.8-0.2c-0.4,0-0.8,0.1-1.1,0.4c-0.3,0.3-0.5,0.7-0.5,1.2h3.3
									C135.7,64.4,135.6,64.1,135.5,63.8z"/>
								<path class="st7" d="M142.3,62.9c0.4,0.4,0.6,1,0.6,1.7v3.1h-0.9v-3c0-0.5-0.1-0.9-0.4-1.2c-0.3-0.3-0.6-0.4-1.1-0.4
									c-0.5,0-0.8,0.1-1.1,0.4s-0.4,0.7-0.4,1.3v2.9h-0.9v-5.3h0.9v0.8c0.2-0.3,0.4-0.5,0.7-0.6c0.3-0.1,0.6-0.2,1-0.2
									C141.4,62.3,141.9,62.5,142.3,62.9z"/>
								<path class="st7" d="M145.8,63.2v3.1c0,0.3,0.1,0.4,0.2,0.5s0.3,0.2,0.6,0.2h0.6v0.7h-0.8c-0.5,0-0.9-0.1-1.1-0.3
									s-0.4-0.6-0.4-1.1v-3.1h-0.7v-0.7h0.7v-1.3h0.9v1.3h1.4v0.7H145.8z"/>
							</g>
						</g>
						<g>
							<path class="st11" d="M62.4,91.6h5.8c0.9,0,1.6,0.7,1.6,1.6v5.8c0,0.9-0.7,1.6-1.6,1.6h-5.8c-0.9,0-1.6-0.7-1.6-1.6v-5.8
								C60.8,92.3,61.5,91.6,62.4,91.6z"/>
							<g class="st4">
								<path class="st7" d="M82.4,92.7l-2.5,6.7h-1l-2.5-6.7h0.9l2.1,5.8l2.1-5.8H82.4z"/>
								<path class="st7" d="M83.8,93.1c-0.1-0.1-0.2-0.3-0.2-0.4c0-0.2,0.1-0.3,0.2-0.4s0.3-0.2,0.4-0.2c0.2,0,0.3,0.1,0.4,0.2
									c0.1,0.1,0.2,0.3,0.2,0.4c0,0.2-0.1,0.3-0.2,0.4c-0.1,0.1-0.3,0.2-0.4,0.2C84.1,93.3,83.9,93.2,83.8,93.1z M84.6,94.1v5.3
									h-0.9v-5.3H84.6z"/>
								<path class="st7" d="M86.5,95.3c0.2-0.4,0.5-0.7,0.9-1s0.8-0.3,1.3-0.3c0.4,0,0.8,0.1,1.2,0.3s0.6,0.4,0.8,0.8v-2.8h0.9v7.2
									h-0.9v-1c-0.2,0.3-0.4,0.6-0.8,0.8c-0.3,0.2-0.7,0.3-1.2,0.3c-0.5,0-0.9-0.1-1.3-0.3s-0.7-0.6-0.9-1
									c-0.2-0.4-0.3-0.9-0.3-1.4C86.2,96.2,86.3,95.8,86.5,95.3z M90.5,95.7c-0.2-0.3-0.4-0.5-0.7-0.7s-0.6-0.2-0.9-0.2
									S88.3,94.9,88,95c-0.3,0.2-0.5,0.4-0.6,0.7c-0.2,0.3-0.2,0.6-0.2,1c0,0.4,0.1,0.8,0.2,1.1c0.2,0.3,0.4,0.5,0.6,0.7
									c0.3,0.2,0.6,0.2,0.9,0.2s0.6-0.1,0.9-0.2c0.3-0.2,0.5-0.4,0.7-0.7c0.2-0.3,0.2-0.7,0.2-1.1S90.6,96,90.5,95.7z"/>
								<path class="st7" d="M98.3,97.1H94c0,0.5,0.2,0.9,0.5,1.2c0.3,0.3,0.7,0.4,1.2,0.4c0.4,0,0.7-0.1,1-0.3
									c0.3-0.2,0.4-0.4,0.5-0.7h0.9c-0.1,0.5-0.4,0.9-0.9,1.2c-0.4,0.3-1,0.5-1.6,0.5c-0.5,0-1-0.1-1.4-0.3
									c-0.4-0.2-0.7-0.5-0.9-1c-0.2-0.4-0.3-0.9-0.3-1.4c0-0.5,0.1-1,0.3-1.4c0.2-0.4,0.5-0.7,0.9-1s0.9-0.3,1.4-0.3
									c0.5,0,0.9,0.1,1.3,0.3s0.7,0.5,0.9,0.9c0.2,0.4,0.3,0.8,0.3,1.3C98.3,96.8,98.3,96.9,98.3,97.1z M97.2,95.5
									c-0.1-0.2-0.4-0.4-0.6-0.6c-0.3-0.1-0.5-0.2-0.8-0.2c-0.4,0-0.8,0.1-1.1,0.4c-0.3,0.3-0.5,0.7-0.5,1.2h3.3
									C97.4,96.1,97.3,95.8,97.2,95.5z"/>
								<path class="st7" d="M100.8,99.2c-0.4-0.2-0.7-0.5-0.9-1s-0.3-0.9-0.3-1.4c0-0.5,0.1-1,0.4-1.4c0.2-0.4,0.6-0.7,1-1
									c0.4-0.2,0.9-0.3,1.4-0.3s1,0.1,1.4,0.3c0.4,0.2,0.7,0.5,1,1c0.2,0.4,0.4,0.9,0.4,1.4c0,0.5-0.1,1-0.4,1.4s-0.6,0.7-1,1
									c-0.4,0.2-0.9,0.3-1.4,0.3C101.7,99.5,101.2,99.4,100.8,99.2z M103.1,98.5c0.3-0.1,0.5-0.4,0.7-0.7s0.3-0.7,0.3-1.1
									s-0.1-0.8-0.3-1.1s-0.4-0.5-0.7-0.7s-0.6-0.2-0.9-0.2c-0.3,0-0.6,0.1-0.9,0.2s-0.5,0.4-0.6,0.7c-0.2,0.3-0.2,0.7-0.2,1.1
									c0,0.4,0.1,0.8,0.2,1.1s0.4,0.5,0.6,0.7c0.3,0.1,0.6,0.2,0.9,0.2C102.5,98.8,102.8,98.7,103.1,98.5z"/>
								<path class="st7" d="M116.9,94.3c0.3,0.2,0.6,0.4,0.8,0.8c0.2,0.3,0.3,0.8,0.3,1.2v3.1h-0.9v-3c0-0.5-0.1-0.9-0.4-1.2
									c-0.3-0.3-0.6-0.4-1.1-0.4c-0.5,0-0.8,0.1-1.1,0.4s-0.4,0.7-0.4,1.3v2.9h-0.9v-3c0-0.5-0.1-0.9-0.4-1.2
									c-0.3-0.3-0.6-0.4-1.1-0.4c-0.5,0-0.8,0.1-1.1,0.4s-0.4,0.7-0.4,1.3v2.9h-0.9v-5.3h0.9v0.8c0.2-0.3,0.4-0.5,0.7-0.6
									c0.3-0.1,0.6-0.2,1-0.2c0.4,0,0.8,0.1,1.2,0.3c0.3,0.2,0.6,0.5,0.8,0.9c0.1-0.4,0.4-0.7,0.7-0.9c0.3-0.2,0.7-0.3,1.1-0.3
									C116.2,94,116.6,94.1,116.9,94.3z"/>
								<path class="st7" d="M124.6,97.1h-4.2c0,0.5,0.2,0.9,0.5,1.2c0.3,0.3,0.7,0.4,1.2,0.4c0.4,0,0.7-0.1,1-0.3
									c0.3-0.2,0.4-0.4,0.5-0.7h0.9c-0.1,0.5-0.4,0.9-0.9,1.2c-0.4,0.3-1,0.5-1.6,0.5c-0.5,0-1-0.1-1.4-0.3
									c-0.4-0.2-0.7-0.5-0.9-1c-0.2-0.4-0.3-0.9-0.3-1.4c0-0.5,0.1-1,0.3-1.4c0.2-0.4,0.5-0.7,0.9-1s0.9-0.3,1.4-0.3
									c0.5,0,0.9,0.1,1.3,0.3s0.7,0.5,0.9,0.9c0.2,0.4,0.3,0.8,0.3,1.3C124.6,96.8,124.6,96.9,124.6,97.1z M123.5,95.5
									c-0.1-0.2-0.4-0.4-0.6-0.6c-0.3-0.1-0.5-0.2-0.8-0.2c-0.4,0-0.8,0.1-1.1,0.4c-0.3,0.3-0.5,0.7-0.5,1.2h3.3
									C123.7,96.1,123.6,95.8,123.5,95.5z"/>
								<path class="st7" d="M127.2,94.9V98c0,0.3,0.1,0.4,0.2,0.5s0.3,0.2,0.6,0.2h0.6v0.7h-0.8c-0.5,0-0.9-0.1-1.1-0.3
									s-0.4-0.6-0.4-1.1v-3.1h-0.7v-0.7h0.7v-1.3h0.9v1.3h1.4v0.7H127.2z"/>
								<path class="st7" d="M131.1,94.9V98c0,0.3,0.1,0.4,0.2,0.5s0.3,0.2,0.6,0.2h0.6v0.7h-0.8c-0.5,0-0.9-0.1-1.1-0.3
									s-0.4-0.6-0.4-1.1v-3.1h-0.7v-0.7h0.7v-1.3h0.9v1.3h1.4v0.7H131.1z"/>
								<path class="st7" d="M134,93.1c-0.1-0.1-0.2-0.3-0.2-0.4c0-0.2,0.1-0.3,0.2-0.4s0.3-0.2,0.4-0.2c0.2,0,0.3,0.1,0.4,0.2
									c0.1,0.1,0.2,0.3,0.2,0.4c0,0.2-0.1,0.3-0.2,0.4c-0.1,0.1-0.3,0.2-0.4,0.2C134.3,93.3,134.1,93.2,134,93.1z M134.9,94.1v5.3
									H134v-5.3H134.9z"/>
								<path class="st7" d="M140.9,94.6c0.4,0.4,0.6,1,0.6,1.7v3.1h-0.9v-3c0-0.5-0.1-0.9-0.4-1.2c-0.3-0.3-0.6-0.4-1.1-0.4
									c-0.5,0-0.8,0.1-1.1,0.4s-0.4,0.7-0.4,1.3v2.9h-0.9v-5.3h0.9v0.8c0.2-0.3,0.4-0.5,0.7-0.6c0.3-0.1,0.6-0.2,1-0.2
									C140,94,140.5,94.2,140.9,94.6z"/>
								<path class="st7" d="M146.7,94.3c0.3,0.2,0.6,0.5,0.8,0.8v-1h0.9v5.4c0,0.5-0.1,0.9-0.3,1.3c-0.2,0.4-0.5,0.7-0.9,0.9
									c-0.4,0.2-0.8,0.3-1.3,0.3c-0.7,0-1.3-0.2-1.7-0.5c-0.5-0.3-0.7-0.8-0.8-1.3h0.9c0.1,0.3,0.3,0.6,0.6,0.8
									c0.3,0.2,0.7,0.3,1.1,0.3c0.5,0,0.9-0.2,1.2-0.5c0.3-0.3,0.5-0.7,0.5-1.3v-1.1c-0.2,0.3-0.4,0.6-0.8,0.8
									c-0.3,0.2-0.7,0.3-1.2,0.3c-0.5,0-0.9-0.1-1.3-0.3s-0.7-0.6-0.9-1c-0.2-0.4-0.3-0.9-0.3-1.4c0-0.5,0.1-1,0.3-1.4
									c0.2-0.4,0.5-0.7,0.9-1s0.8-0.3,1.3-0.3C146,94,146.4,94.1,146.7,94.3z M147.2,95.7c-0.2-0.3-0.4-0.5-0.7-0.7
									s-0.6-0.2-0.9-0.2s-0.6,0.1-0.9,0.2c-0.3,0.2-0.5,0.4-0.6,0.7c-0.2,0.3-0.2,0.6-0.2,1c0,0.4,0.1,0.8,0.2,1.1
									c0.2,0.3,0.4,0.5,0.6,0.7c0.3,0.2,0.6,0.2,0.9,0.2s0.6-0.1,0.9-0.2c0.3-0.2,0.5-0.4,0.7-0.7c0.2-0.3,0.2-0.7,0.2-1.1
									S147.4,96,147.2,95.7z"/>
							</g>
						</g>
						<g>
							<path class="st11" d="M62.4,155h5.8c0.9,0,1.6,0.7,1.6,1.6v5.8c0,0.9-0.7,1.6-1.6,1.6h-5.8c-0.9,0-1.6-0.7-1.6-1.6v-5.8
								C60.8,155.7,61.5,155,62.4,155z"/>
							<g class="st4">
								<path class="st7" d="M82.1,162.9h-0.9l-3.5-5.4v5.4h-0.9v-6.8h0.9l3.5,5.4v-5.4h0.9V162.9z"/>
								<path class="st7" d="M88.8,160.5h-4.2c0,0.5,0.2,0.9,0.5,1.2c0.3,0.3,0.7,0.4,1.2,0.4c0.4,0,0.7-0.1,1-0.3
									c0.3-0.2,0.4-0.4,0.5-0.7h0.9c-0.1,0.5-0.4,0.9-0.9,1.2c-0.4,0.3-1,0.5-1.6,0.5c-0.5,0-1-0.1-1.4-0.3
									c-0.4-0.2-0.7-0.5-0.9-1c-0.2-0.4-0.3-0.9-0.3-1.4c0-0.5,0.1-1,0.3-1.4c0.2-0.4,0.5-0.7,0.9-1s0.9-0.3,1.4-0.3
									c0.5,0,0.9,0.1,1.3,0.3s0.7,0.5,0.9,0.9c0.2,0.4,0.3,0.8,0.3,1.3C88.9,160.2,88.9,160.4,88.8,160.5z M87.7,159
									c-0.1-0.2-0.4-0.4-0.6-0.6c-0.3-0.1-0.5-0.2-0.8-0.2c-0.4,0-0.8,0.1-1.1,0.4c-0.3,0.3-0.5,0.7-0.5,1.2H88
									C88,159.5,87.9,159.2,87.7,159z"/>
								<path class="st7" d="M97.5,157.6l-1.7,5.3h-0.9l-1.3-4.2l-1.3,4.2h-0.9l-1.7-5.3h0.9l1.2,4.5l1.3-4.5h0.9l1.3,4.5l1.2-4.5
									H97.5z"/>
								<path class="st7" d="M102.6,155.7v7.2h-0.9v-7.2H102.6z"/>
								<path class="st7" d="M105.4,162.6c-0.4-0.2-0.7-0.5-0.9-1s-0.3-0.9-0.3-1.4c0-0.5,0.1-1,0.4-1.4c0.2-0.4,0.6-0.7,1-1
									c0.4-0.2,0.9-0.3,1.4-0.3s1,0.1,1.4,0.3c0.4,0.2,0.7,0.5,1,1c0.2,0.4,0.4,0.9,0.4,1.4c0,0.5-0.1,1-0.4,1.4s-0.6,0.7-1,1
									c-0.4,0.2-0.9,0.3-1.4,0.3C106.3,163,105.8,162.8,105.4,162.6z M107.7,162c0.3-0.1,0.5-0.4,0.7-0.7s0.3-0.7,0.3-1.1
									s-0.1-0.8-0.3-1.1s-0.4-0.5-0.7-0.7s-0.6-0.2-0.9-0.2c-0.3,0-0.6,0.1-0.9,0.2s-0.5,0.4-0.6,0.7c-0.2,0.3-0.2,0.7-0.2,1.1
									c0,0.4,0.1,0.8,0.2,1.1s0.4,0.5,0.6,0.7c0.3,0.1,0.6,0.2,0.9,0.2C107.1,162.2,107.4,162.1,107.7,162z"/>
								<path class="st7" d="M114.5,157.8c0.3,0.2,0.6,0.5,0.8,0.8v-1h0.9v5.4c0,0.5-0.1,0.9-0.3,1.3c-0.2,0.4-0.5,0.7-0.9,0.9
									c-0.4,0.2-0.8,0.3-1.3,0.3c-0.7,0-1.3-0.2-1.7-0.5c-0.5-0.3-0.7-0.8-0.8-1.3h0.9c0.1,0.3,0.3,0.6,0.6,0.8
									c0.3,0.2,0.7,0.3,1.1,0.3c0.5,0,0.9-0.2,1.2-0.5c0.3-0.3,0.5-0.7,0.5-1.3v-1.1c-0.2,0.3-0.4,0.6-0.8,0.8
									c-0.3,0.2-0.7,0.3-1.2,0.3c-0.5,0-0.9-0.1-1.3-0.3s-0.7-0.6-0.9-1c-0.2-0.4-0.3-0.9-0.3-1.4c0-0.5,0.1-1,0.3-1.4
									c0.2-0.4,0.5-0.7,0.9-1s0.8-0.3,1.3-0.3C113.7,157.5,114.1,157.6,114.5,157.8z M115,159.2c-0.2-0.3-0.4-0.5-0.7-0.7
									s-0.6-0.2-0.9-0.2s-0.6,0.1-0.9,0.2c-0.3,0.2-0.5,0.4-0.6,0.7c-0.2,0.3-0.2,0.6-0.2,1c0,0.4,0.1,0.8,0.2,1.1
									c0.2,0.3,0.4,0.5,0.6,0.7c0.3,0.2,0.6,0.2,0.9,0.2s0.6-0.1,0.9-0.2c0.3-0.2,0.5-0.4,0.7-0.7c0.2-0.3,0.2-0.7,0.2-1.1
									S115.1,159.5,115,159.2z"/>
								<path class="st7" d="M119,162.6c-0.4-0.2-0.7-0.5-0.9-1s-0.3-0.9-0.3-1.4c0-0.5,0.1-1,0.4-1.4c0.2-0.4,0.6-0.7,1-1
									c0.4-0.2,0.9-0.3,1.4-0.3s1,0.1,1.4,0.3c0.4,0.2,0.7,0.5,1,1c0.2,0.4,0.4,0.9,0.4,1.4c0,0.5-0.1,1-0.4,1.4s-0.6,0.7-1,1
									c-0.4,0.2-0.9,0.3-1.4,0.3C119.8,163,119.4,162.8,119,162.6z M121.2,162c0.3-0.1,0.5-0.4,0.7-0.7s0.3-0.7,0.3-1.1
									s-0.1-0.8-0.3-1.1s-0.4-0.5-0.7-0.7s-0.6-0.2-0.9-0.2c-0.3,0-0.6,0.1-0.9,0.2s-0.5,0.4-0.6,0.7c-0.2,0.3-0.2,0.7-0.2,1.1
									c0,0.4,0.1,0.8,0.2,1.1s0.4,0.5,0.6,0.7c0.3,0.1,0.6,0.2,0.9,0.2C120.6,162.2,120.9,162.1,121.2,162z"/>
								<path class="st7" d="M129.2,157.8c0.3-0.2,0.7-0.3,1.2-0.3c0.5,0,0.9,0.1,1.3,0.3c0.4,0.2,0.7,0.5,0.9,1
									c0.2,0.4,0.3,0.9,0.3,1.4c0,0.5-0.1,1-0.3,1.4c-0.2,0.4-0.5,0.7-0.9,1c-0.4,0.2-0.8,0.3-1.3,0.3c-0.5,0-0.9-0.1-1.2-0.3
									s-0.6-0.5-0.8-0.8v3.5h-0.9v-7.8h0.9v1C128.6,158.2,128.9,158,129.2,157.8z M131.8,159.2c-0.2-0.3-0.4-0.5-0.7-0.7
									c-0.3-0.2-0.6-0.2-0.9-0.2c-0.3,0-0.6,0.1-0.9,0.2s-0.5,0.4-0.7,0.7c-0.2,0.3-0.2,0.6-0.2,1c0,0.4,0.1,0.8,0.2,1.1
									c0.2,0.3,0.4,0.5,0.7,0.7c0.3,0.2,0.6,0.2,0.9,0.2c0.3,0,0.6-0.1,0.9-0.2c0.3-0.2,0.5-0.4,0.7-0.7c0.2-0.3,0.2-0.7,0.2-1.1
									C132,159.8,131.9,159.5,131.8,159.2z"/>
								<path class="st7" d="M136,157.7c0.3-0.2,0.6-0.3,1.1-0.3v0.9h-0.2c-1,0-1.5,0.5-1.5,1.6v2.9h-0.9v-5.3h0.9v0.9
									C135.5,158.1,135.7,157.9,136,157.7z"/>
								<path class="st7" d="M139.4,162.6c-0.4-0.2-0.7-0.5-0.9-1s-0.3-0.9-0.3-1.4c0-0.5,0.1-1,0.4-1.4c0.2-0.4,0.6-0.7,1-1
									c0.4-0.2,0.9-0.3,1.4-0.3s1,0.1,1.4,0.3c0.4,0.2,0.7,0.5,1,1c0.2,0.4,0.4,0.9,0.4,1.4c0,0.5-0.1,1-0.4,1.4s-0.6,0.7-1,1
									c-0.4,0.2-0.9,0.3-1.4,0.3C140.3,163,139.8,162.8,139.4,162.6z M141.7,162c0.3-0.1,0.5-0.4,0.7-0.7s0.3-0.7,0.3-1.1
									s-0.1-0.8-0.3-1.1s-0.4-0.5-0.7-0.7s-0.6-0.2-0.9-0.2c-0.3,0-0.6,0.1-0.9,0.2s-0.5,0.4-0.6,0.7c-0.2,0.3-0.2,0.7-0.2,1.1
									c0,0.4,0.1,0.8,0.2,1.1s0.4,0.5,0.6,0.7c0.3,0.1,0.6,0.2,0.9,0.2C141.1,162.2,141.4,162.1,141.7,162z"/>
								<path class="st7" d="M146,164c0,0.5-0.1,0.8-0.4,1c-0.2,0.2-0.6,0.3-1,0.3h-0.5v-0.7h0.4c0.2,0,0.4,0,0.5-0.1
									c0.1-0.1,0.1-0.3,0.1-0.5v-6.4h0.9V164z M145.1,156.5c-0.1-0.1-0.2-0.3-0.2-0.4c0-0.2,0.1-0.3,0.2-0.4
									c0.1-0.1,0.3-0.2,0.4-0.2c0.2,0,0.3,0.1,0.4,0.2s0.2,0.3,0.2,0.4c0,0.2-0.1,0.3-0.2,0.4s-0.3,0.2-0.4,0.2
									C145.4,156.7,145.2,156.6,145.1,156.5z"/>
								<path class="st7" d="M152.7,160.5h-4.2c0,0.5,0.2,0.9,0.5,1.2c0.3,0.3,0.7,0.4,1.2,0.4c0.4,0,0.7-0.1,1-0.3
									c0.3-0.2,0.4-0.4,0.5-0.7h0.9c-0.1,0.5-0.4,0.9-0.9,1.2c-0.4,0.3-1,0.5-1.6,0.5c-0.5,0-1-0.1-1.4-0.3
									c-0.4-0.2-0.7-0.5-0.9-1c-0.2-0.4-0.3-0.9-0.3-1.4c0-0.5,0.1-1,0.3-1.4c0.2-0.4,0.5-0.7,0.9-1s0.9-0.3,1.4-0.3
									c0.5,0,0.9,0.1,1.3,0.3s0.7,0.5,0.9,0.9c0.2,0.4,0.3,0.8,0.3,1.3C152.7,160.2,152.7,160.4,152.7,160.5z M151.6,159
									c-0.1-0.2-0.4-0.4-0.6-0.6c-0.3-0.1-0.5-0.2-0.8-0.2c-0.4,0-0.8,0.1-1.1,0.4c-0.3,0.3-0.5,0.7-0.5,1.2h3.3
									C151.8,159.5,151.7,159.2,151.6,159z"/>
								<path class="st7" d="M154.2,158.8c0.2-0.4,0.5-0.7,0.9-1c0.4-0.2,0.8-0.3,1.3-0.3c0.7,0,1.2,0.2,1.6,0.5
									c0.4,0.3,0.7,0.8,0.8,1.3H158c-0.1-0.3-0.3-0.6-0.5-0.8c-0.3-0.2-0.6-0.3-1-0.3c-0.5,0-0.9,0.2-1.2,0.5
									c-0.3,0.3-0.5,0.8-0.5,1.5c0,0.6,0.2,1.1,0.5,1.5c0.3,0.3,0.7,0.5,1.2,0.5c0.4,0,0.7-0.1,1-0.3s0.4-0.4,0.5-0.8h0.9
									c-0.1,0.5-0.4,1-0.9,1.3c-0.4,0.3-1,0.5-1.6,0.5c-0.5,0-1-0.1-1.3-0.3c-0.4-0.2-0.7-0.5-0.9-1c-0.2-0.4-0.3-0.9-0.3-1.5
									C153.9,159.7,154,159.2,154.2,158.8z"/>
								<path class="st7" d="M161.6,158.3v3.1c0,0.3,0.1,0.4,0.2,0.5s0.3,0.2,0.6,0.2h0.6v0.7h-0.8c-0.5,0-0.9-0.1-1.1-0.3
									s-0.4-0.6-0.4-1.1v-3.1H160v-0.7h0.7v-1.3h0.9v1.3h1.4v0.7H161.6z"/>
							</g>
						</g>
						<g>
							<g class="st4">
								<path class="st3" d="M81,124.4v0.7h-1.8v6h-0.9v-6h-1.8v-0.7H81z"/>
								<path class="st3" d="M82.5,127.1c0.2-0.4,0.5-0.7,0.9-1s0.8-0.3,1.3-0.3c0.5,0,0.9,0.1,1.2,0.3c0.3,0.2,0.6,0.5,0.8,0.8v-1
									h0.9v5.3h-0.9v-1c-0.2,0.3-0.4,0.6-0.8,0.8s-0.7,0.3-1.2,0.3c-0.5,0-0.9-0.1-1.3-0.3s-0.7-0.6-0.9-1
									c-0.2-0.4-0.3-0.9-0.3-1.4C82.1,127.9,82.2,127.5,82.5,127.1z M86.4,127.5c-0.2-0.3-0.4-0.5-0.7-0.7s-0.6-0.2-0.9-0.2
									s-0.6,0.1-0.9,0.2c-0.3,0.2-0.5,0.4-0.6,0.7c-0.2,0.3-0.2,0.6-0.2,1c0,0.4,0.1,0.8,0.2,1.1c0.2,0.3,0.4,0.5,0.6,0.7
									c0.3,0.2,0.6,0.2,0.9,0.2s0.6-0.1,0.9-0.2c0.3-0.2,0.5-0.4,0.7-0.7c0.2-0.3,0.2-0.7,0.2-1.1S86.5,127.7,86.4,127.5z"/>
								<path class="st3" d="M92.4,131.2l-2.1-2.3v2.3h-0.9V124h0.9v4.2l2-2.4h1.2l-2.5,2.6l2.5,2.7H92.4z"/>
								<path class="st3" d="M99.6,128.8h-4.2c0,0.5,0.2,0.9,0.5,1.2c0.3,0.3,0.7,0.4,1.2,0.4c0.4,0,0.7-0.1,1-0.3
									c0.3-0.2,0.4-0.4,0.5-0.7h0.9c-0.1,0.5-0.4,0.9-0.9,1.2c-0.4,0.3-1,0.5-1.6,0.5c-0.5,0-1-0.1-1.4-0.3
									c-0.4-0.2-0.7-0.5-0.9-1c-0.2-0.4-0.3-0.9-0.3-1.4c0-0.5,0.1-1,0.3-1.4c0.2-0.4,0.5-0.7,0.9-1s0.9-0.3,1.4-0.3
									c0.5,0,0.9,0.1,1.3,0.3s0.7,0.5,0.9,0.9c0.2,0.4,0.3,0.8,0.3,1.3C99.6,128.5,99.6,128.6,99.6,128.8z M98.5,127.3
									c-0.1-0.2-0.4-0.4-0.6-0.6c-0.3-0.1-0.5-0.2-0.8-0.2c-0.4,0-0.8,0.1-1.1,0.4c-0.3,0.3-0.5,0.7-0.5,1.2h3.3
									C98.7,127.8,98.6,127.5,98.5,127.3z"/>
								<path class="st3" d="M104.1,127.1c0.2-0.4,0.5-0.7,0.9-1c0.4-0.2,0.8-0.3,1.3-0.3c0.7,0,1.2,0.2,1.6,0.5
									c0.4,0.3,0.7,0.8,0.8,1.3h-0.9c-0.1-0.3-0.3-0.6-0.5-0.8c-0.3-0.2-0.6-0.3-1-0.3c-0.5,0-0.9,0.2-1.2,0.5
									c-0.3,0.3-0.5,0.8-0.5,1.5c0,0.6,0.2,1.1,0.5,1.5c0.3,0.3,0.7,0.5,1.2,0.5c0.4,0,0.7-0.1,1-0.3s0.4-0.4,0.5-0.8h0.9
									c-0.1,0.5-0.4,1-0.9,1.3c-0.4,0.3-1,0.5-1.6,0.5c-0.5,0-1-0.1-1.3-0.3c-0.4-0.2-0.7-0.5-0.9-1c-0.2-0.4-0.3-0.9-0.3-1.5
									C103.8,128,103.9,127.5,104.1,127.1z"/>
								<path class="st3" d="M110.4,127.1c0.2-0.4,0.5-0.7,0.9-1s0.8-0.3,1.3-0.3c0.5,0,0.9,0.1,1.2,0.3c0.3,0.2,0.6,0.5,0.8,0.8v-1
									h0.9v5.3h-0.9v-1c-0.2,0.3-0.4,0.6-0.8,0.8s-0.7,0.3-1.2,0.3c-0.5,0-0.9-0.1-1.3-0.3s-0.7-0.6-0.9-1
									c-0.2-0.4-0.3-0.9-0.3-1.4C110.1,127.9,110.2,127.5,110.4,127.1z M114.3,127.5c-0.2-0.3-0.4-0.5-0.7-0.7s-0.6-0.2-0.9-0.2
									s-0.6,0.1-0.9,0.2c-0.3,0.2-0.5,0.4-0.6,0.7c-0.2,0.3-0.2,0.6-0.2,1c0,0.4,0.1,0.8,0.2,1.1c0.2,0.3,0.4,0.5,0.6,0.7
									c0.3,0.2,0.6,0.2,0.9,0.2s0.6-0.1,0.9-0.2c0.3-0.2,0.5-0.4,0.7-0.7c0.2-0.3,0.2-0.7,0.2-1.1S114.5,127.7,114.3,127.5z"/>
								<path class="st3" d="M118.9,126c0.3-0.2,0.6-0.3,1.1-0.3v0.9h-0.2c-1,0-1.5,0.5-1.5,1.6v2.9h-0.9v-5.3h0.9v0.9
									C118.4,126.4,118.6,126.2,118.9,126z"/>
								<path class="st3" d="M126.1,128.8h-4.2c0,0.5,0.2,0.9,0.5,1.2c0.3,0.3,0.7,0.4,1.2,0.4c0.4,0,0.7-0.1,1-0.3
									c0.3-0.2,0.4-0.4,0.5-0.7h0.9c-0.1,0.5-0.4,0.9-0.9,1.2c-0.4,0.3-1,0.5-1.6,0.5c-0.5,0-1-0.1-1.4-0.3
									c-0.4-0.2-0.7-0.5-0.9-1c-0.2-0.4-0.3-0.9-0.3-1.4c0-0.5,0.1-1,0.3-1.4c0.2-0.4,0.5-0.7,0.9-1s0.9-0.3,1.4-0.3
									c0.5,0,0.9,0.1,1.3,0.3s0.7,0.5,0.9,0.9c0.2,0.4,0.3,0.8,0.3,1.3C126.2,128.5,126.1,128.6,126.1,128.8z M125,127.3
									c-0.1-0.2-0.4-0.4-0.6-0.6c-0.3-0.1-0.5-0.2-0.8-0.2c-0.4,0-0.8,0.1-1.1,0.4c-0.3,0.3-0.5,0.7-0.5,1.2h3.3
									C125.2,127.8,125.2,127.5,125,127.3z"/>
								<path class="st3" d="M131.6,130.9c-0.4-0.2-0.7-0.5-0.9-1s-0.3-0.9-0.3-1.4c0-0.5,0.1-1,0.4-1.4c0.2-0.4,0.6-0.7,1-1
									c0.4-0.2,0.9-0.3,1.4-0.3s1,0.1,1.4,0.3c0.4,0.2,0.7,0.5,1,1c0.2,0.4,0.4,0.9,0.4,1.4c0,0.5-0.1,1-0.4,1.4s-0.6,0.7-1,1
									c-0.4,0.2-0.9,0.3-1.4,0.3C132.5,131.2,132,131.1,131.6,130.9z M133.9,130.2c0.3-0.1,0.5-0.4,0.7-0.7s0.3-0.7,0.3-1.1
									s-0.1-0.8-0.3-1.1s-0.4-0.5-0.7-0.7s-0.6-0.2-0.9-0.2c-0.3,0-0.6,0.1-0.9,0.2s-0.5,0.4-0.6,0.7c-0.2,0.3-0.2,0.7-0.2,1.1
									c0,0.4,0.1,0.8,0.2,1.1s0.4,0.5,0.6,0.7c0.3,0.1,0.6,0.2,0.9,0.2C133.3,130.5,133.6,130.4,133.9,130.2z"/>
								<path class="st3" d="M139.4,126.6h-1.1v4.6h-0.9v-4.6h-0.7v-0.7h0.7v-0.4c0-0.6,0.2-1,0.5-1.3s0.8-0.4,1.5-0.4v0.7
									c-0.4,0-0.7,0.1-0.8,0.2c-0.2,0.2-0.2,0.4-0.2,0.8v0.4h1.1V126.6z"/>
								<path class="st3" d="M148.4,125.9l-3.2,7.8h-0.9l1-2.6l-2.1-5.2h1l1.7,4.3l1.6-4.3H148.4z"/>
								<path class="st3" d="M150.6,130.9c-0.4-0.2-0.7-0.5-0.9-1s-0.3-0.9-0.3-1.4c0-0.5,0.1-1,0.4-1.4c0.2-0.4,0.6-0.7,1-1
									c0.4-0.2,0.9-0.3,1.4-0.3s1,0.1,1.4,0.3c0.4,0.2,0.7,0.5,1,1c0.2,0.4,0.4,0.9,0.4,1.4c0,0.5-0.1,1-0.4,1.4s-0.6,0.7-1,1
									c-0.4,0.2-0.9,0.3-1.4,0.3C151.5,131.2,151,131.1,150.6,130.9z M152.8,130.2c0.3-0.1,0.5-0.4,0.7-0.7s0.3-0.7,0.3-1.1
									s-0.1-0.8-0.3-1.1s-0.4-0.5-0.7-0.7s-0.6-0.2-0.9-0.2c-0.3,0-0.6,0.1-0.9,0.2s-0.5,0.4-0.6,0.7c-0.2,0.3-0.2,0.7-0.2,1.1
									c0,0.4,0.1,0.8,0.2,1.1s0.4,0.5,0.6,0.7c0.3,0.1,0.6,0.2,0.9,0.2C152.3,130.5,152.6,130.4,152.8,130.2z"/>
								<path class="st3" d="M160.9,125.9v5.3H160v-0.8c-0.2,0.3-0.4,0.5-0.7,0.6c-0.3,0.2-0.6,0.2-1,0.2c-0.4,0-0.8-0.1-1.1-0.3
									s-0.6-0.4-0.8-0.8c-0.2-0.3-0.3-0.8-0.3-1.2v-3.1h0.9v3c0,0.5,0.1,0.9,0.4,1.2s0.6,0.4,1.1,0.4c0.5,0,0.8-0.1,1.1-0.4
									c0.3-0.3,0.4-0.7,0.4-1.3v-2.9H160.9z"/>
								<path class="st3" d="M164.3,126c0.3-0.2,0.6-0.3,1.1-0.3v0.9h-0.2c-1,0-1.5,0.5-1.5,1.6v2.9h-0.9v-5.3h0.9v0.9
									C163.8,126.4,164.1,126.2,164.3,126z"/>
								<path class="st3" d="M167.6,131c-0.3-0.1-0.6-0.3-0.8-0.6c-0.2-0.2-0.3-0.5-0.3-0.9h0.9c0,0.3,0.2,0.5,0.4,0.6
									c0.2,0.2,0.5,0.3,0.9,0.3c0.3,0,0.6-0.1,0.8-0.2c0.2-0.1,0.3-0.3,0.3-0.6c0-0.2-0.1-0.4-0.3-0.5c-0.2-0.1-0.5-0.2-1-0.3
									c-0.4-0.1-0.7-0.2-1-0.3s-0.5-0.3-0.6-0.5c-0.2-0.2-0.3-0.5-0.3-0.8c0-0.3,0.1-0.5,0.2-0.7c0.2-0.2,0.4-0.4,0.7-0.5
									c0.3-0.1,0.6-0.2,1-0.2c0.6,0,1.1,0.1,1.4,0.4c0.4,0.3,0.6,0.7,0.6,1.2h-0.9c0-0.3-0.1-0.5-0.3-0.7
									c-0.2-0.2-0.5-0.3-0.8-0.3c-0.3,0-0.6,0.1-0.8,0.2c-0.2,0.1-0.3,0.3-0.3,0.5c0,0.2,0.1,0.3,0.2,0.4c0.1,0.1,0.3,0.2,0.4,0.3
									s0.4,0.1,0.7,0.2c0.4,0.1,0.7,0.2,0.9,0.3c0.2,0.1,0.4,0.2,0.6,0.5s0.3,0.5,0.3,0.8c0,0.3-0.1,0.6-0.2,0.8
									c-0.2,0.2-0.4,0.4-0.7,0.5s-0.6,0.2-1,0.2C168.3,131.2,167.9,131.2,167.6,131z"/>
								<path class="st3" d="M177.1,128.8h-4.2c0,0.5,0.2,0.9,0.5,1.2c0.3,0.3,0.7,0.4,1.2,0.4c0.4,0,0.7-0.1,1-0.3
									c0.3-0.2,0.4-0.4,0.5-0.7h0.9c-0.1,0.5-0.4,0.9-0.9,1.2c-0.4,0.3-1,0.5-1.6,0.5c-0.5,0-1-0.1-1.4-0.3
									c-0.4-0.2-0.7-0.5-0.9-1c-0.2-0.4-0.3-0.9-0.3-1.4c0-0.5,0.1-1,0.3-1.4c0.2-0.4,0.5-0.7,0.9-1s0.9-0.3,1.4-0.3
									c0.5,0,0.9,0.1,1.3,0.3s0.7,0.5,0.9,0.9c0.2,0.4,0.3,0.8,0.3,1.3C177.1,128.5,177.1,128.6,177.1,128.8z M175.9,127.3
									c-0.1-0.2-0.4-0.4-0.6-0.6c-0.3-0.1-0.5-0.2-0.8-0.2c-0.4,0-0.8,0.1-1.1,0.4c-0.3,0.3-0.5,0.7-0.5,1.2h3.3
									C176.2,127.8,176.1,127.5,175.9,127.3z"/>
								<path class="st3" d="M179.5,124v7.2h-0.9V124H179.5z"/>
								<path class="st3" d="M183.6,126.6h-1.1v4.6h-0.9v-4.6h-0.7v-0.7h0.7v-0.4c0-0.6,0.2-1,0.5-1.3s0.8-0.4,1.5-0.4v0.7
									c-0.4,0-0.7,0.1-0.8,0.2c-0.2,0.2-0.2,0.4-0.2,0.8v0.4h1.1V126.6z"/>
							</g>
							<g>
								<path class="st3" d="M62.4,123.3h5.8c0.9,0,1.6,0.7,1.6,1.6v5.8c0,0.9-0.7,1.6-1.6,1.6h-5.8c-0.9,0-1.6-0.7-1.6-1.6v-5.8
									C60.8,124,61.5,123.3,62.4,123.3z"/>
								<polyline class="st12" points="62.4,127.4 64.6,129.5 68.1,126 								"/>
							</g>
						</g>
					</g>
				</g>
				<g>
					<path class="st1" d="M127.4,179h53.2c0.9,0,1.6,0.7,1.6,1.6v16.1c0,0.9-0.7,1.6-1.6,1.6h-53.2c-0.9,0-1.6-0.7-1.6-1.6v-16.1
						C125.8,179.7,126.5,179,127.4,179z"/>
					<g class="st4">
						<path class="st5" d="M144.2,190.5h-2.9l-0.5,1.5h-0.9l2.4-6.7h1l2.4,6.7h-0.9L144.2,190.5z M144,189.8l-1.2-3.4l-1.2,3.4H144z
							"/>
						<path class="st5" d="M148.8,186.9c0.3-0.2,0.7-0.3,1.2-0.3c0.5,0,0.9,0.1,1.3,0.3c0.4,0.2,0.7,0.5,0.9,1
							c0.2,0.4,0.3,0.9,0.3,1.4c0,0.5-0.1,1-0.3,1.4c-0.2,0.4-0.5,0.7-0.9,1c-0.4,0.2-0.8,0.3-1.3,0.3c-0.5,0-0.9-0.1-1.2-0.3
							s-0.6-0.5-0.8-0.8v3.5h-0.9v-7.8h0.9v1C148.2,187.4,148.5,187.1,148.8,186.9z M151.4,188.3c-0.2-0.3-0.4-0.5-0.7-0.7
							c-0.3-0.2-0.6-0.2-0.9-0.2c-0.3,0-0.6,0.1-0.9,0.2s-0.5,0.4-0.7,0.7c-0.2,0.3-0.2,0.6-0.2,1c0,0.4,0.1,0.8,0.2,1.1
							c0.2,0.3,0.4,0.5,0.7,0.7c0.3,0.2,0.6,0.2,0.9,0.2c0.3,0,0.6-0.1,0.9-0.2c0.3-0.2,0.5-0.4,0.7-0.7c0.2-0.3,0.2-0.7,0.2-1.1
							C151.6,188.9,151.5,188.6,151.4,188.3z"/>
						<path class="st5" d="M155.7,186.9c0.3-0.2,0.7-0.3,1.2-0.3c0.5,0,0.9,0.1,1.3,0.3c0.4,0.2,0.7,0.5,0.9,1
							c0.2,0.4,0.3,0.9,0.3,1.4c0,0.5-0.1,1-0.3,1.4c-0.2,0.4-0.5,0.7-0.9,1c-0.4,0.2-0.8,0.3-1.3,0.3c-0.5,0-0.9-0.1-1.2-0.3
							s-0.6-0.5-0.8-0.8v3.5h-0.9v-7.8h0.9v1C155.1,187.4,155.4,187.1,155.7,186.9z M158.3,188.3c-0.2-0.3-0.4-0.5-0.7-0.7
							c-0.3-0.2-0.6-0.2-0.9-0.2c-0.3,0-0.6,0.1-0.9,0.2s-0.5,0.4-0.7,0.7c-0.2,0.3-0.2,0.6-0.2,1c0,0.4,0.1,0.8,0.2,1.1
							c0.2,0.3,0.4,0.5,0.7,0.7c0.3,0.2,0.6,0.2,0.9,0.2c0.3,0,0.6-0.1,0.9-0.2c0.3-0.2,0.5-0.4,0.7-0.7c0.2-0.3,0.2-0.7,0.2-1.1
							C158.5,188.9,158.5,188.6,158.3,188.3z"/>
						<path class="st5" d="M161.9,184.9v7.2H161v-7.2H161.9z"/>
						<path class="st5" d="M168.3,186.7l-3.2,7.8h-0.9l1-2.6l-2.1-5.2h1l1.7,4.3l1.6-4.3H168.3z"/>
					</g>
				</g>
			</g>
		</g>
		<g>
			<path class="st1" d="M48.3,15.2h146.7c1.8,0,3.2,1.4,3.2,3.2v29H45.1v-29C45.1,16.6,46.6,15.2,48.3,15.2L48.3,15.2z"/>
			<g class="st4">
				<path class="st5" d="M65.6,28h-4v2.6c0.2-0.2,0.4-0.4,0.8-0.6c0.3-0.2,0.7-0.2,1.1-0.2c0.6,0,1.1,0.1,1.5,0.4
					c0.4,0.3,0.7,0.6,0.8,1c0.2,0.4,0.3,0.8,0.3,1.3c0,0.5-0.1,1-0.3,1.5s-0.5,0.8-0.9,1c-0.4,0.2-0.9,0.4-1.6,0.4
					c-0.8,0-1.4-0.2-1.9-0.6c-0.5-0.4-0.8-0.9-0.9-1.6h1c0.1,0.4,0.3,0.8,0.6,1c0.3,0.2,0.7,0.4,1.2,0.4c0.6,0,1-0.2,1.3-0.5
					c0.3-0.4,0.5-0.8,0.5-1.4c0-0.6-0.2-1-0.5-1.4c-0.3-0.3-0.7-0.5-1.3-0.5c-0.4,0-0.7,0.1-1,0.3c-0.3,0.2-0.5,0.5-0.6,0.8h-1v-4.6
					h4.9V28z"/>
				<path class="st5" d="M68.1,28.1c0.4-0.7,1.2-1.1,2.2-1.1c1,0,1.8,0.4,2.2,1.1s0.6,1.7,0.6,3c0,1.3-0.2,2.3-0.6,3.1
					c-0.4,0.7-1.2,1.1-2.2,1.1c-1.1,0-1.8-0.4-2.2-1.1c-0.4-0.7-0.6-1.8-0.6-3.1C67.5,29.8,67.7,28.8,68.1,28.1z M72,29.4
					c-0.1-0.5-0.3-0.8-0.5-1.1s-0.7-0.4-1.2-0.4c-0.5,0-0.9,0.1-1.2,0.4s-0.4,0.6-0.5,1.1s-0.1,1-0.1,1.7c0,0.7,0,1.2,0.1,1.7
					s0.3,0.8,0.5,1.1s0.7,0.4,1.2,0.4c0.5,0,0.9-0.1,1.2-0.4s0.4-0.6,0.5-1.1s0.1-1,0.1-1.7C72.1,30.4,72.1,29.9,72,29.4z"/>
				<path class="st5" d="M79,29.9v3.6c0,0.3,0.1,0.5,0.2,0.6s0.4,0.2,0.7,0.2h0.8v0.9h-0.9c-0.6,0-1-0.1-1.3-0.4
					c-0.3-0.3-0.4-0.7-0.4-1.3v-3.6h-0.8v-0.8h0.8v-1.6h1v1.6h1.6v0.8H79z"/>
				<path class="st5" d="M86.2,29.2c0.4,0.2,0.7,0.5,0.9,0.9c0.2,0.4,0.3,0.9,0.3,1.5v3.6h-1v-3.5c0-0.6-0.2-1.1-0.5-1.4
					s-0.7-0.5-1.3-0.5c-0.5,0-1,0.2-1.3,0.5c-0.3,0.3-0.5,0.8-0.5,1.5v3.4h-1v-8.4h1v3c0.2-0.3,0.5-0.6,0.8-0.7s0.8-0.3,1.2-0.3
					C85.4,29,85.8,29,86.2,29.2z"/>
				<path class="st5" d="M89.1,27.9c-0.1-0.1-0.2-0.3-0.2-0.5s0.1-0.4,0.2-0.5c0.1-0.1,0.3-0.2,0.5-0.2c0.2,0,0.3,0.1,0.5,0.2
					c0.1,0.1,0.2,0.3,0.2,0.5s-0.1,0.4-0.2,0.5c-0.1,0.1-0.3,0.2-0.5,0.2C89.4,28.1,89.2,28,89.1,27.9z M90.1,29.1v6.2h-1v-6.2H90.1
					z"/>
				<path class="st5" d="M96.7,29.6c0.5,0.5,0.7,1.1,0.7,2v3.6h-1v-3.5c0-0.6-0.2-1.1-0.5-1.4s-0.7-0.5-1.3-0.5
					c-0.5,0-1,0.2-1.3,0.5c-0.3,0.3-0.5,0.8-0.5,1.5v3.4h-1v-6.2h1v0.9c0.2-0.3,0.5-0.6,0.8-0.7s0.7-0.3,1.2-0.3
					C95.6,29,96.2,29.2,96.7,29.6z"/>
				<path class="st5" d="M103,29.3c0.4,0.2,0.7,0.5,0.9,0.9v-1.1h1v6.3c0,0.6-0.1,1.1-0.4,1.5s-0.6,0.8-1,1s-1,0.4-1.6,0.4
					c-0.8,0-1.5-0.2-2-0.6s-0.9-0.9-1-1.6h1c0.1,0.4,0.3,0.7,0.7,0.9c0.4,0.2,0.8,0.3,1.3,0.3c0.6,0,1-0.2,1.4-0.5
					c0.4-0.4,0.5-0.9,0.5-1.5v-1.3c-0.2,0.4-0.5,0.7-0.9,0.9c-0.4,0.2-0.9,0.4-1.4,0.4c-0.5,0-1-0.1-1.5-0.4
					c-0.4-0.3-0.8-0.7-1.1-1.1s-0.4-1-0.4-1.7c0-0.6,0.1-1.2,0.4-1.7s0.6-0.8,1.1-1.1s0.9-0.4,1.5-0.4C102.1,29,102.6,29.1,103,29.3
					z M103.6,30.9c-0.2-0.3-0.4-0.6-0.8-0.8s-0.7-0.3-1.1-0.3s-0.7,0.1-1,0.3c-0.3,0.2-0.6,0.4-0.8,0.8c-0.2,0.3-0.3,0.8-0.3,1.2
					c0,0.5,0.1,0.9,0.3,1.2c0.2,0.3,0.4,0.6,0.8,0.8c0.3,0.2,0.7,0.3,1,0.3s0.7-0.1,1.1-0.3s0.6-0.5,0.8-0.8
					c0.2-0.3,0.3-0.8,0.3-1.2C103.9,31.7,103.8,31.3,103.6,30.9z"/>
				<path class="st5" d="M107.6,35.1c-0.4-0.2-0.7-0.4-0.9-0.7c-0.2-0.3-0.3-0.6-0.4-1h1.1c0,0.3,0.2,0.6,0.4,0.8
					c0.3,0.2,0.6,0.3,1,0.3c0.4,0,0.7-0.1,0.9-0.3c0.2-0.2,0.3-0.4,0.3-0.7c0-0.3-0.1-0.5-0.4-0.6c-0.2-0.1-0.6-0.3-1.1-0.4
					c-0.5-0.1-0.8-0.2-1.1-0.4c-0.3-0.1-0.5-0.3-0.7-0.6c-0.2-0.2-0.3-0.6-0.3-1c0-0.3,0.1-0.6,0.3-0.9s0.5-0.5,0.8-0.6
					s0.7-0.2,1.2-0.2c0.7,0,1.2,0.2,1.7,0.5c0.4,0.3,0.6,0.8,0.7,1.4h-1c0-0.3-0.2-0.6-0.4-0.8c-0.2-0.2-0.6-0.3-1-0.3
					c-0.4,0-0.7,0.1-0.9,0.2c-0.2,0.2-0.3,0.4-0.3,0.6c0,0.2,0.1,0.4,0.2,0.5c0.1,0.1,0.3,0.2,0.5,0.3c0.2,0.1,0.5,0.2,0.8,0.3
					c0.4,0.1,0.8,0.2,1.1,0.4c0.3,0.1,0.5,0.3,0.7,0.5c0.2,0.2,0.3,0.5,0.3,0.9c0,0.3-0.1,0.6-0.3,0.9c-0.2,0.3-0.5,0.5-0.8,0.6
					c-0.3,0.2-0.7,0.2-1.2,0.2C108.4,35.4,108,35.3,107.6,35.1z"/>
				<path class="st5" d="M116.9,29.9v3.6c0,0.3,0.1,0.5,0.2,0.6s0.4,0.2,0.7,0.2h0.8v0.9h-0.9c-0.6,0-1-0.1-1.3-0.4
					c-0.3-0.3-0.4-0.7-0.4-1.3v-3.6H115v-0.8h0.8v-1.6h1v1.6h1.6v0.8H116.9z"/>
				<path class="st5" d="M120.8,35c-0.5-0.3-0.8-0.6-1.1-1.1s-0.4-1-0.4-1.7c0-0.6,0.1-1.2,0.4-1.7s0.6-0.9,1.1-1.1s1-0.4,1.6-0.4
					s1.1,0.1,1.6,0.4s0.8,0.6,1.1,1.1c0.3,0.5,0.4,1,0.4,1.7c0,0.6-0.1,1.2-0.4,1.7s-0.7,0.9-1.1,1.1c-0.5,0.3-1,0.4-1.6,0.4
					C121.8,35.4,121.3,35.2,120.8,35z M123.4,34.2c0.3-0.2,0.6-0.4,0.8-0.8c0.2-0.3,0.3-0.8,0.3-1.3c0-0.5-0.1-0.9-0.3-1.3
					s-0.5-0.6-0.8-0.8s-0.7-0.3-1-0.3c-0.4,0-0.7,0.1-1,0.3s-0.6,0.4-0.8,0.8c-0.2,0.3-0.3,0.8-0.3,1.3c0,0.5,0.1,0.9,0.3,1.3
					c0.2,0.3,0.4,0.6,0.7,0.8c0.3,0.2,0.6,0.3,1,0.3C122.8,34.4,123.1,34.4,123.4,34.2z"/>
				<path class="st5" d="M130,30.5c0.3-0.5,0.6-0.8,1.1-1.1s1-0.4,1.5-0.4c0.5,0,0.9,0.1,1.3,0.3c0.4,0.2,0.7,0.5,0.9,0.9v-3.3h1
					v8.4h-1v-1.2c-0.2,0.4-0.5,0.7-0.9,0.9s-0.9,0.4-1.4,0.4c-0.5,0-1-0.1-1.5-0.4c-0.4-0.3-0.8-0.7-1.1-1.1s-0.4-1-0.4-1.7
					C129.6,31.5,129.7,30.9,130,30.5z M134.5,30.9c-0.2-0.3-0.4-0.6-0.8-0.8s-0.7-0.3-1.1-0.3s-0.7,0.1-1,0.3
					c-0.3,0.2-0.6,0.4-0.8,0.8c-0.2,0.3-0.3,0.8-0.3,1.2c0,0.5,0.1,0.9,0.3,1.2c0.2,0.3,0.4,0.6,0.8,0.8c0.3,0.2,0.7,0.3,1,0.3
					s0.7-0.1,1.1-0.3s0.6-0.5,0.8-0.8c0.2-0.3,0.3-0.8,0.3-1.2C134.8,31.7,134.7,31.3,134.5,30.9z"/>
				<path class="st5" d="M138.7,35c-0.5-0.3-0.8-0.6-1.1-1.1s-0.4-1-0.4-1.7c0-0.6,0.1-1.2,0.4-1.7s0.6-0.9,1.1-1.1s1-0.4,1.6-0.4
					s1.1,0.1,1.6,0.4s0.8,0.6,1.1,1.1c0.3,0.5,0.4,1,0.4,1.7c0,0.6-0.1,1.2-0.4,1.7s-0.7,0.9-1.1,1.1c-0.5,0.3-1,0.4-1.6,0.4
					C139.7,35.4,139.2,35.2,138.7,35z M141.3,34.2c0.3-0.2,0.6-0.4,0.8-0.8c0.2-0.3,0.3-0.8,0.3-1.3c0-0.5-0.1-0.9-0.3-1.3
					s-0.5-0.6-0.8-0.8s-0.7-0.3-1-0.3c-0.4,0-0.7,0.1-1,0.3s-0.6,0.4-0.8,0.8c-0.2,0.3-0.3,0.8-0.3,1.3c0,0.5,0.1,0.9,0.3,1.3
					c0.2,0.3,0.4,0.6,0.7,0.8c0.3,0.2,0.6,0.3,1,0.3C140.6,34.4,141,34.4,141.3,34.2z"/>
				<path class="st5" d="M144.6,30.3c-0.1-0.1-0.2-0.3-0.2-0.5c0-0.2,0.1-0.4,0.2-0.5c0.1-0.1,0.3-0.2,0.5-0.2
					c0.2,0,0.3,0.1,0.5,0.2c0.1,0.1,0.2,0.3,0.2,0.5c0,0.2-0.1,0.4-0.2,0.5c-0.1,0.1-0.3,0.2-0.5,0.2
					C144.9,30.5,144.8,30.4,144.6,30.3z M144.6,35.1c-0.1-0.1-0.2-0.3-0.2-0.5c0-0.2,0.1-0.4,0.2-0.5c0.1-0.1,0.3-0.2,0.5-0.2
					c0.2,0,0.3,0.1,0.5,0.2c0.1,0.1,0.2,0.3,0.2,0.5c0,0.2-0.1,0.4-0.2,0.5c-0.1,0.1-0.3,0.2-0.5,0.2
					C144.9,35.3,144.8,35.2,144.6,35.1z"/>
			</g>
		</g>
	</g>
	<g>
		<path class="st3" d="M183.5,34.7h267.3c2.5,0,4.6,2,4.6,4.6v41.1c0,2.5-2,4.6-4.6,4.6H183.5c-2.5,0-4.6-2-4.6-4.6V39.3
			C178.9,36.7,181,34.7,183.5,34.7z"/>
		<g>
			<g>
				<g class="st4">
					<path class="st5" d="M236.2,71.3h-2.6V73c0.1-0.2,0.3-0.3,0.5-0.4c0.2-0.1,0.5-0.2,0.7-0.2c0.4,0,0.8,0.1,1,0.3
						c0.3,0.2,0.4,0.4,0.6,0.7c0.1,0.3,0.2,0.6,0.2,0.9c0,0.4-0.1,0.7-0.2,1c-0.1,0.3-0.3,0.5-0.6,0.7s-0.6,0.2-1,0.2
						c-0.5,0-1-0.1-1.3-0.4c-0.3-0.3-0.5-0.6-0.6-1.1h0.7c0.1,0.3,0.2,0.5,0.4,0.7s0.5,0.2,0.8,0.2c0.4,0,0.7-0.1,0.9-0.4
						c0.2-0.2,0.3-0.6,0.3-0.9c0-0.4-0.1-0.7-0.3-0.9s-0.5-0.3-0.9-0.3c-0.3,0-0.5,0.1-0.7,0.2c-0.2,0.1-0.3,0.3-0.4,0.5h-0.6v-3.1
						h3.3V71.3z"/>
					<path class="st5" d="M237.7,72.9c-0.1-0.1-0.1-0.2-0.1-0.3s0-0.2,0.1-0.3c0.1-0.1,0.2-0.1,0.3-0.1c0.1,0,0.2,0,0.3,0.1
						c0.1,0.1,0.1,0.2,0.1,0.3s0,0.2-0.1,0.3c-0.1,0.1-0.2,0.1-0.3,0.1C237.9,73,237.8,72.9,237.7,72.9z M237.7,76.1
						c-0.1-0.1-0.1-0.2-0.1-0.3s0-0.2,0.1-0.3s0.2-0.1,0.3-0.1c0.1,0,0.2,0,0.3,0.1s0.1,0.2,0.1,0.3s0,0.2-0.1,0.3
						c-0.1,0.1-0.2,0.1-0.3,0.1C237.9,76.2,237.8,76.2,237.7,76.1z"/>
					<path class="st5" d="M241,74.4c0.4-0.3,0.7-0.7,0.9-1s0.4-0.7,0.4-1.1c0-0.3-0.1-0.6-0.2-0.8s-0.4-0.3-0.8-0.3
						c-0.3,0-0.6,0.1-0.8,0.3s-0.3,0.5-0.3,0.9h-0.7c0-0.6,0.2-1,0.5-1.3c0.3-0.3,0.7-0.5,1.2-0.5c0.5,0,0.9,0.1,1.2,0.4
						c0.3,0.3,0.5,0.7,0.5,1.2c0,0.4-0.1,0.8-0.4,1.2s-0.5,0.7-0.8,1c-0.3,0.3-0.7,0.6-1.2,1h2.6v0.6h-3.6v-0.5
						C240.2,75.1,240.7,74.7,241,74.4z"/>
					<path class="st5" d="M244.8,71c0.3-0.3,0.7-0.4,1.3-0.4c0.3,0,0.6,0.1,0.9,0.2c0.2,0.1,0.4,0.3,0.6,0.5
						c0.1,0.2,0.2,0.5,0.2,0.7c0,0.3-0.1,0.6-0.3,0.8c-0.2,0.2-0.4,0.4-0.7,0.4v0c0.3,0.1,0.6,0.2,0.8,0.5c0.2,0.2,0.3,0.5,0.3,0.9
						c0,0.3-0.1,0.5-0.2,0.8s-0.3,0.4-0.6,0.5s-0.6,0.2-0.9,0.2c-0.5,0-1-0.1-1.3-0.4s-0.5-0.7-0.6-1.2h0.7c0,0.3,0.2,0.5,0.4,0.7
						c0.2,0.2,0.5,0.3,0.8,0.3s0.6-0.1,0.8-0.3s0.3-0.4,0.3-0.7c0-0.4-0.1-0.6-0.4-0.8s-0.6-0.2-1.1-0.2h-0.2V73h0.2
						c0.5,0,0.8-0.1,1-0.2s0.4-0.4,0.4-0.7c0-0.3-0.1-0.5-0.3-0.6c-0.2-0.2-0.4-0.2-0.7-0.2c-0.3,0-0.6,0.1-0.8,0.2
						s-0.3,0.4-0.3,0.6h-0.7C244.3,71.6,244.4,71.3,244.8,71z"/>
				</g>
				<g>
					<g>
						<path class="st5" d="M238.4,63.7h4.6c0.5,0,0.9,0.4,0.9,0.9V66h-6.4v-1.3C237.6,64.1,238,63.7,238.4,63.7z"/>
						<path class="st5" d="M246.2,63.7h4.6c0.5,0,0.9,0.4,0.9,0.9V66h-6.4v-1.3C245.3,64.1,245.7,63.7,246.2,63.7z"/>
						<path class="st5" d="M253.9,63.7h4.6c0.5,0,0.9,0.4,0.9,0.9V66H253v-1.3C253,64.1,253.4,63.7,253.9,63.7L253.9,63.7z"/>
						<path class="st5" d="M261.6,63.7h4.6c0.5,0,0.9,0.4,0.9,0.9V66h-6.4v-1.3C260.7,64.1,261.1,63.7,261.6,63.7L261.6,63.7z"/>
						<path class="st5" d="M269.9,59.6h3.4c0.8,0,1.5,0.7,1.5,1.5V66h-6.4v-4.9C268.4,60.3,269.1,59.6,269.9,59.6L269.9,59.6z"/>
						<path class="st5" d="M277.6,59.6h3.4c0.8,0,1.5,0.7,1.5,1.5V66h-6.4v-4.9C276.1,60.3,276.8,59.6,277.6,59.6L277.6,59.6z"/>
						<path class="st5" d="M285.3,44.8h3.4c0.8,0,1.5,0.7,1.5,1.5V66h-6.4V46.3C283.8,45.4,284.5,44.8,285.3,44.8L285.3,44.8z"/>
						<path class="st5" d="M293.1,44.8h3.4c0.8,0,1.5,0.7,1.5,1.5V66h-6.4V46.3C291.6,45.4,292.2,44.8,293.1,44.8L293.1,44.8z"/>
						<path class="st5" d="M300.8,52h3.4c0.8,0,1.5,0.7,1.5,1.5V66h-6.4V53.5C299.3,52.7,299.9,52,300.8,52L300.8,52z"/>
						<path class="st5" d="M308.5,52h3.4c0.8,0,1.5,0.7,1.5,1.5V66H307V53.5C307,52.7,307.7,52,308.5,52L308.5,52z"/>
						<path class="st5" d="M316.2,44.8h3.4c0.8,0,1.5,0.7,1.5,1.5V66h-6.4V46.3C314.7,45.4,315.4,44.8,316.2,44.8L316.2,44.8z"/>
						<path class="st5" d="M323.9,44.8h3.4c0.8,0,1.5,0.7,1.5,1.5V66h-6.4V46.3C322.4,45.4,323.1,44.8,323.9,44.8L323.9,44.8z"/>
						<path class="st5" d="M331.6,44.8h3.4c0.8,0,1.5,0.7,1.5,1.5V66h-6.4V46.3C330.1,45.4,330.8,44.8,331.6,44.8L331.6,44.8z"/>
						<path class="st5" d="M339.3,59.6h3.4c0.8,0,1.5,0.7,1.5,1.5V66h-6.4v-4.9C337.8,60.3,338.5,59.6,339.3,59.6L339.3,59.6z"/>
						<path class="st5" d="M347,59.6h3.4c0.8,0,1.5,0.7,1.5,1.5V66h-6.4v-4.9C345.5,60.3,346.2,59.6,347,59.6L347,59.6z"/>
						<path class="st5" d="M354.1,63.7h4.6c0.5,0,0.9,0.4,0.9,0.9V66h-6.4v-1.3C353.3,64.1,353.7,63.7,354.1,63.7L354.1,63.7z"/>
						<path class="st5" d="M361.9,63.7h4.6c0.5,0,0.9,0.4,0.9,0.9V66H361v-1.3C361,64.1,361.4,63.7,361.9,63.7L361.9,63.7z"/>
						<path class="st5" d="M369.6,63.7h4.6c0.5,0,0.9,0.4,0.9,0.9V66h-6.4v-1.3C368.7,64.1,369.1,63.7,369.6,63.7L369.6,63.7z"/>
						<path class="st5" d="M377.3,63.7h4.6c0.5,0,0.9,0.4,0.9,0.9V66h-6.4v-1.3C376.4,64.1,376.8,63.7,377.3,63.7L377.3,63.7z"/>
						<path class="st5" d="M385.6,59.6h3.4c0.8,0,1.5,0.7,1.5,1.5V66h-6.4v-4.9C384.1,60.3,384.8,59.6,385.6,59.6L385.6,59.6z"/>
						<path class="st5" d="M393.3,59.6h3.4c0.8,0,1.5,0.7,1.5,1.5V66h-6.4v-4.9C391.8,60.3,392.5,59.6,393.3,59.6L393.3,59.6z"/>
						<path class="st5" d="M401,55.4h3.4c0.8,0,1.5,0.7,1.5,1.5V66h-6.4v-9.1C399.5,56,400.2,55.4,401,55.4L401,55.4z"/>
						<path class="st5" d="M408.8,55.4h3.4c0.8,0,1.5,0.7,1.5,1.5V66h-6.4v-9.1C407.2,56,407.9,55.4,408.8,55.4L408.8,55.4z"/>
						<path class="st5" d="M416.5,44.8h3.4c0.8,0,1.5,0.7,1.5,1.5V66H415V46.3C415,45.4,415.6,44.8,416.5,44.8L416.5,44.8z"/>
						<path class="st5" d="M424.2,59.6h3.4c0.8,0,1.5,0.7,1.5,1.5V66h-6.4v-4.9C422.7,60.3,423.4,59.6,424.2,59.6L424.2,59.6z"/>
						<path class="st5" d="M431.9,59.6h3.4c0.8,0,1.5,0.7,1.5,1.5V66h-6.4v-4.9C430.4,60.3,431.1,59.6,431.9,59.6L431.9,59.6z"/>
					</g>
					<line class="st13" x1="232.5" y1="66" x2="441.8" y2="66"/>
				</g>
			</g>
			<g>
				<circle class="st5" cx="209.7" cy="59.8" r="16.3"/>
				<path class="st1" d="M216.6,58.7l-9.7-5.6c-0.8-0.5-1.9,0.1-1.9,1.1v11.2c0,1,1.1,1.6,1.9,1.1l9.7-5.6
					C217.4,60.5,217.4,59.2,216.6,58.7L216.6,58.7z"/>
			</g>
		</g>
	</g>
	<g>
		<path class="st7" d="M310.6,211.2h65.1c0.9,0,1.6,0.7,1.6,1.6v72.8c0,0.9-0.7,1.6-1.6,1.6h-65.1c-0.9,0-1.6-0.7-1.6-1.6v-72.8
			C309,211.9,309.7,211.2,310.6,211.2L310.6,211.2z"/>
		<g>
			<g>
				<g>
					<g class="st4">
						<path class="st3" d="M321.2,276.1h1.1v0.4h-1.6v-3.1h0.5V276.1z"/>
						<path class="st3" d="M323.3,276.4c-0.2-0.1-0.3-0.3-0.4-0.5c-0.1-0.2-0.2-0.4-0.2-0.7c0-0.3,0.1-0.5,0.2-0.7
							c0.1-0.2,0.3-0.3,0.5-0.5c0.2-0.1,0.4-0.2,0.6-0.2c0.2,0,0.5,0.1,0.6,0.2c0.2,0.1,0.3,0.3,0.5,0.5c0.1,0.2,0.2,0.4,0.2,0.7
							c0,0.3-0.1,0.5-0.2,0.7c-0.1,0.2-0.3,0.3-0.5,0.5c-0.2,0.1-0.4,0.2-0.7,0.2C323.7,276.5,323.5,276.5,323.3,276.4z M324.3,276
							c0.1-0.1,0.2-0.2,0.3-0.3s0.1-0.3,0.1-0.5c0-0.2,0-0.3-0.1-0.5c-0.1-0.1-0.2-0.2-0.3-0.3c-0.1-0.1-0.2-0.1-0.4-0.1
							s-0.3,0-0.4,0.1s-0.2,0.2-0.3,0.3s-0.1,0.3-0.1,0.5c0,0.3,0.1,0.5,0.2,0.6s0.3,0.2,0.5,0.2C324.1,276.1,324.2,276.1,324.3,276
							z"/>
						<path class="st3" d="M326.7,274.1c0.1-0.1,0.3-0.1,0.4-0.1v0.5H327c-0.2,0-0.4,0.1-0.5,0.2c-0.1,0.1-0.2,0.3-0.2,0.5v1.3h-0.5
							V274h0.5v0.4C326.5,274.2,326.6,274.1,326.7,274.1z"/>
						<path class="st3" d="M330.1,275.4h-1.9c0,0.2,0.1,0.4,0.2,0.5c0.1,0.1,0.3,0.2,0.5,0.2c0.3,0,0.5-0.1,0.6-0.3h0.6
							c-0.1,0.2-0.2,0.4-0.4,0.6c-0.2,0.1-0.4,0.2-0.7,0.2c-0.2,0-0.5-0.1-0.6-0.2s-0.3-0.3-0.4-0.5c-0.1-0.2-0.2-0.4-0.2-0.7
							s0.1-0.5,0.2-0.7c0.1-0.2,0.3-0.3,0.4-0.5c0.2-0.1,0.4-0.2,0.7-0.2c0.2,0,0.4,0.1,0.6,0.2c0.2,0.1,0.3,0.2,0.4,0.4
							s0.2,0.4,0.2,0.6C330.1,275.3,330.1,275.4,330.1,275.4z M329.6,275c0-0.2-0.1-0.3-0.2-0.5c-0.1-0.1-0.3-0.2-0.5-0.2
							c-0.2,0-0.3,0.1-0.5,0.2s-0.2,0.3-0.2,0.5H329.6z"/>
						<path class="st3" d="M334.3,274.1c0.2,0.1,0.3,0.2,0.4,0.4c0.1,0.2,0.1,0.4,0.1,0.6v1.5h-0.5v-1.4c0-0.2-0.1-0.4-0.2-0.5
							c-0.1-0.1-0.3-0.2-0.5-0.2s-0.3,0.1-0.5,0.2s-0.2,0.3-0.2,0.5v1.4h-0.5v-1.4c0-0.2-0.1-0.4-0.2-0.5c-0.1-0.1-0.3-0.2-0.5-0.2
							s-0.3,0.1-0.5,0.2s-0.2,0.3-0.2,0.5v1.4h-0.5V274h0.5v0.3c0.1-0.1,0.2-0.2,0.3-0.2c0.1-0.1,0.3-0.1,0.4-0.1
							c0.2,0,0.4,0,0.5,0.1c0.2,0.1,0.3,0.2,0.4,0.4c0.1-0.2,0.2-0.3,0.4-0.4s0.3-0.1,0.5-0.1C334,274,334.2,274,334.3,274.1z"/>
						<path class="st3" d="M337.5,273.4v3.1H337v-3.1H337.5z"/>
						<path class="st3" d="M339.3,274.1c0.2-0.1,0.3-0.1,0.5-0.1c0.2,0,0.4,0.1,0.6,0.2s0.3,0.3,0.4,0.5c0.1,0.2,0.2,0.4,0.2,0.7
							c0,0.3-0.1,0.5-0.2,0.7c-0.1,0.2-0.2,0.4-0.4,0.5c-0.2,0.1-0.4,0.2-0.6,0.2c-0.2,0-0.4,0-0.5-0.1c-0.1-0.1-0.3-0.2-0.4-0.3
							v1.5h-0.5V274h0.5v0.4C339,274.3,339.1,274.2,339.3,274.1z M340.3,274.8c-0.1-0.1-0.2-0.2-0.3-0.3c-0.1-0.1-0.2-0.1-0.4-0.1
							c-0.1,0-0.3,0-0.4,0.1s-0.2,0.2-0.3,0.3c-0.1,0.1-0.1,0.3-0.1,0.4c0,0.2,0,0.3,0.1,0.5c0.1,0.1,0.2,0.2,0.3,0.3
							c0.1,0.1,0.2,0.1,0.4,0.1c0.1,0,0.3,0,0.4-0.1c0.1-0.1,0.2-0.2,0.3-0.3c0.1-0.1,0.1-0.3,0.1-0.5
							C340.4,275.1,340.4,274.9,340.3,274.8z"/>
						<path class="st3" d="M342,276.4c-0.2-0.1-0.3-0.2-0.4-0.3s-0.1-0.3-0.1-0.4h0.5c0,0.1,0.1,0.2,0.2,0.3
							c0.1,0.1,0.2,0.1,0.3,0.1c0.1,0,0.3,0,0.3-0.1c0.1-0.1,0.1-0.1,0.1-0.2c0-0.1,0-0.2-0.1-0.2s-0.2-0.1-0.4-0.1
							c-0.2-0.1-0.3-0.1-0.5-0.1c-0.1,0-0.2-0.1-0.3-0.2c-0.1-0.1-0.1-0.2-0.1-0.4c0-0.1,0-0.3,0.1-0.4c0.1-0.1,0.2-0.2,0.3-0.3
							s0.3-0.1,0.5-0.1c0.3,0,0.5,0.1,0.7,0.2c0.2,0.1,0.3,0.3,0.3,0.6H343c0-0.1-0.1-0.2-0.1-0.3c-0.1-0.1-0.2-0.1-0.3-0.1
							c-0.1,0-0.2,0-0.3,0.1c-0.1,0.1-0.1,0.1-0.1,0.2c0,0.1,0,0.1,0.1,0.2c0,0,0.1,0.1,0.2,0.1s0.2,0.1,0.3,0.1
							c0.2,0,0.3,0.1,0.4,0.1s0.2,0.1,0.3,0.2c0.1,0.1,0.1,0.2,0.1,0.4c0,0.1,0,0.3-0.1,0.4c-0.1,0.1-0.2,0.2-0.3,0.3
							c-0.1,0.1-0.3,0.1-0.5,0.1C342.4,276.5,342.2,276.5,342,276.4z"/>
						<path class="st3" d="M346.5,274v2.5H346v-0.3c-0.1,0.1-0.2,0.2-0.3,0.2c-0.1,0.1-0.3,0.1-0.4,0.1c-0.2,0-0.4,0-0.5-0.1
							c-0.2-0.1-0.3-0.2-0.4-0.4s-0.1-0.4-0.1-0.6V274h0.5v1.4c0,0.2,0.1,0.4,0.2,0.5c0.1,0.1,0.3,0.2,0.5,0.2s0.3-0.1,0.5-0.2
							s0.2-0.3,0.2-0.5V274H346.5z"/>
						<path class="st3" d="M350.9,274.1c0.2,0.1,0.3,0.2,0.4,0.4c0.1,0.2,0.1,0.4,0.1,0.6v1.5h-0.5v-1.4c0-0.2-0.1-0.4-0.2-0.5
							c-0.1-0.1-0.3-0.2-0.5-0.2s-0.3,0.1-0.5,0.2s-0.2,0.3-0.2,0.5v1.4h-0.5v-1.4c0-0.2-0.1-0.4-0.2-0.5c-0.1-0.1-0.3-0.2-0.5-0.2
							s-0.3,0.1-0.5,0.2s-0.2,0.3-0.2,0.5v1.4h-0.5V274h0.5v0.3c0.1-0.1,0.2-0.2,0.3-0.2c0.1-0.1,0.3-0.1,0.4-0.1
							c0.2,0,0.4,0,0.5,0.1c0.2,0.1,0.3,0.2,0.4,0.4c0.1-0.2,0.2-0.3,0.4-0.4s0.3-0.1,0.5-0.1C350.6,274,350.8,274,350.9,274.1z"/>
						<path class="st3" d="M355.5,273.5c0.3,0.1,0.4,0.3,0.6,0.6c0.1,0.2,0.2,0.5,0.2,0.8c0,0.3-0.1,0.6-0.2,0.8
							c-0.1,0.2-0.3,0.4-0.6,0.5c-0.3,0.1-0.5,0.2-0.9,0.2h-1v-3.1h1C355,273.4,355.3,273.4,355.5,273.5z M355.5,275.8
							c0.2-0.2,0.3-0.5,0.3-0.8c0-0.4-0.1-0.7-0.3-0.9s-0.5-0.3-0.8-0.3h-0.5v2.3h0.5C355,276.1,355.3,276,355.5,275.8z"/>
						<path class="st3" d="M357.4,276.4c-0.2-0.1-0.3-0.3-0.4-0.5c-0.1-0.2-0.2-0.4-0.2-0.7c0-0.3,0.1-0.5,0.2-0.7
							c0.1-0.2,0.3-0.3,0.5-0.5c0.2-0.1,0.4-0.2,0.6-0.2s0.5,0.1,0.6,0.2c0.2,0.1,0.3,0.3,0.5,0.5c0.1,0.2,0.2,0.4,0.2,0.7
							c0,0.3-0.1,0.5-0.2,0.7c-0.1,0.2-0.3,0.3-0.5,0.5c-0.2,0.1-0.4,0.2-0.7,0.2C357.8,276.5,357.6,276.5,357.4,276.4z M358.4,276
							c0.1-0.1,0.2-0.2,0.3-0.3c0.1-0.1,0.1-0.3,0.1-0.5c0-0.2,0-0.3-0.1-0.5s-0.2-0.2-0.3-0.3c-0.1-0.1-0.2-0.1-0.4-0.1
							s-0.3,0-0.4,0.1s-0.2,0.2-0.3,0.3s-0.1,0.3-0.1,0.5c0,0.3,0.1,0.5,0.2,0.6c0.1,0.1,0.3,0.2,0.5,0.2
							C358.2,276.1,358.3,276.1,358.4,276z"/>
						<path class="st3" d="M360.6,273.1v3.4h-0.5v-3.4H360.6z"/>
						<path class="st3" d="M361.9,276.4c-0.2-0.1-0.3-0.3-0.4-0.5c-0.1-0.2-0.2-0.4-0.2-0.7c0-0.3,0.1-0.5,0.2-0.7
							c0.1-0.2,0.3-0.3,0.5-0.5c0.2-0.1,0.4-0.2,0.6-0.2s0.5,0.1,0.6,0.2c0.2,0.1,0.3,0.3,0.5,0.5c0.1,0.2,0.2,0.4,0.2,0.7
							c0,0.3-0.1,0.5-0.2,0.7c-0.1,0.2-0.3,0.3-0.5,0.5c-0.2,0.1-0.4,0.2-0.7,0.2C362.3,276.5,362.1,276.5,361.9,276.4z M362.9,276
							c0.1-0.1,0.2-0.2,0.3-0.3c0.1-0.1,0.1-0.3,0.1-0.5c0-0.2,0-0.3-0.1-0.5s-0.2-0.2-0.3-0.3c-0.1-0.1-0.2-0.1-0.4-0.1
							s-0.3,0-0.4,0.1s-0.2,0.2-0.3,0.3s-0.1,0.3-0.1,0.5c0,0.3,0.1,0.5,0.2,0.6c0.1,0.1,0.3,0.2,0.5,0.2
							C362.6,276.1,362.8,276.1,362.9,276z"/>
						<path class="st3" d="M365.3,274.1c0.1-0.1,0.3-0.1,0.4-0.1v0.5h-0.1c-0.2,0-0.4,0.1-0.5,0.2c-0.1,0.1-0.2,0.3-0.2,0.5v1.3
							h-0.5V274h0.5v0.4C365.1,274.2,365.2,274.1,365.3,274.1z"/>
					</g>
					<g class="st4">
						<path class="st1" d="M331.3,267.3h-0.9l-2.7-4.1v4.1h-0.9v-5.5h0.9l2.7,4.1v-4.1h0.9V267.3z"/>
						<path class="st1" d="M336.8,265.5h-3.3c0,0.3,0.2,0.6,0.4,0.8s0.5,0.3,0.9,0.3c0.5,0,0.8-0.2,1-0.6h1c-0.1,0.4-0.4,0.7-0.7,1
							c-0.3,0.3-0.8,0.4-1.3,0.4c-0.4,0-0.8-0.1-1.1-0.3c-0.3-0.2-0.6-0.5-0.8-0.8s-0.3-0.7-0.3-1.2c0-0.4,0.1-0.8,0.3-1.2
							c0.2-0.3,0.4-0.6,0.8-0.8c0.3-0.2,0.7-0.3,1.1-0.3c0.4,0,0.8,0.1,1.1,0.3c0.3,0.2,0.6,0.4,0.8,0.8c0.2,0.3,0.3,0.7,0.3,1.1
							C336.8,265.2,336.8,265.3,336.8,265.5z M335.8,264.7c0-0.3-0.1-0.6-0.4-0.8c-0.2-0.2-0.5-0.3-0.9-0.3c-0.3,0-0.6,0.1-0.8,0.3
							c-0.2,0.2-0.4,0.5-0.4,0.8H335.8z"/>
						<path class="st1" d="M343.8,262.9l-1.4,4.4h-1l-0.9-3.2l-0.9,3.2h-1l-1.4-4.4h0.9l0.9,3.5l0.9-3.5h0.9l0.9,3.5l0.9-3.5H343.8z
							"/>
						<path class="st1" d="M353.4,263.1c0.3,0.1,0.5,0.4,0.6,0.6c0.2,0.3,0.2,0.6,0.2,1v2.6h-0.9v-2.4c0-0.4-0.1-0.7-0.3-0.9
							c-0.2-0.2-0.5-0.3-0.8-0.3s-0.6,0.1-0.8,0.3c-0.2,0.2-0.3,0.5-0.3,0.9v2.4h-0.9v-2.4c0-0.4-0.1-0.7-0.3-0.9
							c-0.2-0.2-0.5-0.3-0.8-0.3s-0.6,0.1-0.8,0.3c-0.2,0.2-0.3,0.5-0.3,0.9v2.4h-0.9v-4.4h0.9v0.5c0.1-0.2,0.3-0.3,0.6-0.4
							c0.2-0.1,0.5-0.2,0.7-0.2c0.3,0,0.7,0.1,0.9,0.2c0.3,0.1,0.5,0.4,0.6,0.6c0.1-0.3,0.3-0.5,0.6-0.6c0.3-0.2,0.6-0.2,0.9-0.2
							C352.8,262.9,353.1,262.9,353.4,263.1z"/>
						<path class="st1" d="M359.7,265.5h-3.3c0,0.3,0.2,0.6,0.4,0.8s0.5,0.3,0.9,0.3c0.5,0,0.8-0.2,1-0.6h1c-0.1,0.4-0.4,0.7-0.7,1
							c-0.3,0.3-0.8,0.4-1.3,0.4c-0.4,0-0.8-0.1-1.1-0.3s-0.6-0.5-0.8-0.8s-0.3-0.7-0.3-1.2c0-0.4,0.1-0.8,0.3-1.2
							c0.2-0.3,0.4-0.6,0.8-0.8c0.3-0.2,0.7-0.3,1.1-0.3c0.4,0,0.8,0.1,1.1,0.3s0.6,0.4,0.8,0.8c0.2,0.3,0.3,0.7,0.3,1.1
							C359.7,265.2,359.7,265.3,359.7,265.5z M358.8,264.7c0-0.3-0.1-0.6-0.4-0.8c-0.2-0.2-0.5-0.3-0.9-0.3c-0.3,0-0.6,0.1-0.8,0.3
							s-0.4,0.5-0.4,0.8H358.8z"/>
					</g>
				</g>
				<line class="st10" x1="329" y1="270.3" x2="357.3" y2="270.3"/>
			</g>
			<g>
				<path class="st1" d="M327,219.1h32.9c0.9,0,1.6,0.7,1.6,1.6v32.9c0,0.9-0.7,1.6-1.6,1.6H327c-0.9,0-1.6-0.7-1.6-1.6v-32.9
					C325.4,219.8,326.1,219.1,327,219.1z"/>
				<g>
					<path class="st14" d="M338,228.7h10.9c0.5,0,1,0.4,1,1v15.1c0,0.5-0.4,1-1,1H338c-0.5,0-1-0.4-1-1v-15.1
						C337.1,229.1,337.5,228.7,338,228.7z"/>
					<line class="st14" x1="337.1" y1="232.3" x2="349.9" y2="232.3"/>
					<line class="st14" x1="337.1" y1="242.1" x2="349.9" y2="242.1"/>
					<path class="st7" d="M344.1,244c0,0.3-0.3,0.6-0.6,0.6s-0.6-0.3-0.6-0.6s0.3-0.6,0.6-0.6S344.1,243.7,344.1,244z"/>
				</g>
			</g>
		</g>
	</g>
	<g>
		<path class="st7" d="M3.2,195.4h70.4c1.8,0,3.2,1.4,3.2,3.2v25.8c0,1.8-1.4,3.2-3.2,3.2H3.2c-1.8,0-3.2-1.4-3.2-3.2v-25.8
			C0,196.9,1.4,195.4,3.2,195.4z"/>
		<g>
			<path class="st3" d="M71.2,199.5c0.9,0,1.6,0.7,1.6,1.6v21c0,0.9-0.7,1.6-1.6,1.6H5.6c-0.9,0-1.6-0.7-1.6-1.6v-21
				c0-0.9,0.7-1.6,1.6-1.6H71.2 M71.2,199.1H5.6c-1.1,0-2,0.9-2,2v21c0,1.1,0.9,2,2,2h65.6c1.1,0,2-0.9,2-2v-21
				C73.2,200,72.3,199.1,71.2,199.1L71.2,199.1z"/>
			<g>
				<g class="st4">
					<path class="st3" d="M29.5,213.5v-0.7l3.4-4.7h1.1v4.6h1v0.8h-1v1.6h-0.9v-1.6H29.5z M33.1,209l-2.6,3.7h2.6V209z"/>
					<path class="st3" d="M37.7,214c0.2,0.2,0.6,0.3,1,0.3c0.5,0,0.9-0.2,1.2-0.6c0.3-0.4,0.4-1.1,0.4-2.1c-0.1,0.3-0.4,0.5-0.7,0.7
						c-0.3,0.2-0.7,0.2-1.1,0.2c-0.4,0-0.8-0.1-1.2-0.3c-0.3-0.2-0.6-0.4-0.8-0.8c-0.2-0.3-0.3-0.8-0.3-1.2c0-0.7,0.2-1.2,0.6-1.7
						c0.4-0.4,1-0.6,1.7-0.6c0.9,0,1.5,0.3,1.9,0.9c0.4,0.6,0.5,1.5,0.5,2.6c0,0.8-0.1,1.5-0.2,2s-0.4,0.9-0.7,1.2s-0.8,0.4-1.4,0.4
						c-0.7,0-1.2-0.2-1.5-0.5c-0.4-0.4-0.6-0.8-0.6-1.4h0.8C37.4,213.6,37.5,213.8,37.7,214z M39.7,211.4c0.3-0.3,0.4-0.6,0.4-1.1
						c0-0.5-0.1-0.9-0.4-1.2c-0.3-0.3-0.7-0.4-1.1-0.4c-0.5,0-0.8,0.1-1.1,0.4c-0.3,0.3-0.4,0.7-0.4,1.1c0,0.5,0.1,0.8,0.4,1.1
						s0.6,0.4,1.2,0.4C39.1,211.8,39.5,211.6,39.7,211.4z"/>
					<path class="st3" d="M43.3,208.4c0.4-0.3,0.9-0.5,1.6-0.5c0.4,0,0.8,0.1,1.1,0.2c0.3,0.2,0.6,0.4,0.7,0.6
						c0.2,0.3,0.2,0.6,0.2,0.9c0,0.4-0.1,0.7-0.3,1s-0.5,0.5-0.9,0.6v0c0.4,0.1,0.8,0.3,1,0.6s0.4,0.7,0.4,1.2c0,0.4-0.1,0.7-0.3,1
						c-0.2,0.3-0.4,0.5-0.8,0.7c-0.3,0.2-0.7,0.3-1.2,0.3c-0.7,0-1.2-0.2-1.7-0.5c-0.4-0.4-0.7-0.9-0.7-1.5h0.9
						c0,0.4,0.2,0.7,0.5,0.9s0.6,0.4,1.1,0.4c0.5,0,0.8-0.1,1-0.4c0.2-0.2,0.4-0.5,0.4-0.9c0-0.5-0.2-0.8-0.5-1s-0.8-0.3-1.5-0.3
						h-0.2V211h0.2c0.6,0,1-0.1,1.3-0.3c0.3-0.2,0.5-0.5,0.5-0.9c0-0.3-0.1-0.6-0.3-0.8c-0.2-0.2-0.5-0.3-1-0.3
						c-0.4,0-0.7,0.1-1,0.3c-0.2,0.2-0.4,0.5-0.4,0.8h-0.9C42.7,209.2,42.9,208.8,43.3,208.4z"/>
				</g>
				<g>
					<g>
						<path class="st1" d="M54.5,204.5H67c0.4,0,0.8,0.4,0.8,0.8v12.5c0,0.4-0.4,0.8-0.8,0.8H54.5c-0.4,0-0.8-0.4-0.8-0.8v-12.5
							C53.6,204.9,54,204.5,54.5,204.5z"/>
						<polyline class="st15" points="59.7,208.9 62.4,211.6 59.7,214.2 						"/>
					</g>
					<g>
						<path class="st1" d="M9.9,204.5h12.5c0.4,0,0.8,0.4,0.8,0.8v12.5c0,0.4-0.4,0.8-0.8,0.8H9.9c-0.4,0-0.8-0.4-0.8-0.8v-12.5
							C9.1,204.9,9.4,204.5,9.9,204.5z"/>
						<polyline class="st15" points="17.1,214.2 14.5,211.6 17.1,208.9 						"/>
					</g>
				</g>
			</g>
		</g>
	</g>
	<g>
		<path class="st7" d="M80.1,227.9h70.4c1.8,0,3.2,1.4,3.2,3.2v25.8c0,1.8-1.4,3.2-3.2,3.2H80.1c-1.8,0-3.2-1.4-3.2-3.2v-25.8
			C76.8,229.3,78.3,227.9,80.1,227.9z"/>
		<g>
			<path class="st1" d="M148,231.9c0.9,0,1.6,0.7,1.6,1.6v21c0,0.9-0.7,1.6-1.6,1.6H82.5c-0.9,0-1.6-0.7-1.6-1.6v-21
				c0-0.9,0.7-1.6,1.6-1.6L148,231.9 M148,231.5H82.5c-1.1,0-2,0.9-2,2v21c0,1.1,0.9,2,2,2H148c1.1,0,2-0.9,2-2v-21
				C150.1,232.4,149.2,231.5,148,231.5L148,231.5z"/>
			<g>
				<g>
					<g>
						<path class="st3" d="M131.3,236.9h12.5c0.4,0,0.8,0.4,0.8,0.8v12.5c0,0.4-0.4,0.8-0.8,0.8h-12.5c-0.4,0-0.8-0.4-0.8-0.8v-12.5
							C130.5,237.3,130.8,236.9,131.3,236.9z"/>
						<g>
							<line class="st15" x1="133.8" y1="244" x2="141.3" y2="244"/>
							<line class="st15" x1="137.6" y1="240.3" x2="137.6" y2="247.7"/>
						</g>
					</g>
					<g>
						<path class="st3" d="M86.7,236.9h12.5c0.4,0,0.8,0.4,0.8,0.8v12.5c0,0.4-0.4,0.8-0.8,0.8H86.7c-0.4,0-0.8-0.4-0.8-0.8v-12.5
							C85.9,237.3,86.3,236.9,86.7,236.9z"/>
						<line class="st15" x1="89.2" y1="244" x2="96.7" y2="244"/>
					</g>
				</g>
				<g class="st4">
					<path class="st1" d="M111,241.2l-2.7,6.3h-0.9l2.7-6.2h-3.7v-0.8h4.6V241.2z"/>
					<path class="st1" d="M112.2,245.9v-0.7l3.4-4.7h1.1v4.6h1v0.8h-1v1.6h-0.9v-1.6H112.2z M115.8,241.5l-2.6,3.7h2.6V241.5z"/>
					<path class="st1" d="M120.5,246.5c0.2,0.2,0.6,0.3,1,0.3c0.5,0,0.9-0.2,1.2-0.6c0.3-0.4,0.4-1.1,0.4-2.1
						c-0.1,0.3-0.4,0.5-0.7,0.7c-0.3,0.2-0.7,0.2-1.1,0.2c-0.4,0-0.8-0.1-1.2-0.3c-0.3-0.2-0.6-0.4-0.8-0.8
						c-0.2-0.3-0.3-0.8-0.3-1.2c0-0.7,0.2-1.2,0.6-1.7c0.4-0.4,1-0.6,1.7-0.6c0.9,0,1.5,0.3,1.9,0.9c0.4,0.6,0.5,1.5,0.5,2.6
						c0,0.8-0.1,1.5-0.2,2s-0.4,0.9-0.7,1.2s-0.8,0.4-1.4,0.4c-0.7,0-1.2-0.2-1.5-0.5c-0.4-0.4-0.6-0.8-0.6-1.4h0.8
						C120.1,246,120.2,246.3,120.5,246.5z M122.5,243.8c0.3-0.3,0.4-0.6,0.4-1.1c0-0.5-0.1-0.9-0.4-1.2c-0.3-0.3-0.7-0.4-1.1-0.4
						c-0.5,0-0.8,0.1-1.1,0.4c-0.3,0.3-0.4,0.7-0.4,1.1c0,0.5,0.1,0.8,0.4,1.1s0.6,0.4,1.2,0.4C121.8,244.2,122.2,244.1,122.5,243.8
						z"/>
				</g>
			</g>
		</g>
	</g>
	<g>
		<g>
			<path class="st7" d="M370.5,24.2H246.4V0h124.2c1.8,0,3.2,1.5,3.2,3.2V21C373.7,22.8,372.3,24.2,370.5,24.2L370.5,24.2z"/>
			<g>
				<g class="st4">
					<path class="st16" d="M258.7,14.7h2.4v0.7h-3.3V8.6h0.9V14.7z"/>
					<path class="st16" d="M263.4,15.2c-0.4-0.2-0.7-0.6-1-1c-0.2-0.4-0.3-0.9-0.3-1.5c0-0.5,0.1-1,0.4-1.5c0.2-0.4,0.6-0.7,1-1
						c0.4-0.2,0.9-0.3,1.4-0.3s1,0.1,1.4,0.3c0.4,0.2,0.7,0.5,1,1c0.2,0.4,0.4,0.9,0.4,1.5c0,0.6-0.1,1-0.4,1.5
						c-0.2,0.4-0.6,0.7-1,1c-0.4,0.2-0.9,0.3-1.4,0.3C264.3,15.5,263.8,15.4,263.4,15.2z M265.7,14.5c0.3-0.2,0.5-0.4,0.7-0.7
						s0.3-0.7,0.3-1.1s-0.1-0.8-0.3-1.1c-0.2-0.3-0.4-0.5-0.7-0.7c-0.3-0.1-0.6-0.2-0.9-0.2c-0.3,0-0.6,0.1-0.9,0.2
						c-0.3,0.1-0.5,0.4-0.7,0.7c-0.2,0.3-0.2,0.7-0.2,1.1c0,0.4,0.1,0.8,0.2,1.1c0.2,0.3,0.4,0.5,0.6,0.7c0.3,0.1,0.6,0.2,0.9,0.2
						S265.4,14.7,265.7,14.5z"/>
					<path class="st16" d="M272.5,10.3c0.3,0.2,0.6,0.5,0.8,0.8v-1h0.9v5.5c0,0.5-0.1,0.9-0.3,1.3c-0.2,0.4-0.5,0.7-0.9,0.9
						c-0.4,0.2-0.8,0.3-1.4,0.3c-0.7,0-1.3-0.2-1.8-0.5c-0.5-0.3-0.7-0.8-0.8-1.4h0.9c0.1,0.3,0.3,0.6,0.6,0.8
						c0.3,0.2,0.7,0.3,1.1,0.3c0.5,0,0.9-0.2,1.2-0.5s0.5-0.7,0.5-1.3v-1.1c-0.2,0.3-0.4,0.6-0.8,0.8c-0.3,0.2-0.8,0.3-1.2,0.3
						c-0.5,0-0.9-0.1-1.3-0.4c-0.4-0.2-0.7-0.6-0.9-1s-0.3-0.9-0.3-1.4c0-0.5,0.1-1,0.3-1.4s0.5-0.7,0.9-1c0.4-0.2,0.8-0.3,1.3-0.3
						C271.8,10,272.2,10.1,272.5,10.3z M273.1,11.7c-0.2-0.3-0.4-0.5-0.7-0.7c-0.3-0.2-0.6-0.2-0.9-0.2c-0.3,0-0.6,0.1-0.9,0.2
						c-0.3,0.2-0.5,0.4-0.7,0.7c-0.2,0.3-0.2,0.7-0.2,1.1c0,0.4,0.1,0.8,0.2,1.1c0.2,0.3,0.4,0.5,0.7,0.7c0.3,0.2,0.6,0.2,0.9,0.2
						c0.3,0,0.6-0.1,0.9-0.2c0.3-0.2,0.5-0.4,0.7-0.7c0.2-0.3,0.2-0.7,0.2-1.1S273.2,12,273.1,11.7z"/>
					<path class="st16" d="M276.1,9C276,8.9,276,8.8,276,8.6c0-0.2,0.1-0.3,0.2-0.4s0.3-0.2,0.4-0.2c0.2,0,0.3,0.1,0.4,0.2
						s0.2,0.3,0.2,0.4c0,0.2-0.1,0.3-0.2,0.4c-0.1,0.1-0.3,0.2-0.4,0.2C276.4,9.2,276.3,9.2,276.1,9z M277,10.1v5.4h-0.9v-5.4H277z"
						/>
					<path class="st16" d="M283.1,10.6c0.4,0.4,0.6,1,0.6,1.7v3.2h-0.9v-3c0-0.5-0.1-0.9-0.4-1.2c-0.3-0.3-0.6-0.4-1.1-0.4
						c-0.5,0-0.8,0.1-1.1,0.4c-0.3,0.3-0.4,0.7-0.4,1.3v3h-0.9v-5.4h0.9v0.8c0.2-0.3,0.4-0.5,0.7-0.6c0.3-0.1,0.6-0.2,1-0.2
						C282.2,10,282.7,10.2,283.1,10.6z"/>
				</g>
				<polyline class="st17" points="360,7.6 364.5,12.1 360,16.6 				"/>
			</g>
		</g>
		<g>
			<path class="st1" d="M244.7,24.2h-21c-1.8,0-3.2-1.4-3.2-3.2V3.2c0-1.8,1.4-3.2,3.2-3.2h21L244.7,24.2L244.7,24.2L244.7,24.2z"/>
			<g>
				<path class="st18" d="M235.4,9.6c0,1.5-1.2,2.7-2.7,2.7s-2.7-1.2-2.7-2.7s1.2-2.7,2.7-2.7S235.4,8.1,235.4,9.6z"/>
				<path class="st18" d="M235.7,13c-0.8,0.8-1.9,1.2-3,1.2s-2.3-0.5-3.1-1.3c-1.3,1-2.3,2.6-2.7,4.4h11.5C238,15.5,237,14,235.7,13
					L235.7,13z"/>
			</g>
		</g>
	</g>
</g>
</svg>
