<?xml version="1.0" encoding="utf-8"?>
<!-- Generator: Adobe Illustrator 27.0.1, SVG Export Plug-In . SVG Version: 6.00 Build 0)  -->
<svg version="1.1" id="Warstwa_2_00000172429741880610009380000005142826895623842708_"
	 xmlns="http://www.w3.org/2000/svg" xmlns:xlink="http://www.w3.org/1999/xlink" x="0px" y="0px" viewBox="0 0 426.8 206.1"
	 style="enable-background:new 0 0 426.8 206.1;" xml:space="preserve">
<style type="text/css">
	.st0{fill:url(#SVGID_1_);}
	.st1{fill:#2F54EA;}
	.st2{opacity:0.3;fill:#FF8188;enable-background:new    ;}
	.st3{fill:#FF8188;}
	.st4{enable-background:new    ;}
	.st5{fill:#FFFFFF;}
	.st6{opacity:0.5;}
	.st7{fill:#F1F1F1;}
	.st8{fill:none;stroke:#FF8188;stroke-width:0.81;stroke-linecap:round;stroke-linejoin:round;}
	.st9{fill:#B2B2B2;}
	.st10{fill:none;stroke:#2F54EA;stroke-width:0.81;stroke-linecap:round;stroke-linejoin:round;}
	.st11{fill:none;stroke:#FFFFFF;stroke-width:0.81;stroke-linecap:round;stroke-linejoin:round;}
	.st12{fill:none;stroke:#2F54EA;stroke-width:0.37;stroke-linecap:round;stroke-linejoin:round;}
	.st13{fill:none;stroke:#FF8188;stroke-width:0.37;stroke-linecap:round;stroke-linejoin:round;}
</style>
<g id="Warstwa_1-2">
	<g>
		<g>
			
				<linearGradient id="SVGID_1_" gradientUnits="userSpaceOnUse" x1="147.76" y1="84.0033" x2="325.14" y2="84.0033" gradientTransform="matrix(1 0 0 -1 0 207.2284)">
				<stop  offset="0" style="stop-color:#193BA7"/>
				<stop  offset="0.66" style="stop-color:#07336C"/>
				<stop  offset="1" style="stop-color:#003053"/>
			</linearGradient>
			<path class="st0" d="M151,42.6h170.9c1.8,0,3.2,1.4,3.2,3.2v154.8c0,1.8-1.4,3.2-3.2,3.2H151c-1.8,0-3.2-1.4-3.2-3.2V45.8
				C147.8,44,149.2,42.6,151,42.6z"/>
			<path class="st1" d="M151,42.6h170.9c1.8,0,3.2,1.5,3.2,3.2v21H147.8v-21C147.8,44.1,149.2,42.6,151,42.6L151,42.6z"/>
		</g>
		<g>
			<g>
				<g>
					<path class="st2" d="M260.2,150.9h-71.4c-3.6,0-6.6-2.9-6.6-6.6l0,0c0-3.6,2.9-6.6,6.6-6.6h71.4c3.6,0,6.5,2.9,6.5,6.6l0,0
						C266.7,148,263.8,150.9,260.2,150.9z"/>
					<g>
						<path class="st3" d="M195.3,144.4c0,3.6-2.9,6.6-6.6,6.6s-6.6-2.9-6.6-6.6s2.9-6.6,6.6-6.6S195.3,140.7,195.3,144.4z"/>
						<path class="st3" d="M266.7,144.4c0,3.6-2.9,6.6-6.5,6.6s-6.6-2.9-6.6-6.6s2.9-6.6,6.6-6.6S266.7,140.7,266.7,144.4z"/>
					</g>
				</g>
				<g>
					<g class="st4">
						<path class="st5" d="M167.8,77.9v5.7h-0.7v-4.2l-1.9,4.2h-0.5l-1.9-4.2v4.2H162v-5.7h0.8l2.1,4.7l2.1-4.7H167.8z"/>
					</g>
					<g class="st4">
						<path class="st5" d="M190.7,77.8v0.6h-1.6v5.1h-0.7v-5.1h-1.6v-0.6H190.7z"/>
					</g>
					<g class="st4">
						<path class="st5" d="M216.4,77.8l-1.7,5.7h-0.8l-1.3-4.6l-1.4,4.6l-0.8,0l-1.6-5.7h0.8l1.2,4.8l1.4-4.8h0.8l1.3,4.8l1.2-4.8
							H216.4z"/>
					</g>
					<g class="st4">
						<path class="st5" d="M238.3,77.8v0.6h-1.6v5.1H236v-5.1h-1.6v-0.6H238.3z"/>
					</g>
					<g class="st4">
						<path class="st5" d="M262,77.8v0.6h-2.5v1.9h2V81h-2v2.6h-0.7v-5.7H262z"/>
					</g>
					<g class="st6">
						<g class="st4">
							<path class="st5" d="M283,83.4c-0.3-0.1-0.5-0.3-0.7-0.6c-0.2-0.2-0.3-0.5-0.3-0.8h0.8c0,0.3,0.1,0.5,0.3,0.7
								s0.5,0.3,0.8,0.3c0.4,0,0.6-0.1,0.8-0.3c0.2-0.2,0.3-0.4,0.3-0.7c0-0.2-0.1-0.4-0.2-0.5c-0.1-0.1-0.3-0.2-0.4-0.3
								c-0.2-0.1-0.4-0.1-0.7-0.2c-0.4-0.1-0.7-0.2-0.9-0.3c-0.2-0.1-0.4-0.3-0.6-0.5c-0.2-0.2-0.2-0.5-0.2-0.8
								c0-0.3,0.1-0.6,0.2-0.8c0.2-0.2,0.4-0.4,0.7-0.6c0.3-0.1,0.6-0.2,1-0.2c0.5,0,1,0.1,1.3,0.4c0.3,0.3,0.5,0.6,0.6,1.1H285
								c0-0.2-0.1-0.4-0.3-0.6c-0.2-0.2-0.5-0.2-0.8-0.2c-0.3,0-0.6,0.1-0.8,0.2c-0.2,0.2-0.3,0.4-0.3,0.7c0,0.2,0.1,0.4,0.2,0.5
								s0.3,0.2,0.4,0.3c0.2,0.1,0.4,0.1,0.7,0.2c0.4,0.1,0.7,0.2,0.9,0.3c0.2,0.1,0.4,0.3,0.6,0.5c0.2,0.2,0.2,0.5,0.2,0.9
								c0,0.3-0.1,0.5-0.2,0.8c-0.1,0.2-0.4,0.4-0.7,0.6c-0.3,0.2-0.6,0.2-1,0.2C283.6,83.6,283.3,83.5,283,83.4z"/>
						</g>
					</g>
					<g class="st6">
						<g class="st4">
							<path class="st5" d="M306.8,83.4c-0.3-0.1-0.5-0.3-0.7-0.6c-0.2-0.2-0.3-0.5-0.3-0.8h0.8c0,0.3,0.1,0.5,0.3,0.7
								s0.5,0.3,0.8,0.3c0.4,0,0.6-0.1,0.8-0.3c0.2-0.2,0.3-0.4,0.3-0.7c0-0.2-0.1-0.4-0.2-0.5c-0.1-0.1-0.3-0.2-0.5-0.3
								c-0.2-0.1-0.4-0.1-0.7-0.2c-0.4-0.1-0.7-0.2-0.9-0.3c-0.2-0.1-0.4-0.3-0.6-0.5c-0.2-0.2-0.2-0.5-0.2-0.8
								c0-0.3,0.1-0.6,0.2-0.8c0.2-0.2,0.4-0.4,0.7-0.6s0.6-0.2,1-0.2c0.5,0,1,0.1,1.3,0.4c0.3,0.3,0.5,0.6,0.6,1.1h-0.8
								c0-0.2-0.1-0.4-0.3-0.6c-0.2-0.2-0.5-0.2-0.8-0.2c-0.3,0-0.6,0.1-0.8,0.2c-0.2,0.2-0.3,0.4-0.3,0.7c0,0.2,0.1,0.4,0.2,0.5
								s0.3,0.2,0.4,0.3s0.4,0.1,0.7,0.2c0.4,0.1,0.7,0.2,0.9,0.3c0.2,0.1,0.4,0.3,0.6,0.5c0.2,0.2,0.2,0.5,0.2,0.9
								c0,0.3-0.1,0.5-0.2,0.8c-0.1,0.2-0.4,0.4-0.7,0.6c-0.3,0.2-0.6,0.2-1,0.2C307.4,83.6,307.1,83.5,306.8,83.4z"/>
						</g>
					</g>
					<g class="st4">
						<path class="st5" d="M165,120.5c-0.5,0-0.8,0.2-1.1,0.6c-0.2,0.4-0.4,1-0.4,1.8c0.1-0.3,0.3-0.5,0.6-0.7s0.6-0.2,1-0.2
							c0.6,0,1,0.2,1.3,0.5c0.3,0.3,0.5,0.8,0.5,1.4c0,0.4-0.1,0.7-0.2,1c-0.1,0.3-0.4,0.5-0.7,0.7s-0.6,0.3-1.1,0.3
							c-0.6,0-1-0.1-1.3-0.4c-0.3-0.2-0.5-0.6-0.7-1c-0.1-0.4-0.2-1-0.2-1.6c0-2,0.7-3,2.1-3c0.5,0,1,0.1,1.3,0.4
							c0.3,0.3,0.5,0.7,0.5,1.1h-0.7C166,120.8,165.7,120.5,165,120.5z M164.4,122.8c-0.2,0.1-0.4,0.2-0.5,0.4
							c-0.1,0.2-0.2,0.4-0.2,0.7c0,0.4,0.1,0.8,0.4,1c0.2,0.3,0.6,0.4,1,0.4c0.4,0,0.7-0.1,0.9-0.4c0.2-0.2,0.3-0.6,0.3-1
							c0-0.4-0.1-0.8-0.3-1c-0.2-0.2-0.5-0.4-1-0.4C164.8,122.6,164.6,122.7,164.4,122.8z"/>
					</g>
					<g class="st4">
						<path class="st5" d="M190.7,120.6l-2.3,5.3h-0.8l2.3-5.3h-3.2V120h3.9V120.6z"/>
					</g>
					<g class="st4">
						<path class="st5" d="M210.9,122.3c-0.2-0.2-0.2-0.5-0.2-0.8c0-0.3,0.1-0.6,0.2-0.8c0.1-0.2,0.4-0.4,0.7-0.6
							c0.3-0.1,0.6-0.2,1.1-0.2c0.4,0,0.8,0.1,1.1,0.2c0.3,0.1,0.5,0.3,0.7,0.6c0.1,0.2,0.2,0.5,0.2,0.8c0,0.3-0.1,0.6-0.3,0.8
							c-0.2,0.2-0.4,0.4-0.7,0.5c0.3,0.1,0.6,0.3,0.8,0.5c0.2,0.3,0.3,0.6,0.3,0.9c0,0.4-0.1,0.7-0.3,0.9c-0.2,0.3-0.4,0.5-0.7,0.6
							c-0.3,0.1-0.7,0.2-1.1,0.2c-0.4,0-0.8-0.1-1.1-0.2c-0.3-0.1-0.6-0.3-0.7-0.6c-0.2-0.3-0.3-0.6-0.3-0.9c0-0.4,0.1-0.7,0.3-0.9
							c0.2-0.3,0.5-0.4,0.8-0.5C211.3,122.7,211,122.6,210.9,122.3z M211.6,123.5c-0.3,0.2-0.4,0.5-0.4,0.8c0,0.3,0.1,0.6,0.4,0.8
							c0.2,0.2,0.6,0.3,1,0.3c0.4,0,0.8-0.1,1-0.3s0.4-0.5,0.4-0.8c0-0.4-0.1-0.6-0.4-0.8s-0.6-0.3-1-0.3
							C212.2,123.2,211.8,123.3,211.6,123.5z M213.5,120.8c-0.2-0.2-0.5-0.3-0.9-0.3c-0.4,0-0.7,0.1-0.9,0.3s-0.3,0.4-0.3,0.8
							c0,0.3,0.1,0.6,0.3,0.7s0.5,0.3,0.9,0.3c0.4,0,0.7-0.1,0.9-0.3c0.2-0.2,0.3-0.4,0.3-0.7C213.8,121.3,213.7,121,213.5,120.8z"
							/>
					</g>
					<g class="st4">
						<path class="st5" d="M235.6,125.1c0.2,0.2,0.5,0.3,0.8,0.3c0.5,0,0.8-0.2,1-0.5c0.2-0.4,0.3-1,0.3-1.8
							c-0.1,0.2-0.3,0.4-0.6,0.6c-0.3,0.1-0.6,0.2-0.9,0.2c-0.4,0-0.7-0.1-1-0.2c-0.3-0.2-0.5-0.4-0.7-0.7c-0.2-0.3-0.2-0.6-0.2-1
							c0-0.6,0.2-1.1,0.5-1.4c0.3-0.4,0.8-0.5,1.4-0.5c0.8,0,1.3,0.2,1.6,0.7c0.3,0.5,0.5,1.2,0.5,2.2c0,0.7-0.1,1.3-0.2,1.7
							c-0.1,0.4-0.3,0.8-0.6,1c-0.3,0.2-0.7,0.3-1.2,0.3c-0.6,0-1-0.1-1.3-0.4c-0.3-0.3-0.5-0.7-0.5-1.1h0.7
							C235.3,124.7,235.4,124.9,235.6,125.1z M237.3,122.8c0.2-0.2,0.4-0.5,0.4-0.9c0-0.4-0.1-0.7-0.3-1c-0.2-0.3-0.6-0.4-1-0.4
							c-0.4,0-0.7,0.1-0.9,0.4c-0.2,0.2-0.3,0.6-0.3,0.9c0,0.4,0.1,0.7,0.3,1c0.2,0.2,0.5,0.4,1,0.4
							C236.8,123.2,237.1,123,237.3,122.8z"/>
					</g>
					<g class="st4">
						<path class="st5" d="M256.5,120.7V120h1.5v5.9h-0.8v-5.2H256.5z"/>
						<path class="st5" d="M260,120.7c0.3-0.5,0.8-0.8,1.6-0.8c0.8,0,1.3,0.3,1.6,0.8c0.3,0.5,0.5,1.3,0.5,2.2c0,1-0.2,1.7-0.5,2.2
							c-0.3,0.5-0.8,0.8-1.6,0.8c-0.8,0-1.3-0.3-1.6-0.8c-0.3-0.5-0.5-1.3-0.5-2.2C259.6,122,259.7,121.2,260,120.7z M262.9,121.7
							c-0.1-0.3-0.2-0.6-0.4-0.8s-0.5-0.3-0.8-0.3c-0.4,0-0.7,0.1-0.8,0.3s-0.3,0.5-0.4,0.8c-0.1,0.3-0.1,0.7-0.1,1.2
							c0,0.5,0,0.9,0.1,1.2c0.1,0.3,0.2,0.6,0.4,0.8s0.5,0.3,0.8,0.3c0.4,0,0.6-0.1,0.8-0.3s0.3-0.5,0.4-0.8s0.1-0.7,0.1-1.2
							C263,122.4,262.9,122,262.9,121.7z"/>
					</g>
					<g class="st6">
						<g class="st4">
							<path class="st5" d="M281.5,120.7V120h1.5v5.9h-0.8v-5.2H281.5z"/>
							<path class="st5" d="M284.5,120.7V120h1.5v5.9h-0.8v-5.2H284.5z"/>
						</g>
					</g>
					<g class="st6">
						<g class="st4">
							<path class="st5" d="M304.3,120.7V120h1.5v5.9h-0.8v-5.2H304.3z"/>
							<path class="st5" d="M309,124c0.4-0.4,0.7-0.7,1-1.1c0.3-0.4,0.4-0.8,0.4-1.1c0-0.4-0.1-0.6-0.3-0.8
								c-0.2-0.2-0.4-0.3-0.8-0.3c-0.4,0-0.7,0.1-0.9,0.3c-0.2,0.2-0.3,0.5-0.3,0.9h-0.7c0-0.6,0.2-1.1,0.6-1.4s0.8-0.5,1.3-0.5
								c0.6,0,1,0.2,1.3,0.5c0.3,0.3,0.5,0.7,0.5,1.3c0,0.5-0.1,0.9-0.4,1.3s-0.6,0.8-0.9,1.1c-0.3,0.3-0.8,0.7-1.3,1.1h2.8v0.6
								h-3.9v-0.5C308,124.8,308.6,124.3,309,124z"/>
						</g>
					</g>
					<g class="st4">
						<path class="st5" d="M161.4,142.1v-0.7h1.5v5.9h-0.8v-5.2H161.4z"/>
						<path class="st5" d="M165.1,141.7c0.3-0.3,0.8-0.4,1.4-0.4c0.4,0,0.7,0.1,1,0.2c0.3,0.1,0.5,0.3,0.6,0.5
							c0.1,0.2,0.2,0.5,0.2,0.8c0,0.3-0.1,0.6-0.3,0.9s-0.4,0.4-0.8,0.5v0c0.4,0.1,0.6,0.3,0.8,0.5c0.2,0.3,0.3,0.6,0.3,1
							c0,0.3-0.1,0.6-0.2,0.8c-0.1,0.2-0.4,0.4-0.6,0.6s-0.6,0.2-1,0.2c-0.6,0-1.1-0.2-1.4-0.5c-0.4-0.3-0.6-0.7-0.6-1.3h0.7
							c0,0.3,0.2,0.6,0.4,0.8c0.2,0.2,0.5,0.3,0.9,0.3s0.7-0.1,0.9-0.3c0.2-0.2,0.3-0.5,0.3-0.8c0-0.4-0.1-0.7-0.4-0.9
							s-0.7-0.3-1.2-0.3h-0.2v-0.6h0.2c0.5,0,0.9-0.1,1.1-0.2c0.3-0.2,0.4-0.4,0.4-0.7c0-0.3-0.1-0.5-0.3-0.7
							c-0.2-0.2-0.5-0.3-0.8-0.3c-0.3,0-0.6,0.1-0.8,0.3c-0.2,0.2-0.3,0.4-0.4,0.7h-0.7C164.5,142.4,164.7,142,165.1,141.7z"/>
					</g>
					<g class="st4">
						<path class="st5" d="M185,142.1v-0.7h1.5v5.9h-0.8v-5.2H185z"/>
						<path class="st5" d="M188,146v-0.6l2.9-4h0.9v3.9h0.8v0.6h-0.8v1.3H191V146H188z M191,142.2l-2.2,3.1h2.2V142.2z"/>
					</g>
					<g class="st4">
						<path class="st5" d="M208.8,142.1v-0.7h1.5v5.9h-0.8v-5.2H208.8z"/>
						<path class="st5" d="M215.7,142h-2.9v1.9c0.1-0.2,0.3-0.3,0.6-0.4c0.2-0.1,0.5-0.2,0.8-0.2c0.5,0,0.8,0.1,1.1,0.3
							c0.3,0.2,0.5,0.4,0.6,0.7s0.2,0.6,0.2,0.9c0,0.4-0.1,0.7-0.2,1.1c-0.1,0.3-0.4,0.6-0.7,0.7s-0.7,0.3-1.1,0.3
							c-0.6,0-1-0.1-1.4-0.4s-0.6-0.7-0.6-1.2h0.7c0.1,0.3,0.2,0.6,0.4,0.7c0.2,0.2,0.5,0.3,0.9,0.3c0.4,0,0.8-0.1,1-0.4
							c0.2-0.3,0.3-0.6,0.3-1s-0.1-0.8-0.3-1c-0.2-0.2-0.5-0.3-1-0.3c-0.3,0-0.5,0.1-0.8,0.2c-0.2,0.1-0.4,0.3-0.5,0.6h-0.7v-3.3
							h3.6V142z"/>
					</g>
					<g class="st4">
						<path class="st5" d="M232.6,142.1v-0.7h1.5v5.9h-0.8v-5.2H232.6z"/>
						<path class="st5" d="M237.9,141.9c-0.5,0-0.8,0.2-1.1,0.6s-0.4,1-0.4,1.8c0.1-0.3,0.3-0.5,0.6-0.7c0.3-0.2,0.6-0.2,1-0.2
							c0.6,0,1,0.2,1.3,0.5s0.5,0.8,0.5,1.4c0,0.4-0.1,0.7-0.2,1c-0.1,0.3-0.4,0.5-0.7,0.7c-0.3,0.2-0.6,0.3-1.1,0.3
							c-0.6,0-1-0.1-1.3-0.4c-0.3-0.3-0.5-0.6-0.7-1c-0.1-0.4-0.2-1-0.2-1.6c0-2,0.7-3,2.1-3c0.5,0,1,0.1,1.3,0.4
							c0.3,0.3,0.5,0.7,0.5,1.1H239C238.9,142.2,238.5,141.9,237.9,141.9z M237.3,144.1c-0.2,0.1-0.4,0.2-0.5,0.4s-0.2,0.4-0.2,0.7
							c0,0.4,0.1,0.8,0.4,1c0.2,0.3,0.6,0.4,1,0.4c0.4,0,0.7-0.1,0.9-0.4c0.2-0.2,0.3-0.6,0.3-1c0-0.4-0.1-0.8-0.3-1s-0.5-0.4-1-0.4
							C237.7,144,237.5,144.1,237.3,144.1z"/>
					</g>
					<g class="st4">
						<path class="st5" d="M256.8,142.1v-0.7h1.5v5.9h-0.8v-5.2H256.8z"/>
						<path class="st5" d="M263.6,142l-2.3,5.3h-0.8l2.3-5.3h-3.2v-0.6h3.9V142z"/>
					</g>
					<g class="st6">
						<g class="st4">
							<path class="st5" d="M280.2,142.1v-0.7h1.5v5.9H281v-5.2H280.2z"/>
							<path class="st5" d="M283.8,143.7c-0.2-0.2-0.2-0.5-0.2-0.8c0-0.3,0.1-0.6,0.2-0.8c0.1-0.2,0.4-0.4,0.7-0.6
								c0.3-0.1,0.6-0.2,1.1-0.2s0.8,0.1,1.1,0.2c0.3,0.1,0.5,0.3,0.7,0.6s0.2,0.5,0.2,0.8c0,0.3-0.1,0.6-0.3,0.8
								c-0.2,0.2-0.4,0.4-0.7,0.5c0.3,0.1,0.6,0.3,0.8,0.5c0.2,0.3,0.3,0.6,0.3,0.9c0,0.4-0.1,0.7-0.3,0.9c-0.2,0.3-0.4,0.5-0.7,0.6
								c-0.3,0.1-0.7,0.2-1.1,0.2s-0.8-0.1-1.1-0.2c-0.3-0.1-0.6-0.3-0.7-0.6c-0.2-0.3-0.3-0.6-0.3-0.9c0-0.4,0.1-0.7,0.3-0.9
								c0.2-0.3,0.5-0.4,0.8-0.5C284.2,144.1,283.9,143.9,283.8,143.7z M284.5,144.8c-0.3,0.2-0.4,0.5-0.4,0.8
								c0,0.3,0.1,0.6,0.4,0.8c0.2,0.2,0.6,0.3,1,0.3s0.8-0.1,1-0.3c0.2-0.2,0.4-0.5,0.4-0.8c0-0.4-0.1-0.6-0.4-0.8
								c-0.2-0.2-0.6-0.3-1-0.3C285,144.5,284.7,144.6,284.5,144.8z M286.3,142.2c-0.2-0.2-0.5-0.3-0.9-0.3c-0.4,0-0.7,0.1-0.9,0.3
								s-0.3,0.4-0.3,0.8c0,0.3,0.1,0.5,0.3,0.7c0.2,0.2,0.5,0.3,0.9,0.3c0.4,0,0.7-0.1,0.9-0.3c0.2-0.2,0.3-0.4,0.3-0.7
								C286.7,142.6,286.6,142.4,286.3,142.2z"/>
						</g>
					</g>
					<g class="st6">
						<g class="st4">
							<path class="st5" d="M304.1,142.1v-0.7h1.5v5.9h-0.8v-5.2H304.1z"/>
							<path class="st5" d="M308.5,146.4c0.2,0.2,0.5,0.3,0.8,0.3c0.5,0,0.8-0.2,1-0.5c0.2-0.4,0.3-1,0.3-1.8
								c-0.1,0.2-0.3,0.4-0.6,0.6c-0.3,0.1-0.6,0.2-0.9,0.2c-0.4,0-0.7-0.1-1-0.2c-0.3-0.2-0.5-0.4-0.7-0.7c-0.2-0.3-0.2-0.6-0.2-1
								c0-0.6,0.2-1.1,0.5-1.4c0.3-0.4,0.8-0.5,1.4-0.5c0.8,0,1.3,0.2,1.6,0.7c0.3,0.5,0.5,1.2,0.5,2.2c0,0.7-0.1,1.3-0.2,1.7
								c-0.1,0.4-0.3,0.8-0.6,1c-0.3,0.2-0.7,0.4-1.2,0.4c-0.6,0-1-0.1-1.3-0.4c-0.3-0.3-0.5-0.7-0.5-1.1h0.7
								C308.2,146,308.3,146.3,308.5,146.4z M310.2,144.2c0.2-0.2,0.4-0.5,0.4-0.9c0-0.4-0.1-0.7-0.3-1c-0.2-0.3-0.5-0.4-1-0.4
								c-0.4,0-0.7,0.1-0.9,0.4c-0.2,0.2-0.3,0.6-0.3,0.9c0,0.4,0.1,0.7,0.3,1c0.2,0.2,0.5,0.4,1,0.4
								C309.7,144.5,310,144.4,310.2,144.2z"/>
						</g>
					</g>
					<g class="st4">
						<path class="st5" d="M161.9,166.7c0.4-0.4,0.7-0.7,1-1.1s0.4-0.8,0.4-1.1c0-0.4-0.1-0.6-0.3-0.8c-0.2-0.2-0.4-0.3-0.8-0.3
							c-0.4,0-0.7,0.1-0.9,0.3c-0.2,0.2-0.3,0.5-0.3,0.9h-0.7c0-0.6,0.2-1.1,0.6-1.4s0.8-0.5,1.3-0.5c0.6,0,1,0.2,1.3,0.5
							c0.3,0.3,0.5,0.7,0.5,1.3c0,0.5-0.1,0.9-0.4,1.3s-0.6,0.8-0.9,1.1c-0.3,0.3-0.8,0.7-1.3,1.1h2.8v0.6h-3.9V168
							C161,167.5,161.5,167,161.9,166.7z"/>
						<path class="st5" d="M165.8,163.4c0.3-0.5,0.8-0.8,1.6-0.8c0.8,0,1.3,0.3,1.6,0.8c0.3,0.5,0.5,1.3,0.5,2.2
							c0,1-0.2,1.7-0.5,2.2c-0.3,0.5-0.8,0.8-1.6,0.8c-0.8,0-1.3-0.3-1.6-0.8c-0.3-0.5-0.5-1.3-0.5-2.2
							C165.4,164.7,165.5,164,165.8,163.4z M168.7,164.4c-0.1-0.3-0.2-0.6-0.4-0.8c-0.2-0.2-0.5-0.3-0.8-0.3c-0.4,0-0.7,0.1-0.8,0.3
							c-0.2,0.2-0.3,0.5-0.4,0.8c-0.1,0.3-0.1,0.7-0.1,1.2c0,0.5,0,0.9,0.1,1.2c0.1,0.3,0.2,0.6,0.4,0.8s0.5,0.3,0.8,0.3
							c0.4,0,0.6-0.1,0.8-0.3s0.3-0.5,0.4-0.8s0.1-0.7,0.1-1.2C168.8,165.2,168.7,164.7,168.7,164.4z"/>
					</g>
					<g class="st4">
						<path class="st5" d="M187,166.7c0.4-0.4,0.7-0.7,1-1.1s0.4-0.8,0.4-1.1c0-0.4-0.1-0.6-0.3-0.8c-0.2-0.2-0.4-0.3-0.8-0.3
							c-0.4,0-0.7,0.1-0.9,0.3c-0.2,0.2-0.3,0.5-0.3,0.9h-0.7c0-0.6,0.2-1.1,0.6-1.4s0.8-0.5,1.3-0.5c0.6,0,1,0.2,1.3,0.5
							c0.3,0.3,0.5,0.7,0.5,1.3c0,0.5-0.1,0.9-0.4,1.3s-0.6,0.8-0.9,1.1c-0.3,0.3-0.8,0.7-1.3,1.1h2.8v0.6h-3.9V168
							C186,167.5,186.6,167,187,166.7z"/>
						<path class="st5" d="M190.3,163.4v-0.7h1.5v5.9H191v-5.2H190.3z"/>
					</g>
					<g class="st4">
						<path class="st5" d="M209.7,166.7c0.4-0.4,0.7-0.7,1-1.1s0.4-0.8,0.4-1.1c0-0.4-0.1-0.6-0.3-0.8c-0.2-0.2-0.4-0.3-0.8-0.3
							c-0.4,0-0.7,0.1-0.9,0.3c-0.2,0.2-0.3,0.5-0.3,0.9h-0.7c0-0.6,0.2-1.1,0.6-1.4s0.8-0.5,1.3-0.5c0.6,0,1,0.2,1.3,0.5
							c0.3,0.3,0.5,0.7,0.5,1.3c0,0.5-0.1,0.9-0.4,1.3s-0.6,0.8-0.9,1.1c-0.3,0.3-0.8,0.7-1.3,1.1h2.8v0.6h-3.9V168
							C208.8,167.5,209.3,167,209.7,166.7z"/>
						<path class="st5" d="M214.8,166.7c0.4-0.4,0.7-0.7,1-1.1s0.4-0.8,0.4-1.1c0-0.4-0.1-0.6-0.3-0.8c-0.2-0.2-0.4-0.3-0.8-0.3
							c-0.4,0-0.7,0.1-0.9,0.3c-0.2,0.2-0.3,0.5-0.3,0.9h-0.7c0-0.6,0.2-1.1,0.6-1.4s0.8-0.5,1.3-0.5c0.6,0,1,0.2,1.3,0.5
							c0.3,0.3,0.5,0.7,0.5,1.3c0,0.5-0.1,0.9-0.4,1.3s-0.6,0.8-0.9,1.1c-0.3,0.3-0.8,0.7-1.3,1.1h2.8v0.6h-3.9V168
							C213.8,167.5,214.4,167,214.8,166.7z"/>
					</g>
					<g class="st4">
						<path class="st5" d="M233.5,166.7c0.4-0.4,0.7-0.7,1-1.1s0.4-0.8,0.4-1.1c0-0.4-0.1-0.6-0.3-0.8c-0.2-0.2-0.4-0.3-0.8-0.3
							c-0.4,0-0.7,0.1-0.9,0.3c-0.2,0.2-0.3,0.5-0.3,0.9h-0.7c0-0.6,0.2-1.1,0.6-1.4s0.8-0.5,1.3-0.5c0.6,0,1,0.2,1.3,0.5
							c0.3,0.3,0.5,0.7,0.5,1.3c0,0.5-0.1,0.9-0.4,1.3s-0.6,0.8-0.9,1.1c-0.3,0.3-0.8,0.7-1.3,1.1h2.8v0.6h-3.9V168
							C232.5,167.5,233.1,167,233.5,166.7z"/>
						<path class="st5" d="M237.5,163c0.3-0.3,0.8-0.4,1.4-0.4c0.4,0,0.7,0.1,1,0.2c0.3,0.1,0.5,0.3,0.6,0.5
							c0.1,0.2,0.2,0.5,0.2,0.8c0,0.3-0.1,0.6-0.3,0.9s-0.4,0.4-0.8,0.5v0c0.4,0.1,0.6,0.3,0.8,0.5c0.2,0.3,0.3,0.6,0.3,1
							c0,0.3-0.1,0.6-0.2,0.8c-0.1,0.2-0.4,0.4-0.6,0.6s-0.6,0.2-1,0.2c-0.6,0-1.1-0.2-1.4-0.5c-0.4-0.3-0.6-0.7-0.6-1.3h0.7
							c0,0.3,0.2,0.6,0.4,0.8s0.5,0.3,0.9,0.3c0.4,0,0.7-0.1,0.9-0.3c0.2-0.2,0.3-0.5,0.3-0.8c0-0.4-0.1-0.7-0.4-0.9
							s-0.7-0.3-1.2-0.3h-0.2v-0.6h0.2c0.5,0,0.9-0.1,1.1-0.2c0.3-0.2,0.4-0.4,0.4-0.7c0-0.3-0.1-0.5-0.3-0.7
							c-0.2-0.2-0.5-0.3-0.8-0.3c-0.3,0-0.6,0.1-0.8,0.3c-0.2,0.2-0.3,0.4-0.4,0.7H237C237,163.7,237.2,163.3,237.5,163z"/>
					</g>
					<g class="st4">
						<path class="st5" d="M257.1,166.7c0.4-0.4,0.7-0.7,1-1.1s0.4-0.8,0.4-1.1c0-0.4-0.1-0.6-0.3-0.8s-0.4-0.3-0.8-0.3
							c-0.4,0-0.7,0.1-0.9,0.3s-0.3,0.5-0.3,0.9h-0.7c0-0.6,0.2-1.1,0.6-1.4s0.8-0.5,1.3-0.5c0.6,0,1,0.2,1.3,0.5
							c0.3,0.3,0.5,0.7,0.5,1.3c0,0.5-0.1,0.9-0.4,1.3s-0.6,0.8-0.9,1.1c-0.3,0.3-0.8,0.7-1.3,1.1h2.8v0.6h-3.9V168
							C256.2,167.5,256.7,167,257.1,166.7z"/>
						<path class="st5" d="M260.4,167.3v-0.6l2.9-4h0.9v3.9h0.8v0.6h-0.8v1.3h-0.7v-1.3H260.4z M263.5,163.6l-2.2,3.1h2.2V163.6z"/>
					</g>
					<g class="st6">
						<g class="st4">
							<path class="st5" d="M280.9,166.7c0.4-0.4,0.7-0.7,1-1.1s0.4-0.8,0.4-1.1c0-0.4-0.1-0.6-0.3-0.8c-0.2-0.2-0.4-0.3-0.8-0.3
								c-0.4,0-0.7,0.1-0.9,0.3c-0.2,0.2-0.3,0.5-0.3,0.9h-0.7c0-0.6,0.2-1.1,0.6-1.4s0.8-0.5,1.3-0.5c0.6,0,1,0.2,1.3,0.5
								c0.3,0.3,0.5,0.7,0.5,1.3c0,0.5-0.1,0.9-0.4,1.3s-0.6,0.8-0.9,1.1c-0.3,0.3-0.8,0.7-1.3,1.1h2.8v0.6h-3.9V168
								C280,167.5,280.6,167,280.9,166.7z"/>
							<path class="st5" d="M288.2,163.4h-2.9v1.9c0.1-0.2,0.3-0.3,0.6-0.4c0.2-0.1,0.5-0.2,0.8-0.2c0.5,0,0.8,0.1,1.1,0.3
								c0.3,0.2,0.5,0.4,0.6,0.7c0.1,0.3,0.2,0.6,0.2,0.9c0,0.4-0.1,0.7-0.2,1.1c-0.1,0.3-0.4,0.6-0.7,0.7s-0.7,0.3-1.1,0.3
								c-0.6,0-1-0.1-1.4-0.4c-0.4-0.3-0.6-0.7-0.6-1.2h0.7c0.1,0.3,0.2,0.6,0.4,0.7c0.2,0.2,0.5,0.3,0.9,0.3c0.4,0,0.8-0.1,1-0.4
								c0.2-0.3,0.3-0.6,0.3-1s-0.1-0.8-0.3-1c-0.2-0.2-0.5-0.3-1-0.3c-0.3,0-0.5,0.1-0.8,0.2c-0.2,0.1-0.4,0.3-0.5,0.6h-0.7v-3.3
								h3.6V163.4z"/>
						</g>
					</g>
					<g class="st6">
						<g class="st4">
							<path class="st5" d="M304.7,166.7c0.4-0.4,0.7-0.7,1-1.1s0.4-0.8,0.4-1.1c0-0.4-0.1-0.6-0.3-0.8s-0.4-0.3-0.8-0.3
								c-0.4,0-0.7,0.1-0.9,0.3s-0.3,0.5-0.3,0.9h-0.7c0-0.6,0.2-1.1,0.6-1.4s0.8-0.5,1.3-0.5c0.6,0,1,0.2,1.3,0.5
								c0.3,0.3,0.5,0.7,0.5,1.3c0,0.5-0.1,0.9-0.4,1.3s-0.6,0.8-0.9,1.1c-0.3,0.3-0.8,0.7-1.3,1.1h2.8v0.6h-3.9V168
								C303.8,167.5,304.3,167,304.7,166.7z"/>
							<path class="st5" d="M310.4,163.2c-0.5,0-0.8,0.2-1.1,0.6c-0.2,0.4-0.4,1-0.4,1.8c0.1-0.3,0.3-0.5,0.6-0.7
								c0.3-0.2,0.6-0.2,1-0.2c0.6,0,1,0.2,1.3,0.5s0.5,0.8,0.5,1.4c0,0.4-0.1,0.7-0.2,1c-0.1,0.3-0.4,0.5-0.7,0.7
								c-0.3,0.2-0.6,0.3-1.1,0.3c-0.6,0-1-0.1-1.3-0.4c-0.3-0.3-0.5-0.6-0.7-1c-0.1-0.4-0.2-1-0.2-1.6c0-2,0.7-3,2.1-3
								c0.5,0,1,0.1,1.3,0.4c0.3,0.3,0.5,0.7,0.5,1.1h-0.7C311.4,163.5,311,163.2,310.4,163.2z M309.7,165.5
								c-0.2,0.1-0.4,0.2-0.5,0.4c-0.1,0.2-0.2,0.4-0.2,0.7c0,0.4,0.1,0.8,0.4,1c0.2,0.3,0.6,0.4,1,0.4c0.4,0,0.7-0.1,0.9-0.4
								c0.2-0.2,0.3-0.6,0.3-1c0-0.4-0.1-0.8-0.3-1c-0.2-0.2-0.5-0.4-1-0.4C310.2,165.4,309.9,165.4,309.7,165.5z"/>
						</g>
					</g>
					<g class="st4">
						<path class="st5" d="M162.2,188.1c0.4-0.4,0.7-0.7,1-1.1s0.4-0.8,0.4-1.1c0-0.4-0.1-0.6-0.3-0.8c-0.2-0.2-0.4-0.3-0.8-0.3
							c-0.4,0-0.7,0.1-0.9,0.3c-0.2,0.2-0.3,0.5-0.3,0.9h-0.7c0-0.6,0.2-1.1,0.6-1.4s0.8-0.5,1.3-0.5c0.6,0,1,0.2,1.3,0.5
							c0.3,0.3,0.5,0.7,0.5,1.3c0,0.5-0.1,0.9-0.4,1.3s-0.6,0.8-0.9,1.1c-0.3,0.3-0.8,0.7-1.3,1.1h2.8v0.6h-3.9v-0.5
							C161.3,188.9,161.9,188.4,162.2,188.1z"/>
						<path class="st5" d="M169.4,184.7l-2.3,5.3h-0.8l2.3-5.3h-3.2v-0.6h3.9V184.7z"/>
					</g>
					<g class="st4">
						<path class="st5" d="M185.7,188.1c0.4-0.4,0.7-0.7,1-1.1s0.4-0.8,0.4-1.1c0-0.4-0.1-0.6-0.3-0.8c-0.2-0.2-0.4-0.3-0.8-0.3
							c-0.4,0-0.7,0.1-0.9,0.3c-0.2,0.2-0.3,0.5-0.3,0.9h-0.7c0-0.6,0.2-1.1,0.6-1.4s0.8-0.5,1.3-0.5c0.6,0,1,0.2,1.3,0.5
							c0.3,0.3,0.5,0.7,0.5,1.3c0,0.5-0.1,0.9-0.4,1.3s-0.6,0.8-0.9,1.1c-0.3,0.3-0.8,0.7-1.3,1.1h2.8v0.6h-3.9v-0.5
							C184.8,188.9,185.3,188.4,185.7,188.1z"/>
						<path class="st5" d="M189.6,186.4c-0.2-0.2-0.2-0.5-0.2-0.8c0-0.3,0.1-0.6,0.2-0.8s0.4-0.4,0.7-0.6c0.3-0.1,0.6-0.2,1.1-0.2
							c0.4,0,0.8,0.1,1.1,0.2c0.3,0.1,0.5,0.3,0.7,0.6c0.1,0.2,0.2,0.5,0.2,0.8c0,0.3-0.1,0.6-0.3,0.8c-0.2,0.2-0.4,0.4-0.7,0.5
							c0.3,0.1,0.6,0.3,0.8,0.5s0.3,0.6,0.3,0.9c0,0.4-0.1,0.7-0.3,0.9c-0.2,0.3-0.4,0.5-0.7,0.6c-0.3,0.1-0.7,0.2-1.1,0.2
							c-0.4,0-0.8-0.1-1.1-0.2c-0.3-0.1-0.6-0.3-0.7-0.6c-0.2-0.3-0.3-0.6-0.3-0.9c0-0.4,0.1-0.7,0.3-0.9c0.2-0.3,0.5-0.4,0.8-0.5
							C190,186.8,189.7,186.7,189.6,186.4z M190.3,187.6c-0.3,0.2-0.4,0.5-0.4,0.8c0,0.3,0.1,0.6,0.4,0.8c0.2,0.2,0.6,0.3,1,0.3
							c0.4,0,0.8-0.1,1-0.3c0.2-0.2,0.4-0.5,0.4-0.8c0-0.4-0.1-0.6-0.4-0.8s-0.6-0.3-1-0.3C190.9,187.3,190.5,187.4,190.3,187.6z
							 M192.2,184.9c-0.2-0.2-0.5-0.3-0.9-0.3c-0.4,0-0.7,0.1-0.9,0.3s-0.3,0.4-0.3,0.8c0,0.3,0.1,0.5,0.3,0.7s0.5,0.3,0.9,0.3
							c0.4,0,0.7-0.1,0.9-0.3c0.2-0.2,0.3-0.4,0.3-0.7C192.5,185.4,192.4,185.1,192.2,184.9z"/>
					</g>
					<g class="st4">
						<path class="st5" d="M209.5,188.1c0.4-0.4,0.7-0.7,1-1.1s0.4-0.8,0.4-1.1c0-0.4-0.1-0.6-0.3-0.8c-0.2-0.2-0.4-0.3-0.8-0.3
							c-0.4,0-0.7,0.1-0.9,0.3c-0.2,0.2-0.3,0.5-0.3,0.9h-0.7c0-0.6,0.2-1.1,0.6-1.4s0.8-0.5,1.3-0.5c0.6,0,1,0.2,1.3,0.5
							c0.3,0.3,0.5,0.7,0.5,1.3c0,0.5-0.1,0.9-0.4,1.3s-0.6,0.8-0.9,1.1c-0.3,0.3-0.8,0.7-1.3,1.1h2.8v0.6h-3.9v-0.5
							C208.6,188.9,209.1,188.4,209.5,188.1z"/>
						<path class="st5" d="M214.3,189.2c0.2,0.2,0.5,0.3,0.8,0.3c0.5,0,0.8-0.2,1-0.5c0.2-0.4,0.3-1,0.3-1.8
							c-0.1,0.2-0.3,0.4-0.6,0.6c-0.3,0.1-0.6,0.2-0.9,0.2c-0.4,0-0.7-0.1-1-0.2c-0.3-0.2-0.5-0.4-0.7-0.7c-0.2-0.3-0.2-0.6-0.2-1
							c0-0.6,0.2-1.1,0.5-1.4c0.3-0.4,0.8-0.5,1.4-0.5c0.8,0,1.3,0.2,1.6,0.7c0.3,0.5,0.5,1.2,0.5,2.2c0,0.7-0.1,1.3-0.2,1.7
							c-0.1,0.4-0.3,0.8-0.6,1c-0.3,0.2-0.7,0.4-1.2,0.4c-0.6,0-1-0.1-1.3-0.4c-0.3-0.3-0.5-0.7-0.5-1.1h0.7
							C214,188.8,214.1,189,214.3,189.2z M216,186.9c0.2-0.2,0.4-0.5,0.4-0.9c0-0.4-0.1-0.7-0.3-1c-0.2-0.3-0.5-0.4-1-0.4
							c-0.4,0-0.7,0.1-0.9,0.4c-0.2,0.2-0.3,0.6-0.3,0.9c0,0.4,0.1,0.7,0.3,1c0.2,0.2,0.5,0.4,1,0.4
							C215.5,187.3,215.8,187.1,216,186.9z"/>
					</g>
					<g class="st4">
						<path class="st5" d="M232.3,184.4c0.3-0.3,0.8-0.4,1.4-0.4c0.4,0,0.7,0.1,1,0.2c0.3,0.1,0.5,0.3,0.6,0.5
							c0.1,0.2,0.2,0.5,0.2,0.8c0,0.3-0.1,0.6-0.3,0.9s-0.4,0.4-0.8,0.5v0c0.4,0.1,0.6,0.3,0.8,0.5c0.2,0.3,0.3,0.6,0.3,1
							c0,0.3-0.1,0.6-0.2,0.8c-0.1,0.2-0.4,0.4-0.6,0.6s-0.6,0.2-1,0.2c-0.6,0-1.1-0.2-1.4-0.5c-0.4-0.3-0.6-0.7-0.6-1.3h0.7
							c0,0.3,0.2,0.6,0.4,0.8s0.5,0.3,0.9,0.3c0.4,0,0.7-0.1,0.9-0.3c0.2-0.2,0.3-0.5,0.3-0.8c0-0.4-0.1-0.7-0.4-0.9
							c-0.3-0.2-0.7-0.3-1.2-0.3H233v-0.6h0.2c0.5,0,0.9-0.1,1.1-0.2c0.3-0.2,0.4-0.4,0.4-0.7c0-0.3-0.1-0.5-0.3-0.7
							c-0.2-0.2-0.5-0.3-0.8-0.3c-0.3,0-0.6,0.1-0.8,0.3c-0.2,0.2-0.3,0.4-0.4,0.7h-0.7C231.8,185.1,232,184.7,232.3,184.4z"/>
						<path class="st5" d="M237.3,184.8c0.3-0.5,0.8-0.8,1.6-0.8c0.8,0,1.3,0.3,1.6,0.8c0.3,0.5,0.5,1.3,0.5,2.2
							c0,1-0.2,1.7-0.5,2.2c-0.3,0.5-0.8,0.8-1.6,0.8c-0.8,0-1.3-0.3-1.6-0.8c-0.3-0.5-0.5-1.3-0.5-2.2
							C236.9,186.1,237,185.4,237.3,184.8z M240.2,185.8c-0.1-0.3-0.2-0.6-0.4-0.8c-0.2-0.2-0.5-0.3-0.8-0.3c-0.4,0-0.7,0.1-0.8,0.3
							c-0.2,0.2-0.3,0.5-0.4,0.8c-0.1,0.3-0.1,0.7-0.1,1.2c0,0.5,0,0.9,0.1,1.2c0.1,0.3,0.2,0.6,0.4,0.8s0.5,0.3,0.8,0.3
							c0.4,0,0.6-0.1,0.8-0.3s0.3-0.5,0.4-0.8s0.1-0.7,0.1-1.2C240.2,186.6,240.2,186.1,240.2,185.8z"/>
					</g>
					<g class="st4">
						<path class="st5" d="M257.4,184.4c0.3-0.3,0.8-0.4,1.4-0.4c0.4,0,0.7,0.1,1,0.2c0.3,0.1,0.5,0.3,0.6,0.5
							c0.1,0.2,0.2,0.5,0.2,0.8c0,0.3-0.1,0.6-0.3,0.9s-0.4,0.4-0.8,0.5v0c0.4,0.1,0.6,0.3,0.8,0.5c0.2,0.3,0.3,0.6,0.3,1
							c0,0.3-0.1,0.6-0.2,0.8c-0.1,0.2-0.4,0.4-0.6,0.6s-0.6,0.2-1,0.2c-0.6,0-1.1-0.2-1.4-0.5c-0.4-0.3-0.6-0.7-0.6-1.3h0.7
							c0,0.3,0.2,0.6,0.4,0.8s0.5,0.3,0.9,0.3c0.4,0,0.7-0.1,0.9-0.3c0.2-0.2,0.3-0.5,0.3-0.8c0-0.4-0.1-0.7-0.4-0.9
							s-0.7-0.3-1.2-0.3h-0.2v-0.6h0.2c0.5,0,0.9-0.1,1.1-0.2c0.3-0.2,0.4-0.4,0.4-0.7c0-0.3-0.1-0.5-0.3-0.7
							c-0.2-0.2-0.5-0.3-0.8-0.3c-0.3,0-0.6,0.1-0.8,0.3c-0.2,0.2-0.3,0.4-0.4,0.7h-0.7C256.8,185.1,257,184.7,257.4,184.4z"/>
						<path class="st5" d="M261.7,184.8v-0.7h1.5v5.9h-0.8v-5.2H261.7z"/>
					</g>
					<g class="st4">
						<path class="st5" d="M211.6,99.7V99h1.5v5.9h-0.8v-5.2H211.6z"/>
					</g>
					<g class="st4">
						<path class="st5" d="M236.1,103c0.4-0.4,0.7-0.7,1-1.1s0.4-0.8,0.4-1.1c0-0.4-0.1-0.6-0.3-0.8s-0.4-0.3-0.8-0.3
							c-0.4,0-0.7,0.1-0.9,0.3s-0.3,0.5-0.3,0.9h-0.7c0-0.6,0.2-1.1,0.6-1.4s0.8-0.5,1.3-0.5c0.6,0,1,0.2,1.3,0.5
							c0.3,0.3,0.5,0.7,0.5,1.3c0,0.5-0.1,0.9-0.4,1.3s-0.6,0.8-0.9,1.1c-0.3,0.3-0.8,0.7-1.3,1.1h2.8v0.6h-3.9v-0.5
							C235.1,103.8,235.7,103.3,236.1,103z"/>
					</g>
					<g class="st4">
						<path class="st5" d="M258.8,99.3c0.3-0.3,0.8-0.4,1.4-0.4c0.4,0,0.7,0.1,1,0.2c0.3,0.1,0.5,0.3,0.6,0.5
							c0.1,0.2,0.2,0.5,0.2,0.8c0,0.3-0.1,0.6-0.3,0.9s-0.4,0.4-0.8,0.5v0c0.4,0.1,0.6,0.3,0.8,0.5c0.2,0.3,0.3,0.6,0.3,1
							c0,0.3-0.1,0.6-0.2,0.8s-0.4,0.4-0.6,0.6s-0.6,0.2-1,0.2c-0.6,0-1.1-0.2-1.4-0.5c-0.4-0.3-0.6-0.7-0.6-1.3h0.7
							c0,0.3,0.2,0.6,0.4,0.8c0.2,0.2,0.5,0.3,0.9,0.3c0.4,0,0.7-0.1,0.9-0.3c0.2-0.2,0.3-0.5,0.3-0.8c0-0.4-0.1-0.7-0.4-0.9
							s-0.7-0.3-1.2-0.3h-0.2v-0.6h0.2c0.5,0,0.9-0.1,1.1-0.2c0.3-0.2,0.4-0.4,0.4-0.7c0-0.3-0.1-0.5-0.3-0.7
							c-0.2-0.2-0.5-0.3-0.8-0.3c-0.3,0-0.6,0.1-0.8,0.3c-0.2,0.2-0.3,0.4-0.4,0.7h-0.7C258.3,100,258.5,99.6,258.8,99.3z"/>
					</g>
					<g class="st6">
						<g class="st4">
							<path class="st5" d="M281.7,103.6v-0.6l2.9-4h0.9v3.9h0.8v0.6h-0.8v1.3h-0.7v-1.3H281.7z M284.8,99.9l-2.2,3.1h2.2V99.9z"/>
						</g>
					</g>
					<g class="st6">
						<g class="st4">
							<path class="st5" d="M309.5,99.7h-2.9v1.9c0.1-0.2,0.3-0.3,0.6-0.4c0.2-0.1,0.5-0.2,0.8-0.2c0.5,0,0.8,0.1,1.1,0.3
								c0.3,0.2,0.5,0.4,0.6,0.7c0.1,0.3,0.2,0.6,0.2,0.9c0,0.4-0.1,0.7-0.2,1.1c-0.1,0.3-0.4,0.6-0.7,0.7c-0.3,0.2-0.7,0.3-1.1,0.3
								c-0.6,0-1-0.1-1.4-0.4c-0.4-0.3-0.6-0.7-0.6-1.2h0.7c0.1,0.3,0.2,0.6,0.4,0.7c0.2,0.2,0.5,0.3,0.9,0.3c0.4,0,0.8-0.1,1-0.4
								s0.3-0.6,0.3-1s-0.1-0.8-0.3-1s-0.5-0.3-1-0.3c-0.3,0-0.5,0.1-0.8,0.2s-0.4,0.3-0.5,0.6h-0.7V99h3.6V99.7z"/>
						</g>
					</g>
				</g>
			</g>
			<g>
				<g>
					<g class="st4">
						<path class="st7" d="M182.2,59h-1.1l-4.5-6.8V59h-1.1v-8.6h1.1l4.5,6.8v-6.8h1.1V59z"/>
						<path class="st7" d="M185.8,58.7c-0.5-0.3-0.9-0.7-1.2-1.2c-0.3-0.5-0.4-1.1-0.4-1.8c0-0.7,0.1-1.3,0.4-1.8
							c0.3-0.5,0.7-0.9,1.2-1.2c0.5-0.3,1.1-0.4,1.7-0.4c0.6,0,1.2,0.1,1.7,0.4c0.5,0.3,0.9,0.7,1.2,1.2c0.3,0.5,0.4,1.1,0.4,1.8
							s-0.2,1.3-0.5,1.8c-0.3,0.5-0.7,0.9-1.2,1.2c-0.5,0.3-1.1,0.4-1.7,0.4C186.9,59.1,186.3,59,185.8,58.7z M188.7,57.9
							c0.4-0.2,0.6-0.5,0.9-0.8s0.3-0.8,0.3-1.4s-0.1-1-0.3-1.4c-0.2-0.4-0.5-0.7-0.8-0.8c-0.3-0.2-0.7-0.3-1.1-0.3
							c-0.4,0-0.8,0.1-1.1,0.3c-0.3,0.2-0.6,0.5-0.8,0.8c-0.2,0.4-0.3,0.8-0.3,1.4c0,0.5,0.1,1,0.3,1.4c0.2,0.4,0.5,0.7,0.8,0.8
							c0.3,0.2,0.7,0.3,1.1,0.3C187.9,58.2,188.3,58.1,188.7,57.9z"/>
						<path class="st7" d="M195.4,58l2.1-5.7h1.2l-2.6,6.7h-1.3l-2.6-6.7h1.2L195.4,58z"/>
						<path class="st7" d="M206.4,56.1H201c0,0.7,0.3,1.2,0.7,1.6s0.9,0.6,1.5,0.6c0.5,0,0.9-0.1,1.2-0.3c0.3-0.2,0.5-0.5,0.7-0.9
							h1.2c-0.2,0.6-0.5,1.2-1.1,1.6c-0.5,0.4-1.2,0.6-2,0.6c-0.6,0-1.2-0.1-1.7-0.4c-0.5-0.3-0.9-0.7-1.2-1.2
							c-0.3-0.5-0.4-1.1-0.4-1.8s0.1-1.3,0.4-1.8c0.3-0.5,0.7-0.9,1.2-1.2c0.5-0.3,1.1-0.4,1.7-0.4c0.6,0,1.2,0.1,1.7,0.4
							s0.9,0.7,1.1,1.1c0.3,0.5,0.4,1,0.4,1.6C206.4,55.6,206.4,55.8,206.4,56.1z M205,54.1c-0.2-0.3-0.4-0.5-0.8-0.7
							c-0.3-0.2-0.7-0.2-1.1-0.2c-0.6,0-1,0.2-1.4,0.5c-0.4,0.4-0.6,0.9-0.7,1.5h4.2C205.3,54.8,205.2,54.4,205,54.1z"/>
						<path class="st7" d="M217.9,52.5c0.4,0.2,0.7,0.5,1,1s0.4,1,0.4,1.6v4h-1.1v-3.8c0-0.7-0.2-1.2-0.5-1.5
							c-0.3-0.4-0.8-0.5-1.3-0.5c-0.6,0-1,0.2-1.4,0.6c-0.3,0.4-0.5,0.9-0.5,1.6V59h-1.1v-3.8c0-0.7-0.2-1.2-0.5-1.5
							c-0.3-0.4-0.8-0.5-1.3-0.5c-0.6,0-1,0.2-1.4,0.6c-0.3,0.4-0.5,0.9-0.5,1.6V59h-1.1v-6.7h1.1v1c0.2-0.4,0.5-0.6,0.9-0.8
							c0.4-0.2,0.8-0.3,1.2-0.3c0.6,0,1.1,0.1,1.5,0.4c0.4,0.3,0.8,0.6,1,1.1c0.2-0.5,0.5-0.8,0.9-1.1c0.4-0.3,0.9-0.4,1.4-0.4
							C217,52.2,217.5,52.3,217.9,52.5z"/>
						<path class="st7" d="M223.6,52.6c0.4-0.3,0.9-0.4,1.5-0.4c0.6,0,1.1,0.1,1.6,0.4c0.5,0.3,0.9,0.7,1.1,1.2
							c0.3,0.5,0.4,1.1,0.4,1.8c0,0.7-0.1,1.3-0.4,1.8c-0.3,0.5-0.7,0.9-1.1,1.2c-0.5,0.3-1,0.4-1.6,0.4c-0.6,0-1.1-0.1-1.5-0.4
							c-0.4-0.3-0.8-0.6-1-1V59h-1.1V50h1.1v3.6C222.8,53.2,223.2,52.8,223.6,52.6z M226.9,54.3c-0.2-0.4-0.5-0.7-0.8-0.9
							s-0.7-0.3-1.1-0.3c-0.4,0-0.8,0.1-1.1,0.3s-0.6,0.5-0.8,0.9c-0.2,0.4-0.3,0.8-0.3,1.3c0,0.5,0.1,1,0.3,1.3
							c0.2,0.4,0.5,0.7,0.8,0.9s0.7,0.3,1.1,0.3c0.4,0,0.8-0.1,1.1-0.3s0.6-0.5,0.8-0.9c0.2-0.4,0.3-0.8,0.3-1.3
							C227.2,55.1,227.1,54.7,226.9,54.3z"/>
						<path class="st7" d="M236.4,56.1H231c0,0.7,0.3,1.2,0.7,1.6s0.9,0.6,1.5,0.6c0.5,0,0.9-0.1,1.2-0.3c0.3-0.2,0.5-0.5,0.7-0.9
							h1.2c-0.2,0.6-0.5,1.2-1.1,1.6c-0.5,0.4-1.2,0.6-2,0.6c-0.6,0-1.2-0.1-1.7-0.4c-0.5-0.3-0.9-0.7-1.2-1.2
							c-0.3-0.5-0.4-1.1-0.4-1.8s0.1-1.3,0.4-1.8s0.7-0.9,1.2-1.2s1.1-0.4,1.7-0.4c0.6,0,1.2,0.1,1.7,0.4c0.5,0.3,0.9,0.7,1.1,1.1
							c0.3,0.5,0.4,1,0.4,1.6C236.4,55.6,236.4,55.8,236.4,56.1z M235,54.1c-0.2-0.3-0.4-0.5-0.8-0.7s-0.7-0.2-1.1-0.2
							c-0.6,0-1,0.2-1.4,0.5c-0.4,0.4-0.6,0.9-0.7,1.5h4.2C235.2,54.8,235.2,54.4,235,54.1z"/>
						<path class="st7" d="M240.3,52.5c0.4-0.2,0.8-0.3,1.3-0.3v1.2h-0.3c-1.3,0-1.9,0.7-1.9,2V59h-1.1v-6.7h1.1v1.1
							C239.7,53,239.9,52.7,240.3,52.5z"/>
					</g>
					<g class="st4">
						<path class="st7" d="M275.4,56.1c0.6-0.5,1.1-1.1,1.5-1.7s0.6-1.2,0.6-1.7c0-0.5-0.1-1-0.4-1.3s-0.7-0.5-1.2-0.5
							c-0.6,0-1,0.2-1.3,0.5s-0.5,0.8-0.5,1.4H273c0-0.9,0.3-1.6,0.8-2.1s1.2-0.7,2-0.7c0.8,0,1.5,0.2,2,0.7
							c0.5,0.5,0.7,1.1,0.7,1.9c0,0.7-0.2,1.3-0.6,2c-0.4,0.6-0.9,1.2-1.4,1.7c-0.5,0.5-1.2,1.1-2,1.7h4.2v0.9H273v-0.8
							C274,57.3,274.8,56.6,275.4,56.1z"/>
						<path class="st7" d="M281.3,51.2c0.5-0.8,1.3-1.2,2.4-1.2c1.1,0,1.9,0.4,2.4,1.2c0.5,0.8,0.7,1.9,0.7,3.3
							c0,1.4-0.2,2.5-0.7,3.3c-0.5,0.8-1.3,1.2-2.4,1.2c-1.1,0-1.9-0.4-2.4-1.2c-0.5-0.8-0.7-1.9-0.7-3.3
							C280.6,53.1,280.9,52,281.3,51.2z M285.6,52.7c-0.1-0.5-0.3-0.9-0.6-1.2c-0.3-0.3-0.7-0.5-1.3-0.5c-0.6,0-1,0.2-1.3,0.5
							c-0.3,0.3-0.5,0.7-0.6,1.2c-0.1,0.5-0.1,1.1-0.1,1.8c0,0.7,0,1.4,0.1,1.9s0.3,0.9,0.6,1.2c0.3,0.3,0.7,0.5,1.3,0.5
							c0.5,0,1-0.2,1.3-0.5c0.3-0.3,0.5-0.7,0.6-1.2c0.1-0.5,0.1-1.1,0.1-1.9C285.7,53.8,285.7,53.2,285.6,52.7z"/>
						<path class="st7" d="M291.1,56.1c0.6-0.5,1.1-1.1,1.5-1.7s0.6-1.2,0.6-1.7c0-0.5-0.1-1-0.4-1.3s-0.7-0.5-1.2-0.5
							c-0.6,0-1,0.2-1.3,0.5s-0.5,0.8-0.5,1.4h-1.1c0-0.9,0.3-1.6,0.8-2.1s1.2-0.7,2-0.7c0.8,0,1.5,0.2,2,0.7
							c0.5,0.5,0.7,1.1,0.7,1.9c0,0.7-0.2,1.3-0.6,2c-0.4,0.6-0.9,1.2-1.4,1.7c-0.5,0.5-1.2,1.1-2,1.7h4.2v0.9h-5.9v-0.8
							C289.7,57.3,290.5,56.6,291.1,56.1z"/>
						<path class="st7" d="M298.7,56.1c0.6-0.5,1.1-1.1,1.5-1.7c0.4-0.6,0.6-1.2,0.6-1.7c0-0.5-0.1-1-0.4-1.3
							c-0.3-0.3-0.7-0.5-1.2-0.5c-0.6,0-1,0.2-1.3,0.5s-0.5,0.8-0.5,1.4h-1.1c0-0.9,0.3-1.6,0.8-2.1c0.5-0.5,1.2-0.7,2-0.7
							c0.8,0,1.5,0.2,2,0.7c0.5,0.5,0.7,1.1,0.7,1.9c0,0.7-0.2,1.3-0.6,2c-0.4,0.6-0.9,1.2-1.4,1.7c-0.5,0.5-1.2,1.1-2,1.7h4.2v0.9
							h-5.9v-0.8C297.3,57.3,298.1,56.6,298.7,56.1z"/>
					</g>
				</g>
				<g>
					<polyline class="st8" points="307.2,52.3 310.2,55.2 307.2,58.2 					"/>
					<polyline class="st8" points="250.7,52.3 253.7,55.2 250.7,58.2 					"/>
					<polyline class="st8" points="264.2,58.2 261.2,55.2 264.2,52.3 					"/>
					<polyline class="st8" points="166.9,58.2 163.9,55.2 166.9,52.3 					"/>
				</g>
			</g>
		</g>
	</g>
	<g>
		<g>
			<path class="st7" d="M422.4,24.2H298.3V0h124.2c1.8,0,3.2,1.5,3.2,3.2V21C425.6,22.8,424.2,24.2,422.4,24.2L422.4,24.2z"/>
			<g>
				<g class="st4">
					<path class="st9" d="M310.7,14.7h2.4v0.7h-3.3V8.6h0.9V14.7z"/>
					<path class="st9" d="M315.4,15.2c-0.4-0.2-0.7-0.6-1-1c-0.2-0.4-0.3-0.9-0.3-1.5c0-0.5,0.1-1,0.4-1.5c0.2-0.4,0.6-0.7,1-1
						c0.4-0.2,0.9-0.3,1.4-0.3s1,0.1,1.4,0.3c0.4,0.2,0.7,0.5,1,1c0.2,0.4,0.4,0.9,0.4,1.5c0,0.6-0.1,1-0.4,1.5
						c-0.2,0.4-0.6,0.7-1,1c-0.4,0.2-0.9,0.3-1.4,0.3C316.2,15.5,315.8,15.4,315.4,15.2z M317.6,14.5c0.3-0.2,0.5-0.4,0.7-0.7
						s0.3-0.7,0.3-1.1s-0.1-0.8-0.3-1.1c-0.2-0.3-0.4-0.5-0.7-0.7c-0.3-0.1-0.6-0.2-0.9-0.2c-0.3,0-0.6,0.1-0.9,0.2
						c-0.3,0.1-0.5,0.4-0.7,0.7c-0.2,0.3-0.2,0.7-0.2,1.1c0,0.4,0.1,0.8,0.2,1.1c0.2,0.3,0.4,0.5,0.6,0.7c0.3,0.1,0.6,0.2,0.9,0.2
						S317.3,14.7,317.6,14.5z"/>
					<path class="st9" d="M324.5,10.3c0.3,0.2,0.6,0.5,0.8,0.8v-1h0.9v5.5c0,0.5-0.1,0.9-0.3,1.3c-0.2,0.4-0.5,0.7-0.9,0.9
						c-0.4,0.2-0.8,0.3-1.4,0.3c-0.7,0-1.3-0.2-1.8-0.5c-0.5-0.3-0.7-0.8-0.8-1.4h0.9c0.1,0.3,0.3,0.6,0.6,0.8
						c0.3,0.2,0.7,0.3,1.1,0.3c0.5,0,0.9-0.2,1.2-0.5s0.5-0.7,0.5-1.3v-1.1c-0.2,0.3-0.4,0.6-0.8,0.8c-0.3,0.2-0.8,0.3-1.2,0.3
						c-0.5,0-0.9-0.1-1.3-0.4c-0.4-0.2-0.7-0.6-0.9-1s-0.3-0.9-0.3-1.4c0-0.5,0.1-1,0.3-1.4s0.5-0.7,0.9-1c0.4-0.2,0.8-0.3,1.3-0.3
						C323.7,10,324.1,10.1,324.5,10.3z M325,11.7c-0.2-0.3-0.4-0.5-0.7-0.7c-0.3-0.2-0.6-0.2-0.9-0.2c-0.3,0-0.6,0.1-0.9,0.2
						c-0.3,0.2-0.5,0.4-0.7,0.7c-0.2,0.3-0.2,0.7-0.2,1.1c0,0.4,0.1,0.8,0.2,1.1c0.2,0.3,0.4,0.5,0.7,0.7c0.3,0.2,0.6,0.2,0.9,0.2
						c0.3,0,0.6-0.1,0.9-0.2c0.3-0.2,0.5-0.4,0.7-0.7c0.2-0.3,0.2-0.7,0.2-1.1S325.2,12,325,11.7z"/>
					<path class="st9" d="M328.1,9c-0.1-0.1-0.2-0.3-0.2-0.4c0-0.2,0.1-0.3,0.2-0.4s0.3-0.2,0.4-0.2c0.2,0,0.3,0.1,0.4,0.2
						s0.2,0.3,0.2,0.4c0,0.2-0.1,0.3-0.2,0.4c-0.1,0.1-0.3,0.2-0.4,0.2C328.3,9.2,328.2,9.2,328.1,9z M328.9,10.1v5.4H328v-5.4
						H328.9z"/>
					<path class="st9" d="M335,10.6c0.4,0.4,0.6,1,0.6,1.7v3.2h-0.9v-3c0-0.5-0.1-0.9-0.4-1.2c-0.3-0.3-0.6-0.4-1.1-0.4
						c-0.5,0-0.8,0.1-1.1,0.4c-0.3,0.3-0.4,0.7-0.4,1.3v3h-0.9v-5.4h0.9v0.8c0.2-0.3,0.4-0.5,0.7-0.6c0.3-0.1,0.6-0.2,1-0.2
						C334.1,10,334.6,10.2,335,10.6z"/>
				</g>
				<polyline class="st10" points="411.9,7.6 416.4,12.1 411.9,16.6 				"/>
			</g>
		</g>
		<g>
			<path class="st1" d="M296.6,24.2h-21c-1.8,0-3.2-1.4-3.2-3.2V3.2c0-1.8,1.5-3.2,3.2-3.2h21V24.2L296.6,24.2z"/>
			<g>
				<path class="st11" d="M287.3,9.6c0,1.5-1.2,2.7-2.7,2.7s-2.7-1.2-2.7-2.7s1.2-2.7,2.7-2.7S287.3,8.1,287.3,9.6z"/>
				<path class="st11" d="M287.6,13c-0.8,0.8-1.9,1.2-3,1.2s-2.3-0.5-3.1-1.3c-1.3,1-2.3,2.6-2.7,4.4h11.5
					C289.9,15.5,288.9,14,287.6,13L287.6,13z"/>
			</g>
		</g>
	</g>
	<g>
		<g>
			<path class="st7" d="M423.6,57.1H299.4V32.9h124.2c1.8,0,3.2,1.5,3.2,3.2v17.7C426.8,55.7,425.3,57.1,423.6,57.1L423.6,57.1z"/>
			<g>
				<g class="st4">
					<path class="st9" d="M314.9,45c-0.4,0.4-1,0.6-1.8,0.6h-1.3v2.8h-0.9v-6.8h2.2c0.8,0,1.4,0.2,1.8,0.6c0.4,0.4,0.6,0.9,0.6,1.4
						C315.5,44.1,315.3,44.6,314.9,45z M314.2,44.5c0.2-0.2,0.4-0.5,0.4-0.9c0-0.8-0.5-1.3-1.4-1.3h-1.3v2.5h1.3
						C313.6,44.8,314,44.7,314.2,44.5z"/>
					<path class="st9" d="M316.9,44.2c0.2-0.4,0.5-0.7,0.9-1c0.4-0.2,0.8-0.3,1.3-0.3c0.5,0,0.9,0.1,1.2,0.3
						c0.3,0.2,0.6,0.5,0.8,0.8v-1h0.9v5.4h-0.9v-1c-0.2,0.3-0.4,0.6-0.8,0.8c-0.3,0.2-0.8,0.3-1.2,0.3c-0.5,0-0.9-0.1-1.3-0.4
						c-0.4-0.2-0.7-0.6-0.9-1s-0.3-0.9-0.3-1.4C316.6,45.1,316.7,44.6,316.9,44.2z M320.9,44.6c-0.2-0.3-0.4-0.5-0.7-0.7
						c-0.3-0.2-0.6-0.2-0.9-0.2c-0.3,0-0.6,0.1-0.9,0.2c-0.3,0.2-0.5,0.4-0.7,0.7c-0.2,0.3-0.2,0.7-0.2,1.1c0,0.4,0.1,0.8,0.2,1.1
						c0.2,0.3,0.4,0.5,0.7,0.7c0.3,0.2,0.6,0.2,0.9,0.2c0.3,0,0.6-0.1,0.9-0.2c0.3-0.2,0.5-0.4,0.7-0.7c0.2-0.3,0.2-0.7,0.2-1.1
						S321.1,44.9,320.9,44.6z"/>
					<path class="st9" d="M324.7,48.2c-0.3-0.1-0.6-0.3-0.8-0.6c-0.2-0.3-0.3-0.5-0.3-0.9h0.9c0,0.3,0.2,0.5,0.4,0.7
						c0.2,0.2,0.5,0.3,0.9,0.3c0.3,0,0.6-0.1,0.8-0.2c0.2-0.2,0.3-0.3,0.3-0.6c0-0.2-0.1-0.4-0.3-0.5c-0.2-0.1-0.5-0.2-1-0.3
						c-0.4-0.1-0.7-0.2-1-0.3s-0.5-0.3-0.6-0.5s-0.3-0.5-0.3-0.8c0-0.3,0.1-0.5,0.2-0.8s0.4-0.4,0.7-0.5s0.6-0.2,1-0.2
						c0.6,0,1.1,0.1,1.4,0.4c0.4,0.3,0.6,0.7,0.6,1.2h-0.9c0-0.3-0.1-0.5-0.3-0.7c-0.2-0.2-0.5-0.3-0.8-0.3c-0.3,0-0.6,0.1-0.8,0.2
						c-0.2,0.1-0.3,0.3-0.3,0.5c0,0.2,0.1,0.3,0.2,0.4s0.3,0.2,0.4,0.3s0.4,0.1,0.7,0.2c0.4,0.1,0.7,0.2,0.9,0.3s0.4,0.3,0.6,0.5
						s0.3,0.5,0.3,0.8c0,0.3-0.1,0.6-0.2,0.8s-0.4,0.4-0.7,0.6s-0.6,0.2-1,0.2C325.4,48.4,325.1,48.4,324.7,48.2z"/>
					<path class="st9" d="M330.2,48.2c-0.3-0.1-0.6-0.3-0.8-0.6c-0.2-0.3-0.3-0.5-0.3-0.9h0.9c0,0.3,0.2,0.5,0.4,0.7
						c0.2,0.2,0.5,0.3,0.9,0.3c0.3,0,0.6-0.1,0.8-0.2c0.2-0.2,0.3-0.3,0.3-0.6c0-0.2-0.1-0.4-0.3-0.5c-0.2-0.1-0.5-0.2-1-0.3
						c-0.4-0.1-0.7-0.2-1-0.3s-0.5-0.3-0.6-0.5s-0.3-0.5-0.3-0.8c0-0.3,0.1-0.5,0.2-0.8s0.4-0.4,0.7-0.5s0.6-0.2,1-0.2
						c0.6,0,1.1,0.1,1.4,0.4c0.4,0.3,0.6,0.7,0.6,1.2h-0.9c0-0.3-0.1-0.5-0.3-0.7c-0.2-0.2-0.5-0.3-0.8-0.3c-0.3,0-0.6,0.1-0.8,0.2
						c-0.2,0.1-0.3,0.3-0.3,0.5c0,0.2,0.1,0.3,0.2,0.4s0.3,0.2,0.4,0.3s0.4,0.1,0.7,0.2c0.4,0.1,0.7,0.2,0.9,0.3s0.4,0.3,0.6,0.5
						s0.3,0.5,0.3,0.8c0,0.3-0.1,0.6-0.2,0.8s-0.4,0.4-0.7,0.6s-0.6,0.2-1,0.2C330.9,48.4,330.6,48.4,330.2,48.2z"/>
					<path class="st9" d="M342.1,43l-1.7,5.4h-0.9l-1.3-4.3l-1.3,4.3H336l-1.7-5.4h0.9l1.2,4.5l1.3-4.5h0.9l1.3,4.5l1.2-4.5H342.1z"
						/>
					<path class="st9" d="M344.3,48.1c-0.4-0.2-0.7-0.6-1-1c-0.2-0.4-0.3-0.9-0.3-1.5c0-0.5,0.1-1,0.4-1.5c0.2-0.4,0.6-0.7,1-1
						c0.4-0.2,0.9-0.3,1.4-0.3c0.5,0,1,0.1,1.4,0.3c0.4,0.2,0.7,0.5,1,1s0.4,0.9,0.4,1.5c0,0.6-0.1,1-0.4,1.5c-0.2,0.4-0.6,0.7-1,1
						c-0.4,0.2-0.9,0.3-1.4,0.3C345.2,48.4,344.7,48.3,344.3,48.1z M346.6,47.4c0.3-0.2,0.5-0.4,0.7-0.7s0.3-0.7,0.3-1.1
						s-0.1-0.8-0.3-1.1c-0.2-0.3-0.4-0.5-0.7-0.7c-0.3-0.1-0.6-0.2-0.9-0.2c-0.3,0-0.6,0.1-0.9,0.2c-0.3,0.1-0.5,0.4-0.7,0.7
						s-0.2,0.7-0.2,1.1c0,0.4,0.1,0.8,0.2,1.1s0.4,0.5,0.6,0.7c0.3,0.1,0.6,0.2,0.9,0.2S346.3,47.6,346.6,47.4z"/>
					<path class="st9" d="M351.6,43.2c0.3-0.2,0.6-0.3,1.1-0.3v0.9h-0.2c-1,0-1.5,0.5-1.5,1.6v2.9H350V43h0.9v0.9
						C351,43.6,351.3,43.3,351.6,43.2z"/>
					<path class="st9" d="M354,44.2c0.2-0.4,0.5-0.7,0.9-1c0.4-0.2,0.8-0.3,1.3-0.3c0.4,0,0.8,0.1,1.2,0.3s0.6,0.4,0.8,0.8v-2.8h0.9
						v7.2h-0.9v-1c-0.2,0.3-0.4,0.6-0.8,0.8c-0.3,0.2-0.8,0.3-1.2,0.3c-0.5,0-0.9-0.1-1.3-0.4c-0.4-0.2-0.7-0.6-0.9-1
						s-0.3-0.9-0.3-1.4C353.7,45.1,353.8,44.6,354,44.2z M358,44.6c-0.2-0.3-0.4-0.5-0.7-0.7c-0.3-0.2-0.6-0.2-0.9-0.2
						c-0.3,0-0.6,0.1-0.9,0.2c-0.3,0.2-0.5,0.4-0.7,0.7c-0.2,0.3-0.2,0.7-0.2,1.1c0,0.4,0.1,0.8,0.2,1.1c0.2,0.3,0.4,0.5,0.7,0.7
						c0.3,0.2,0.6,0.2,0.9,0.2c0.3,0,0.6-0.1,0.9-0.2c0.3-0.2,0.5-0.4,0.7-0.7c0.2-0.3,0.2-0.7,0.2-1.1S358.2,44.9,358,44.6z"/>
				</g>
				<polyline class="st8" points="413,40.5 417.5,45 413,49.5 				"/>
			</g>
		</g>
		<g>
			<path class="st3" d="M297.8,57.1h-21c-1.8,0-3.2-1.5-3.2-3.2V36.1c0-1.8,1.5-3.2,3.2-3.2h21L297.8,57.1L297.8,57.1L297.8,57.1z"
				/>
			<g>
				<path class="st11" d="M282.3,44h6.7c0.5,0,1,0.4,1,1v5.2c0,0.5-0.4,1-1,1h-6.7c-0.5,0-1-0.4-1-1v-5.2
					C281.4,44.4,281.8,44,282.3,44z"/>
				<path class="st11" d="M288.6,44h-5.8v-2.1c0-1.6,1.3-2.9,2.9-2.9l0,0c1.6,0,2.9,1.3,2.9,2.9L288.6,44L288.6,44z"/>
				<line class="st11" x1="284.3" y1="47.5" x2="287.1" y2="47.5"/>
			</g>
		</g>
	</g>
	<g>
		<g>
			<path class="st1" d="M1.5,167.8h62.1c0.8,0,1.5,0.7,1.5,1.5v11.3c0,0.8-0.7,1.5-1.5,1.5H1.5c-0.8,0-1.5-0.7-1.5-1.5v-11.3
				C0,168.5,0.7,167.8,1.5,167.8z"/>
			<g>
				<g class="st4">
					<path class="st5" d="M16.9,174.4l-0.2,1.1h0.8v0.5h-0.9l-0.3,1.2h-0.5L16,176h-1.3l-0.3,1.2H14l0.3-1.2h-1v-0.5h1.1l0.2-1.1
						h-0.9v-0.5h1l0.3-1.2h0.5l-0.3,1.2h1.3l0.3-1.2h0.5l-0.3,1.2h0.8v0.5H16.9z M16.4,174.4h-1.3l-0.2,1.1h1.3L16.4,174.4z"/>
					<path class="st5" d="M19.4,176.8h1.5v0.4h-2V173h0.6V176.8z"/>
					<path class="st5" d="M22.3,177.1c-0.3-0.1-0.5-0.3-0.6-0.6s-0.2-0.6-0.2-0.9c0-0.3,0.1-0.6,0.2-0.9c0.1-0.3,0.3-0.5,0.6-0.6
						s0.5-0.2,0.9-0.2s0.6,0.1,0.9,0.2s0.5,0.3,0.6,0.6c0.1,0.3,0.2,0.6,0.2,0.9s-0.1,0.6-0.2,0.9c-0.2,0.3-0.4,0.5-0.6,0.6
						c-0.3,0.1-0.5,0.2-0.9,0.2C22.9,177.3,22.6,177.2,22.3,177.1z M23.8,176.6c0.2-0.1,0.3-0.2,0.4-0.4c0.1-0.2,0.2-0.4,0.2-0.7
						c0-0.3-0.1-0.5-0.2-0.7c-0.1-0.2-0.2-0.3-0.4-0.4s-0.4-0.1-0.6-0.1c-0.2,0-0.4,0-0.6,0.1s-0.3,0.2-0.4,0.4
						c-0.1,0.2-0.2,0.4-0.2,0.7c0,0.3,0,0.5,0.1,0.7c0.1,0.2,0.2,0.3,0.4,0.4c0.2,0.1,0.3,0.1,0.5,0.1S23.6,176.7,23.8,176.6z"/>
					<path class="st5" d="M26.8,174c0.2-0.1,0.4-0.2,0.7-0.2v0.6h-0.1c-0.6,0-0.9,0.3-0.9,1v1.8h-0.6v-3.3h0.6v0.5
						C26.5,174.2,26.7,174.1,26.8,174z"/>
					<path class="st5" d="M31.4,175.8h-2.7c0,0.3,0.1,0.6,0.3,0.8c0.2,0.2,0.5,0.3,0.7,0.3c0.2,0,0.4-0.1,0.6-0.2
						c0.2-0.1,0.3-0.3,0.3-0.4h0.6c-0.1,0.3-0.3,0.6-0.5,0.8s-0.6,0.3-1,0.3c-0.3,0-0.6-0.1-0.8-0.2c-0.2-0.1-0.4-0.3-0.6-0.6
						c-0.1-0.3-0.2-0.6-0.2-0.9s0.1-0.6,0.2-0.9c0.1-0.3,0.3-0.5,0.6-0.6c0.2-0.1,0.5-0.2,0.9-0.2c0.3,0,0.6,0.1,0.8,0.2
						s0.4,0.3,0.6,0.6c0.1,0.2,0.2,0.5,0.2,0.8C31.4,175.5,31.4,175.6,31.4,175.8z M30.7,174.8c-0.1-0.2-0.2-0.3-0.4-0.3
						c-0.2-0.1-0.3-0.1-0.5-0.1c-0.3,0-0.5,0.1-0.7,0.3s-0.3,0.4-0.3,0.7h2.1C30.8,175.1,30.8,174.9,30.7,174.8z"/>
					<path class="st5" d="M37.1,174c0.2,0.1,0.4,0.3,0.5,0.5c0.1,0.2,0.2,0.5,0.2,0.8v2h-0.5v-1.9c0-0.3-0.1-0.6-0.2-0.8
						s-0.4-0.3-0.7-0.3c-0.3,0-0.5,0.1-0.7,0.3c-0.2,0.2-0.3,0.5-0.3,0.8v1.8h-0.5v-1.9c0-0.3-0.1-0.6-0.2-0.8
						c-0.2-0.2-0.4-0.3-0.7-0.3c-0.3,0-0.5,0.1-0.7,0.3c-0.2,0.2-0.3,0.5-0.3,0.8v1.8h-0.6v-3.3h0.6v0.5c0.1-0.2,0.3-0.3,0.4-0.4
						c0.2-0.1,0.4-0.1,0.6-0.1c0.3,0,0.5,0.1,0.7,0.2c0.2,0.1,0.4,0.3,0.5,0.6c0.1-0.2,0.2-0.4,0.5-0.5c0.2-0.1,0.5-0.2,0.7-0.2
						C36.6,173.8,36.9,173.9,37.1,174z"/>
					<path class="st5" d="M41.3,173v4.2h-0.6V173H41.3z"/>
					<path class="st5" d="M43.5,174c0.2-0.1,0.5-0.2,0.8-0.2c0.3,0,0.6,0.1,0.8,0.2c0.2,0.1,0.4,0.3,0.6,0.6
						c0.1,0.3,0.2,0.6,0.2,0.9c0,0.3-0.1,0.6-0.2,0.9c-0.1,0.3-0.3,0.5-0.6,0.6s-0.5,0.2-0.8,0.2c-0.3,0-0.5-0.1-0.7-0.2
						c-0.2-0.1-0.4-0.3-0.5-0.5v2.2h-0.6v-4.9H43v0.6C43.1,174.3,43.3,174.1,43.5,174z M45.1,174.9c-0.1-0.2-0.2-0.3-0.4-0.4
						c-0.2-0.1-0.4-0.1-0.6-0.1c-0.2,0-0.4,0-0.6,0.1c-0.2,0.1-0.3,0.2-0.4,0.4c-0.1,0.2-0.2,0.4-0.2,0.7c0,0.3,0.1,0.5,0.2,0.7
						c0.1,0.2,0.2,0.3,0.4,0.4c0.2,0.1,0.4,0.1,0.6,0.1c0.2,0,0.4,0,0.6-0.1c0.2-0.1,0.3-0.2,0.4-0.4s0.2-0.4,0.2-0.7
						C45.3,175.3,45.2,175.1,45.1,174.9z"/>
					<path class="st5" d="M47.3,177.1c-0.2-0.1-0.4-0.2-0.5-0.4c-0.1-0.2-0.2-0.3-0.2-0.5h0.6c0,0.2,0.1,0.3,0.2,0.4
						c0.1,0.1,0.3,0.2,0.5,0.2c0.2,0,0.4,0,0.5-0.1c0.1-0.1,0.2-0.2,0.2-0.4c0-0.1-0.1-0.3-0.2-0.3c-0.1-0.1-0.3-0.1-0.6-0.2
						c-0.2-0.1-0.4-0.1-0.6-0.2s-0.3-0.2-0.4-0.3c-0.1-0.1-0.2-0.3-0.2-0.5c0-0.2,0.1-0.3,0.2-0.5s0.2-0.3,0.4-0.3
						c0.2-0.1,0.4-0.1,0.6-0.1c0.4,0,0.7,0.1,0.9,0.3c0.2,0.2,0.3,0.4,0.4,0.8h-0.6c0-0.2-0.1-0.3-0.2-0.4s-0.3-0.2-0.5-0.2
						c-0.2,0-0.4,0-0.5,0.1c-0.1,0.1-0.2,0.2-0.2,0.3c0,0.1,0,0.2,0.1,0.3c0.1,0.1,0.2,0.1,0.3,0.2c0.1,0,0.3,0.1,0.4,0.1
						c0.2,0.1,0.4,0.1,0.6,0.2c0.1,0.1,0.3,0.2,0.4,0.3c0.1,0.1,0.2,0.3,0.2,0.5c0,0.2-0.1,0.3-0.2,0.5c-0.1,0.1-0.2,0.3-0.4,0.3
						c-0.2,0.1-0.4,0.1-0.6,0.1C47.7,177.3,47.5,177.2,47.3,177.1z"/>
					<path class="st5" d="M53.2,173.9v3.3h-0.6v-0.5c-0.1,0.2-0.3,0.3-0.4,0.4c-0.2,0.1-0.4,0.1-0.6,0.1c-0.3,0-0.5-0.1-0.7-0.2
						c-0.2-0.1-0.4-0.3-0.5-0.5c-0.1-0.2-0.2-0.5-0.2-0.8v-1.9h0.5v1.9c0,0.3,0.1,0.6,0.2,0.8c0.2,0.2,0.4,0.3,0.7,0.3
						c0.3,0,0.5-0.1,0.7-0.3c0.2-0.2,0.3-0.4,0.3-0.8v-1.8H53.2z"/>
					<path class="st5" d="M59.1,174c0.2,0.1,0.4,0.3,0.5,0.5c0.1,0.2,0.2,0.5,0.2,0.8v2h-0.5v-1.9c0-0.3-0.1-0.6-0.2-0.8
						s-0.4-0.3-0.7-0.3c-0.3,0-0.5,0.1-0.7,0.3c-0.2,0.2-0.3,0.5-0.3,0.8v1.8h-0.5v-1.9c0-0.3-0.1-0.6-0.2-0.8
						c-0.2-0.2-0.4-0.3-0.7-0.3c-0.3,0-0.5,0.1-0.7,0.3c-0.2,0.2-0.3,0.5-0.3,0.8v1.8h-0.6v-3.3h0.6v0.5c0.1-0.2,0.3-0.3,0.4-0.4
						c0.2-0.1,0.4-0.1,0.6-0.1c0.3,0,0.5,0.1,0.7,0.2c0.2,0.1,0.4,0.3,0.5,0.6c0.1-0.2,0.2-0.4,0.5-0.5c0.2-0.1,0.5-0.2,0.7-0.2
						C58.6,173.8,58.9,173.9,59.1,174z"/>
				</g>
				<g>
					<path class="st3" d="M3.7,170.8h6.8c0.4,0,0.8,0.3,0.8,0.8v6.8c0,0.4-0.3,0.8-0.8,0.8H3.7c-0.4,0-0.8-0.3-0.8-0.8v-6.8
						C3,171.1,3.3,170.8,3.7,170.8z"/>
					<path class="st5" d="M7.6,175l1.1-1.1c0.1-0.1,0.1-0.3,0-0.4s-0.3-0.1-0.4,0l-1.1,1.1L6,173.5c-0.1-0.1-0.3-0.1-0.4,0
						s-0.1,0.3,0,0.4l1.1,1.1l-1.1,1.1c-0.1,0.1-0.1,0.3,0,0.4c0.1,0.1,0.1,0.1,0.2,0.1s0.2,0,0.2-0.1l1.1-1.1l1.1,1.1
						c0.1,0.1,0.1,0.1,0.2,0.1s0.1,0,0.2-0.1c0.1-0.1,0.1-0.3,0-0.4L7.6,175L7.6,175z"/>
				</g>
			</g>
		</g>
		<g>
			<path class="st7" d="M1.5,191.8H66c0.8,0,1.5,0.7,1.5,1.5v11.3c0,0.8-0.7,1.5-1.5,1.5H1.5c-0.8,0-1.5-0.7-1.5-1.5v-11.3
				C0,192.4,0.7,191.8,1.5,191.8z"/>
			<g>
				<g class="st4">
					<path class="st1" d="M16.9,198.3l-0.2,1.1h0.8v0.5h-0.9l-0.3,1.2h-0.5l0.3-1.2h-1.3l-0.3,1.2H14l0.3-1.2h-1v-0.5h1.1l0.2-1.1
						h-0.9v-0.5h1l0.3-1.2h0.5l-0.3,1.2h1.3l0.3-1.2h0.5l-0.3,1.2h0.8v0.5H16.9z M16.4,198.3h-1.3l-0.2,1.1h1.3L16.4,198.3z"/>
					<path class="st1" d="M19,197.9c0.2-0.3,0.4-0.6,0.8-0.8c0.3-0.2,0.7-0.3,1.1-0.3c0.5,0,0.9,0.1,1.2,0.3
						c0.3,0.2,0.6,0.5,0.8,0.9h-0.7c-0.1-0.3-0.3-0.5-0.5-0.6s-0.5-0.2-0.8-0.2c-0.3,0-0.6,0.1-0.8,0.2s-0.4,0.3-0.6,0.6
						c-0.1,0.3-0.2,0.5-0.2,0.9c0,0.3,0.1,0.6,0.2,0.9c0.1,0.3,0.3,0.4,0.6,0.6s0.5,0.2,0.8,0.2c0.3,0,0.6-0.1,0.8-0.2
						s0.4-0.3,0.5-0.6h0.7c-0.2,0.4-0.4,0.7-0.8,0.9c-0.3,0.2-0.7,0.3-1.2,0.3c-0.4,0-0.8-0.1-1.1-0.3c-0.3-0.2-0.6-0.4-0.8-0.8
						c-0.2-0.3-0.3-0.7-0.3-1.1C18.7,198.6,18.8,198.2,19,197.9z"/>
					<path class="st1" d="M24.4,201c-0.3-0.1-0.5-0.3-0.6-0.6s-0.2-0.6-0.2-0.9c0-0.3,0.1-0.6,0.2-0.9c0.1-0.3,0.3-0.5,0.6-0.6
						s0.5-0.2,0.9-0.2s0.6,0.1,0.9,0.2s0.5,0.3,0.6,0.6c0.1,0.3,0.2,0.6,0.2,0.9s-0.1,0.6-0.2,0.9c-0.2,0.3-0.4,0.5-0.6,0.6
						c-0.3,0.1-0.5,0.2-0.9,0.2C24.9,201.2,24.7,201.1,24.4,201z M25.8,200.6c0.2-0.1,0.3-0.2,0.4-0.4c0.1-0.2,0.2-0.4,0.2-0.7
						c0-0.3-0.1-0.5-0.2-0.7c-0.1-0.2-0.2-0.3-0.4-0.4s-0.4-0.1-0.6-0.1c-0.2,0-0.4,0-0.6,0.1s-0.3,0.2-0.4,0.4
						c-0.1,0.2-0.2,0.4-0.2,0.7c0,0.3,0,0.5,0.1,0.7c0.1,0.2,0.2,0.3,0.4,0.4c0.2,0.1,0.3,0.1,0.5,0.1S25.6,200.7,25.8,200.6z"/>
					<path class="st1" d="M30.5,198.1c0.3,0.2,0.4,0.6,0.4,1.1v2h-0.5v-1.9c0-0.3-0.1-0.6-0.2-0.8c-0.2-0.2-0.4-0.3-0.7-0.3
						c-0.3,0-0.5,0.1-0.7,0.3c-0.2,0.2-0.3,0.4-0.3,0.8v1.8h-0.6v-3.3h0.6v0.5c0.1-0.2,0.3-0.3,0.4-0.4c0.2-0.1,0.4-0.1,0.6-0.1
						C30,197.8,30.3,197.9,30.5,198.1z"/>
					<path class="st1" d="M32.6,201.1c-0.2-0.1-0.4-0.2-0.5-0.4c-0.1-0.2-0.2-0.3-0.2-0.5h0.6c0,0.2,0.1,0.3,0.2,0.4
						c0.1,0.1,0.3,0.2,0.5,0.2c0.2,0,0.4,0,0.5-0.1c0.1-0.1,0.2-0.2,0.2-0.4c0-0.1-0.1-0.3-0.2-0.3c-0.1-0.1-0.3-0.1-0.6-0.2
						c-0.2-0.1-0.4-0.1-0.6-0.2s-0.3-0.2-0.4-0.3c-0.1-0.1-0.2-0.3-0.2-0.5c0-0.2,0.1-0.3,0.2-0.5s0.2-0.3,0.4-0.3
						c0.2-0.1,0.4-0.1,0.6-0.1c0.4,0,0.7,0.1,0.9,0.3c0.2,0.2,0.3,0.4,0.4,0.8h-0.6c0-0.2-0.1-0.3-0.2-0.4s-0.3-0.2-0.5-0.2
						c-0.2,0-0.4,0-0.5,0.1c-0.1,0.1-0.2,0.2-0.2,0.3c0,0.1,0,0.2,0.1,0.3c0.1,0.1,0.2,0.1,0.3,0.2c0.1,0,0.3,0.1,0.4,0.1
						c0.2,0.1,0.4,0.1,0.6,0.2c0.1,0.1,0.3,0.2,0.4,0.3c0.1,0.1,0.2,0.3,0.2,0.5c0,0.2-0.1,0.3-0.2,0.5c-0.1,0.1-0.2,0.3-0.4,0.3
						c-0.2,0.1-0.4,0.1-0.6,0.1C33,201.2,32.8,201.2,32.6,201.1z"/>
					<path class="st1" d="M38.5,199.7h-2.7c0,0.3,0.1,0.6,0.3,0.8c0.2,0.2,0.5,0.3,0.7,0.3c0.2,0,0.4-0.1,0.6-0.2
						c0.2-0.1,0.3-0.3,0.3-0.4h0.6c-0.1,0.3-0.3,0.6-0.5,0.8s-0.6,0.3-1,0.3c-0.3,0-0.6-0.1-0.8-0.2c-0.2-0.1-0.4-0.3-0.6-0.6
						c-0.1-0.3-0.2-0.6-0.2-0.9s0.1-0.6,0.2-0.9c0.1-0.3,0.3-0.5,0.6-0.6c0.2-0.1,0.5-0.2,0.9-0.2c0.3,0,0.6,0.1,0.8,0.2
						s0.4,0.3,0.6,0.6c0.1,0.2,0.2,0.5,0.2,0.8C38.5,199.5,38.5,199.6,38.5,199.7z M37.8,198.7c-0.1-0.2-0.2-0.3-0.4-0.3
						c-0.2-0.1-0.3-0.1-0.5-0.1c-0.3,0-0.5,0.1-0.7,0.3s-0.3,0.4-0.3,0.7h2.1C37.9,199,37.9,198.8,37.8,198.7z"/>
					<path class="st1" d="M39.5,198.6c0.1-0.3,0.3-0.5,0.6-0.6c0.2-0.1,0.5-0.2,0.8-0.2c0.4,0,0.7,0.1,1,0.3
						c0.3,0.2,0.4,0.5,0.5,0.8h-0.6c-0.1-0.2-0.2-0.4-0.3-0.5s-0.4-0.2-0.6-0.2c-0.3,0-0.6,0.1-0.8,0.3c-0.2,0.2-0.3,0.5-0.3,0.9
						c0,0.4,0.1,0.7,0.3,0.9c0.2,0.2,0.4,0.3,0.8,0.3c0.2,0,0.4-0.1,0.6-0.2c0.2-0.1,0.3-0.3,0.3-0.5h0.6c-0.1,0.3-0.3,0.6-0.5,0.8
						s-0.6,0.3-1,0.3c-0.3,0-0.6-0.1-0.8-0.2c-0.2-0.1-0.4-0.3-0.6-0.6s-0.2-0.6-0.2-0.9C39.3,199.1,39.3,198.8,39.5,198.6z"/>
					<path class="st1" d="M44.1,198.3v2c0,0.2,0,0.3,0.1,0.3c0.1,0.1,0.2,0.1,0.4,0.1h0.4v0.5h-0.5c-0.3,0-0.5-0.1-0.7-0.2
						c-0.2-0.1-0.2-0.4-0.2-0.7v-2h-0.4v-0.5h0.4V197h0.6v0.8h0.9v0.5H44.1z"/>
					<path class="st1" d="M48.9,199.7h-2.7c0,0.3,0.1,0.6,0.3,0.8c0.2,0.2,0.5,0.3,0.7,0.3c0.2,0,0.4-0.1,0.6-0.2
						c0.2-0.1,0.3-0.3,0.3-0.4h0.6c-0.1,0.3-0.3,0.6-0.5,0.8s-0.6,0.3-1,0.3c-0.3,0-0.6-0.1-0.8-0.2c-0.2-0.1-0.4-0.3-0.6-0.6
						c-0.1-0.3-0.2-0.6-0.2-0.9s0.1-0.6,0.2-0.9c0.1-0.3,0.3-0.5,0.6-0.6c0.2-0.1,0.5-0.2,0.9-0.2c0.3,0,0.6,0.1,0.8,0.2
						s0.4,0.3,0.6,0.6c0.1,0.2,0.2,0.5,0.2,0.8C48.9,199.5,48.9,199.6,48.9,199.7z M48.2,198.7c-0.1-0.2-0.2-0.3-0.4-0.3
						c-0.2-0.1-0.3-0.1-0.5-0.1c-0.3,0-0.5,0.1-0.7,0.3s-0.3,0.4-0.3,0.7h2.1C48.3,199,48.3,198.8,48.2,198.7z"/>
					<path class="st1" d="M50.5,198.3v2c0,0.2,0,0.3,0.1,0.3c0.1,0.1,0.2,0.1,0.4,0.1h0.4v0.5h-0.5c-0.3,0-0.5-0.1-0.7-0.2
						c-0.2-0.1-0.2-0.4-0.2-0.7v-2h-0.4v-0.5H50V197h0.6v0.8h0.9v0.5H50.5z"/>
					<path class="st1" d="M55.3,197.8v3.3h-0.6v-0.5c-0.1,0.2-0.3,0.3-0.4,0.4c-0.2,0.1-0.4,0.1-0.6,0.1c-0.3,0-0.5-0.1-0.7-0.2
						c-0.2-0.1-0.4-0.3-0.5-0.5c-0.1-0.2-0.2-0.5-0.2-0.8v-1.9h0.5v1.9c0,0.3,0.1,0.6,0.2,0.8c0.2,0.2,0.4,0.3,0.7,0.3
						c0.3,0,0.5-0.1,0.7-0.3c0.2-0.2,0.3-0.4,0.3-0.8v-1.8H55.3z"/>
					<path class="st1" d="M59.5,199.7h-2.7c0,0.3,0.1,0.6,0.3,0.8c0.2,0.2,0.5,0.3,0.7,0.3c0.2,0,0.4-0.1,0.6-0.2
						c0.2-0.1,0.3-0.3,0.3-0.4h0.6c-0.1,0.3-0.3,0.6-0.5,0.8s-0.6,0.3-1,0.3c-0.3,0-0.6-0.1-0.8-0.2c-0.2-0.1-0.4-0.3-0.6-0.6
						c-0.1-0.3-0.2-0.6-0.2-0.9s0.1-0.6,0.2-0.9c0.1-0.3,0.3-0.5,0.6-0.6c0.2-0.1,0.5-0.2,0.9-0.2c0.3,0,0.6,0.1,0.8,0.2
						s0.4,0.3,0.6,0.6c0.1,0.2,0.2,0.5,0.2,0.8C59.5,199.5,59.5,199.6,59.5,199.7z M58.8,198.7c-0.1-0.2-0.2-0.3-0.4-0.3
						c-0.2-0.1-0.3-0.1-0.5-0.1c-0.3,0-0.5,0.1-0.7,0.3s-0.3,0.4-0.3,0.7h2.1C58.9,199,58.9,198.8,58.8,198.7z"/>
					<path class="st1" d="M61.4,197.9c0.2-0.1,0.4-0.2,0.7-0.2v0.6h-0.1c-0.6,0-0.9,0.3-0.9,1v1.8h-0.6v-3.3H61v0.5
						C61.1,198.2,61.2,198,61.4,197.9z"/>
				</g>
				<g>
					<path class="st3" d="M3.7,194.8h6.8c0.4,0,0.8,0.3,0.8,0.8v6.8c0,0.4-0.3,0.8-0.8,0.8H3.7c-0.4,0-0.8-0.3-0.8-0.8v-6.8
						C3,195.1,3.3,194.8,3.7,194.8z"/>
					<path class="st7" d="M7.6,198.9l1.1-1.1c0.1-0.1,0.1-0.3,0-0.4s-0.3-0.1-0.4,0l-1.1,1.1L6,197.4c-0.1-0.1-0.3-0.1-0.4,0
						s-0.1,0.3,0,0.4l1.1,1.1L5.6,200c-0.1,0.1-0.1,0.3,0,0.4c0.1,0.1,0.1,0.1,0.2,0.1s0.2,0,0.2-0.1l1.1-1.1l1.1,1.1
						c0.1,0.1,0.1,0.1,0.2,0.1s0.1,0,0.2-0.1c0.1-0.1,0.1-0.3,0-0.4L7.6,198.9L7.6,198.9z"/>
				</g>
			</g>
		</g>
		<g>
			<path class="st7" d="M76.5,191.8h54c0.8,0,1.5,0.7,1.5,1.5v11.3c0,0.8-0.7,1.5-1.5,1.5h-54c-0.8,0-1.5-0.7-1.5-1.5v-11.3
				C75,192.4,75.7,191.8,76.5,191.8z"/>
			<g>
				<g class="st4">
					<path class="st1" d="M91.9,198.3l-0.2,1.1h0.8v0.5h-0.9l-0.3,1.2h-0.5l0.3-1.2h-1.3l-0.3,1.2H89l0.3-1.2h-1v-0.5h1.1l0.2-1.1
						h-0.9v-0.5h1l0.3-1.2h0.5l-0.3,1.2h1.3l0.3-1.2h0.5l-0.3,1.2h0.8v0.5H91.9z M91.4,198.3h-1.3l-0.2,1.1h1.3L91.4,198.3z"/>
					<path class="st1" d="M97.2,201.1h-0.6l-2.2-3.4v3.4h-0.6v-4.2h0.6l2.2,3.4v-3.4h0.6V201.1z"/>
					<path class="st1" d="M99,201c-0.3-0.1-0.5-0.3-0.6-0.6s-0.2-0.6-0.2-0.9c0-0.3,0.1-0.6,0.2-0.9c0.1-0.3,0.3-0.5,0.6-0.6
						s0.5-0.2,0.9-0.2s0.6,0.1,0.9,0.2s0.5,0.3,0.6,0.6c0.1,0.3,0.2,0.6,0.2,0.9s-0.1,0.6-0.2,0.9c-0.2,0.3-0.4,0.5-0.6,0.6
						c-0.3,0.1-0.5,0.2-0.9,0.2C99.5,201.2,99.2,201.1,99,201z M100.4,200.6c0.2-0.1,0.3-0.2,0.4-0.4c0.1-0.2,0.2-0.4,0.2-0.7
						c0-0.3-0.1-0.5-0.2-0.7c-0.1-0.2-0.2-0.3-0.4-0.4s-0.4-0.1-0.6-0.1c-0.2,0-0.4,0-0.6,0.1s-0.3,0.2-0.4,0.4
						c-0.1,0.2-0.2,0.4-0.2,0.7c0,0.3,0,0.5,0.1,0.7c0.1,0.2,0.2,0.3,0.4,0.4c0.2,0.1,0.3,0.1,0.5,0.1S100.2,200.7,100.4,200.6z"/>
					<path class="st1" d="M105.1,198.1c0.3,0.2,0.4,0.6,0.4,1.1v2H105v-1.9c0-0.3-0.1-0.6-0.2-0.8c-0.2-0.2-0.4-0.3-0.7-0.3
						c-0.3,0-0.5,0.1-0.7,0.3c-0.2,0.2-0.3,0.4-0.3,0.8v1.8h-0.6v-3.3h0.6v0.5c0.1-0.2,0.3-0.3,0.4-0.4c0.2-0.1,0.4-0.1,0.6-0.1
						C104.5,197.8,104.9,197.9,105.1,198.1z"/>
					<path class="st1" d="M109.6,197.8v3.3H109v-0.5c-0.1,0.2-0.3,0.3-0.4,0.4c-0.2,0.1-0.4,0.1-0.6,0.1c-0.3,0-0.5-0.1-0.7-0.2
						c-0.2-0.1-0.4-0.3-0.5-0.5c-0.1-0.2-0.2-0.5-0.2-0.8v-1.9h0.5v1.9c0,0.3,0.1,0.6,0.2,0.8c0.2,0.2,0.4,0.3,0.7,0.3
						c0.3,0,0.5-0.1,0.7-0.3c0.2-0.2,0.3-0.4,0.3-0.8v-1.8H109.6z"/>
					<path class="st1" d="M115.5,197.9c0.2,0.1,0.4,0.3,0.5,0.5c0.1,0.2,0.2,0.5,0.2,0.8v2h-0.5v-1.9c0-0.3-0.1-0.6-0.2-0.8
						s-0.4-0.3-0.7-0.3c-0.3,0-0.5,0.1-0.7,0.3c-0.2,0.2-0.3,0.5-0.3,0.8v1.8h-0.5v-1.9c0-0.3-0.1-0.6-0.2-0.8
						c-0.2-0.2-0.4-0.3-0.7-0.3c-0.3,0-0.5,0.1-0.7,0.3c-0.2,0.2-0.3,0.5-0.3,0.8v1.8h-0.6v-3.3h0.6v0.5c0.1-0.2,0.3-0.3,0.4-0.4
						c0.2-0.1,0.4-0.1,0.6-0.1c0.3,0,0.5,0.1,0.7,0.2c0.2,0.1,0.4,0.3,0.5,0.6c0.1-0.2,0.2-0.4,0.5-0.5c0.2-0.1,0.5-0.2,0.7-0.2
						C115,197.8,115.3,197.8,115.5,197.9z"/>
					<path class="st1" d="M122,197.9c0.2,0.1,0.4,0.3,0.5,0.5c0.1,0.2,0.2,0.5,0.2,0.8v2h-0.5v-1.9c0-0.3-0.1-0.6-0.2-0.8
						s-0.4-0.3-0.7-0.3c-0.3,0-0.5,0.1-0.7,0.3c-0.2,0.2-0.3,0.5-0.3,0.8v1.8h-0.5v-1.9c0-0.3-0.1-0.6-0.2-0.8
						c-0.2-0.2-0.4-0.3-0.7-0.3c-0.3,0-0.5,0.1-0.7,0.3c-0.2,0.2-0.3,0.5-0.3,0.8v1.8h-0.6v-3.3h0.6v0.5c0.1-0.2,0.3-0.3,0.4-0.4
						c0.2-0.1,0.4-0.1,0.6-0.1c0.3,0,0.5,0.1,0.7,0.2c0.2,0.1,0.4,0.3,0.5,0.6c0.1-0.2,0.2-0.4,0.5-0.5c0.2-0.1,0.5-0.2,0.7-0.2
						C121.5,197.8,121.8,197.8,122,197.9z"/>
					<path class="st1" d="M126.6,197.8l-2,4.9h-0.6l0.7-1.6l-1.3-3.3h0.6l1,2.7l1-2.7H126.6z"/>
				</g>
				<g>
					<path class="st12" d="M78.7,194.8h6.8c0.4,0,0.8,0.3,0.8,0.8v6.8c0,0.4-0.3,0.8-0.8,0.8h-6.8c-0.4,0-0.8-0.3-0.8-0.8v-6.8
						C78,195.1,78.3,194.8,78.7,194.8z"/>
					<path class="st1" d="M82.6,198.9l1.1-1.1c0.1-0.1,0.1-0.3,0-0.4s-0.3-0.1-0.4,0l-1.1,1.1l-1.1-1.1c-0.1-0.1-0.3-0.1-0.4,0
						s-0.1,0.3,0,0.4l1.1,1.1l-1.1,1.1c-0.1,0.1-0.1,0.3,0,0.4c0.1,0.1,0.1,0.1,0.2,0.1s0.2,0,0.2-0.1l1.1-1.1l1.1,1.1
						c0.1,0.1,0.1,0.1,0.2,0.1s0.2,0,0.2-0.1c0.1-0.1,0.1-0.3,0-0.4L82.6,198.9L82.6,198.9z"/>
				</g>
			</g>
		</g>
		<g>
			<path class="st7" d="M141,191.8h54c0.8,0,1.5,0.7,1.5,1.5v11.3c0,0.8-0.7,1.5-1.5,1.5h-54c-0.8,0-1.5-0.7-1.5-1.5v-11.3
				C139.5,192.4,140.2,191.8,141,191.8z"/>
			<g>
				<g class="st4">
					<path class="st3" d="M156.4,198.3l-0.2,1.1h0.8v0.5h-0.9l-0.3,1.2h-0.5l0.3-1.2h-1.3l-0.3,1.2h-0.5l0.3-1.2h-1v-0.5h1.1
						l0.2-1.1h-0.9v-0.5h1l0.3-1.2h0.5l-0.3,1.2h1.3l0.3-1.2h0.5l-0.3,1.2h0.8v0.5H156.4z M155.9,198.3h-1.3l-0.2,1.1h1.3
						L155.9,198.3z"/>
					<path class="st3" d="M160.9,200.2h-1.8l-0.3,0.9h-0.6l1.5-4.2h0.6l1.5,4.2h-0.6L160.9,200.2z M160.8,199.8l-0.8-2.1l-0.8,2.1
						H160.8z"/>
					<path class="st3" d="M162.8,198.6c0.1-0.3,0.3-0.5,0.6-0.6c0.2-0.1,0.5-0.2,0.8-0.2c0.3,0,0.5,0.1,0.7,0.2
						c0.2,0.1,0.4,0.3,0.5,0.5v-1.8h0.6v4.5h-0.6v-0.6c-0.1,0.2-0.3,0.4-0.5,0.5c-0.2,0.1-0.5,0.2-0.8,0.2c-0.3,0-0.6-0.1-0.8-0.2
						c-0.2-0.1-0.4-0.3-0.6-0.6c-0.1-0.3-0.2-0.6-0.2-0.9C162.5,199.1,162.6,198.8,162.8,198.6z M165.2,198.8
						c-0.1-0.2-0.2-0.3-0.4-0.4c-0.2-0.1-0.4-0.1-0.6-0.1c-0.2,0-0.4,0-0.6,0.1c-0.2,0.1-0.3,0.2-0.4,0.4c-0.1,0.2-0.2,0.4-0.2,0.7
						c0,0.3,0.1,0.5,0.2,0.7c0.1,0.2,0.2,0.3,0.4,0.4c0.2,0.1,0.4,0.1,0.6,0.1c0.2,0,0.4,0,0.6-0.1c0.2-0.1,0.3-0.2,0.4-0.4
						s0.2-0.4,0.2-0.7S165.3,199,165.2,198.8z"/>
					<path class="st3" d="M167.1,197.2c-0.1-0.1-0.1-0.2-0.1-0.3c0-0.1,0-0.2,0.1-0.3c0.1-0.1,0.2-0.1,0.3-0.1c0.1,0,0.2,0,0.3,0.1
						c0.1,0.1,0.1,0.2,0.1,0.3c0,0.1,0,0.2-0.1,0.3c-0.1,0.1-0.2,0.1-0.3,0.1C167.3,197.3,167.2,197.2,167.1,197.2z M167.7,197.8
						v3.3h-0.6v-3.3H167.7z"/>
					<path class="st3" d="M169.9,198c0.2-0.1,0.5-0.2,0.8-0.2c0.3,0,0.6,0.1,0.8,0.2c0.2,0.1,0.4,0.3,0.6,0.6
						c0.1,0.3,0.2,0.6,0.2,0.9c0,0.3-0.1,0.6-0.2,0.9c-0.1,0.3-0.3,0.5-0.6,0.6s-0.5,0.2-0.8,0.2c-0.3,0-0.5-0.1-0.7-0.2
						c-0.2-0.1-0.4-0.3-0.5-0.5v2.2h-0.6v-4.9h0.6v0.6C169.5,198.2,169.7,198.1,169.9,198z M171.5,198.8c-0.1-0.2-0.2-0.3-0.4-0.4
						c-0.2-0.1-0.4-0.1-0.6-0.1c-0.2,0-0.4,0-0.6,0.1c-0.2,0.1-0.3,0.2-0.4,0.4c-0.1,0.2-0.2,0.4-0.2,0.7c0,0.3,0.1,0.5,0.2,0.7
						c0.1,0.2,0.2,0.3,0.4,0.4c0.2,0.1,0.4,0.1,0.6,0.1c0.2,0,0.4,0,0.6-0.1c0.2-0.1,0.3-0.2,0.4-0.4s0.2-0.4,0.2-0.7
						C171.6,199.2,171.6,199,171.5,198.8z"/>
					<path class="st3" d="M173.2,197.2c-0.1-0.1-0.1-0.2-0.1-0.3c0-0.1,0-0.2,0.1-0.3c0.1-0.1,0.2-0.1,0.3-0.1c0.1,0,0.2,0,0.3,0.1
						c0.1,0.1,0.1,0.2,0.1,0.3c0,0.1,0,0.2-0.1,0.3c-0.1,0.1-0.2,0.1-0.3,0.1C173.4,197.3,173.3,197.2,173.2,197.2z M173.7,197.8
						v3.3h-0.6v-3.3H173.7z"/>
					<path class="st3" d="M175.4,201.1c-0.2-0.1-0.4-0.2-0.5-0.4c-0.1-0.2-0.2-0.3-0.2-0.5h0.6c0,0.2,0.1,0.3,0.2,0.4
						c0.1,0.1,0.3,0.2,0.5,0.2c0.2,0,0.4,0,0.5-0.1c0.1-0.1,0.2-0.2,0.2-0.4c0-0.1-0.1-0.3-0.2-0.3c-0.1-0.1-0.3-0.1-0.6-0.2
						c-0.2-0.1-0.4-0.1-0.6-0.2s-0.3-0.2-0.4-0.3c-0.1-0.1-0.2-0.3-0.2-0.5c0-0.2,0.1-0.3,0.2-0.5s0.2-0.3,0.4-0.3
						c0.2-0.1,0.4-0.1,0.6-0.1c0.4,0,0.7,0.1,0.9,0.3c0.2,0.2,0.3,0.4,0.4,0.8h-0.6c0-0.2-0.1-0.3-0.2-0.4s-0.3-0.2-0.5-0.2
						c-0.2,0-0.4,0-0.5,0.1c-0.1,0.1-0.2,0.2-0.2,0.3c0,0.1,0,0.2,0.1,0.3c0.1,0.1,0.2,0.1,0.3,0.2c0.1,0,0.3,0.1,0.4,0.1
						c0.2,0.1,0.4,0.1,0.6,0.2c0.1,0.1,0.3,0.2,0.4,0.3c0.1,0.1,0.2,0.3,0.2,0.5c0,0.2-0.1,0.3-0.2,0.5c-0.1,0.1-0.2,0.3-0.4,0.3
						c-0.2,0.1-0.4,0.1-0.6,0.1C175.8,201.2,175.6,201.2,175.4,201.1z"/>
					<path class="st3" d="M178.3,198.6c0.1-0.3,0.3-0.5,0.6-0.6c0.2-0.1,0.5-0.2,0.8-0.2c0.4,0,0.7,0.1,1,0.3
						c0.3,0.2,0.4,0.5,0.5,0.8h-0.6c-0.1-0.2-0.2-0.4-0.3-0.5s-0.4-0.2-0.6-0.2c-0.3,0-0.6,0.1-0.8,0.3c-0.2,0.2-0.3,0.5-0.3,0.9
						c0,0.4,0.1,0.7,0.3,0.9c0.2,0.2,0.4,0.3,0.8,0.3c0.2,0,0.4-0.1,0.6-0.2c0.2-0.1,0.3-0.3,0.3-0.5h0.6c-0.1,0.3-0.3,0.6-0.5,0.8
						s-0.6,0.3-1,0.3c-0.3,0-0.6-0.1-0.8-0.2c-0.2-0.1-0.4-0.3-0.6-0.6s-0.2-0.6-0.2-0.9C178.1,199.1,178.2,198.8,178.3,198.6z"/>
					<path class="st3" d="M182.3,197.2c-0.1-0.1-0.1-0.2-0.1-0.3c0-0.1,0-0.2,0.1-0.3c0.1-0.1,0.2-0.1,0.3-0.1c0.1,0,0.2,0,0.3,0.1
						c0.1,0.1,0.1,0.2,0.1,0.3c0,0.1,0,0.2-0.1,0.3c-0.1,0.1-0.2,0.1-0.3,0.1C182.4,197.3,182.3,197.2,182.3,197.2z M182.8,197.8
						v3.3h-0.6v-3.3H182.8z"/>
					<path class="st3" d="M186.6,198.1c0.3,0.2,0.4,0.6,0.4,1.1v2h-0.5v-1.9c0-0.3-0.1-0.6-0.2-0.8c-0.2-0.2-0.4-0.3-0.7-0.3
						c-0.3,0-0.5,0.1-0.7,0.3c-0.2,0.2-0.3,0.4-0.3,0.8v1.8H184v-3.3h0.6v0.5c0.1-0.2,0.3-0.3,0.4-0.4c0.2-0.1,0.4-0.1,0.6-0.1
						C186,197.8,186.3,197.9,186.6,198.1z"/>
					<path class="st3" d="M190.2,197.9c0.2,0.1,0.4,0.3,0.5,0.5v-0.6h0.6v3.4c0,0.3-0.1,0.6-0.2,0.8c-0.1,0.2-0.3,0.4-0.6,0.6
						s-0.5,0.2-0.8,0.2c-0.4,0-0.8-0.1-1.1-0.3c-0.3-0.2-0.5-0.5-0.5-0.8h0.5c0.1,0.2,0.2,0.4,0.4,0.5c0.2,0.1,0.4,0.2,0.7,0.2
						c0.3,0,0.6-0.1,0.7-0.3s0.3-0.5,0.3-0.8v-0.7c-0.1,0.2-0.3,0.4-0.5,0.5s-0.5,0.2-0.8,0.2c-0.3,0-0.6-0.1-0.8-0.2
						c-0.2-0.1-0.4-0.3-0.6-0.6c-0.1-0.3-0.2-0.6-0.2-0.9c0-0.3,0.1-0.6,0.2-0.9s0.3-0.5,0.6-0.6c0.2-0.1,0.5-0.2,0.8-0.2
						C189.8,197.8,190,197.8,190.2,197.9z M190.6,198.8c-0.1-0.2-0.2-0.3-0.4-0.4c-0.2-0.1-0.4-0.1-0.6-0.1c-0.2,0-0.4,0-0.6,0.1
						c-0.2,0.1-0.3,0.2-0.4,0.4c-0.1,0.2-0.2,0.4-0.2,0.7c0,0.3,0.1,0.5,0.2,0.7c0.1,0.2,0.2,0.3,0.4,0.4c0.2,0.1,0.4,0.1,0.6,0.1
						c0.2,0,0.4,0,0.6-0.1c0.2-0.1,0.3-0.2,0.4-0.4s0.2-0.4,0.2-0.7S190.7,199,190.6,198.8z"/>
				</g>
				<g>
					<path class="st13" d="M143.3,194.8h6.8c0.4,0,0.8,0.3,0.8,0.8v6.8c0,0.4-0.3,0.8-0.8,0.8h-6.8c-0.4,0-0.8-0.3-0.8-0.8v-6.8
						C142.5,195.1,142.9,194.8,143.3,194.8z"/>
					<path class="st3" d="M147.1,198.9l1.1-1.1c0.1-0.1,0.1-0.3,0-0.4s-0.3-0.1-0.4,0l-1.1,1.1l-1.1-1.1c-0.1-0.1-0.3-0.1-0.4,0
						s-0.1,0.3,0,0.4l1.1,1.1l-1.1,1.1c-0.1,0.1-0.1,0.3,0,0.4c0.1,0.1,0.1,0.1,0.2,0.1s0.1,0,0.2-0.1l1.1-1.1l1.1,1.1
						c0.1,0.1,0.1,0.1,0.2,0.1s0.1,0,0.2-0.1c0.1-0.1,0.1-0.3,0-0.4L147.1,198.9L147.1,198.9z"/>
				</g>
			</g>
		</g>
		<g>
			<path class="st3" d="M74.1,167.8h40.1c0.8,0,1.5,0.7,1.5,1.5v11.3c0,0.8-0.7,1.5-1.5,1.5H74.1c-0.8,0-1.5-0.7-1.5-1.5v-11.3
				C72.6,168.5,73.3,167.8,74.1,167.8z"/>
			<g>
				<g class="st4">
					<path class="st5" d="M89.5,174.4l-0.2,1.1h0.8v0.5h-0.9l-0.3,1.2h-0.5l0.3-1.2h-1.3l-0.3,1.2h-0.5l0.3-1.2h-1v-0.5H87l0.2-1.1
						h-0.9v-0.5h1l0.3-1.2h0.5l-0.3,1.2h1.3l0.3-1.2h0.5l-0.3,1.2h0.8v0.5H89.5z M89,174.4h-1.3l-0.2,1.1h1.3L89,174.4z"/>
					<path class="st5" d="M92.1,176.8h1.5v0.4h-2V173h0.6V176.8z"/>
					<path class="st5" d="M95,177.1c-0.3-0.1-0.5-0.3-0.6-0.6s-0.2-0.6-0.2-0.9c0-0.3,0.1-0.6,0.2-0.9c0.1-0.3,0.3-0.5,0.6-0.6
						s0.5-0.2,0.9-0.2s0.6,0.1,0.9,0.2s0.5,0.3,0.6,0.6c0.1,0.3,0.2,0.6,0.2,0.9s-0.1,0.6-0.2,0.9c-0.2,0.3-0.4,0.5-0.6,0.6
						c-0.3,0.1-0.5,0.2-0.9,0.2C95.5,177.3,95.2,177.2,95,177.1z M96.4,176.6c0.2-0.1,0.3-0.2,0.4-0.4c0.1-0.2,0.2-0.4,0.2-0.7
						c0-0.3-0.1-0.5-0.2-0.7c-0.1-0.2-0.2-0.3-0.4-0.4s-0.4-0.1-0.6-0.1c-0.2,0-0.4,0-0.6,0.1s-0.3,0.2-0.4,0.4
						c-0.1,0.2-0.2,0.4-0.2,0.7c0,0.3,0,0.5,0.1,0.7c0.1,0.2,0.2,0.3,0.4,0.4c0.2,0.1,0.3,0.1,0.5,0.1S96.2,176.7,96.4,176.6z"/>
					<path class="st5" d="M99.5,174c0.2-0.1,0.4-0.2,0.7-0.2v0.6H100c-0.6,0-0.9,0.3-0.9,1v1.8h-0.6v-3.3h0.6v0.5
						C99.2,174.2,99.3,174.1,99.5,174z"/>
					<path class="st5" d="M104,175.8h-2.7c0,0.3,0.1,0.6,0.3,0.8c0.2,0.2,0.5,0.3,0.7,0.3c0.2,0,0.4-0.1,0.6-0.2
						c0.2-0.1,0.3-0.3,0.3-0.4h0.6c-0.1,0.3-0.3,0.6-0.5,0.8s-0.6,0.3-1,0.3c-0.3,0-0.6-0.1-0.8-0.2c-0.2-0.1-0.4-0.3-0.6-0.6
						c-0.1-0.3-0.2-0.6-0.2-0.9s0.1-0.6,0.2-0.9c0.1-0.3,0.3-0.5,0.6-0.6c0.2-0.1,0.5-0.2,0.9-0.2c0.3,0,0.6,0.1,0.8,0.2
						s0.4,0.3,0.6,0.6c0.1,0.2,0.2,0.5,0.2,0.8C104,175.5,104,175.6,104,175.8z M103.3,174.8c-0.1-0.2-0.2-0.3-0.4-0.3
						c-0.2-0.1-0.3-0.1-0.5-0.1c-0.3,0-0.5,0.1-0.7,0.3s-0.3,0.4-0.3,0.7h2.1C103.5,175.1,103.4,174.9,103.3,174.8z"/>
					<path class="st5" d="M109.7,174c0.2,0.1,0.4,0.3,0.5,0.5c0.1,0.2,0.2,0.5,0.2,0.8v2h-0.5v-1.9c0-0.3-0.1-0.6-0.2-0.8
						s-0.4-0.3-0.7-0.3c-0.3,0-0.5,0.1-0.7,0.3c-0.2,0.2-0.3,0.5-0.3,0.8v1.8h-0.5v-1.9c0-0.3-0.1-0.6-0.2-0.8
						c-0.2-0.2-0.4-0.3-0.7-0.3c-0.3,0-0.5,0.1-0.7,0.3c-0.2,0.2-0.3,0.5-0.3,0.8v1.8H105v-3.3h0.6v0.5c0.1-0.2,0.3-0.3,0.4-0.4
						c0.2-0.1,0.4-0.1,0.6-0.1c0.3,0,0.5,0.1,0.7,0.2c0.2,0.1,0.4,0.3,0.5,0.6c0.1-0.2,0.2-0.4,0.5-0.5c0.2-0.1,0.5-0.2,0.7-0.2
						C109.3,173.8,109.5,173.9,109.7,174z"/>
				</g>
				<g>
					<path class="st1" d="M76.4,170.8h6.8c0.4,0,0.8,0.3,0.8,0.8v6.8c0,0.4-0.3,0.8-0.8,0.8h-6.8c-0.4,0-0.8-0.3-0.8-0.8v-6.8
						C75.6,171.1,76,170.8,76.4,170.8z"/>
					<path class="st7" d="M80.2,175l1.1-1.1c0.1-0.1,0.1-0.3,0-0.4s-0.3-0.1-0.4,0l-1.1,1.1l-1.1-1.1c-0.1-0.1-0.3-0.1-0.4,0
						s-0.1,0.3,0,0.4l1.1,1.1l-1.1,1.1c-0.1,0.1-0.1,0.3,0,0.4c0.1,0.1,0.1,0.1,0.2,0.1s0.2,0,0.2-0.1l1.1-1.1l1.1,1.1
						c0.1,0.1,0.1,0.1,0.2,0.1s0.2,0,0.2-0.1c0.1-0.1,0.1-0.3,0-0.4L80.2,175L80.2,175z"/>
				</g>
			</g>
		</g>
		<g>
			<path class="st7" d="M124.8,167.8H172c0.8,0,1.5,0.7,1.5,1.5v11.3c0,0.8-0.7,1.5-1.5,1.5h-47.3c-0.8,0-1.5-0.7-1.5-1.5v-11.3
				C123.3,168.5,123.9,167.8,124.8,167.8z"/>
			<g>
				<g class="st4">
					<path class="st3" d="M140.2,174.4l-0.2,1.1h0.8v0.5h-0.9l-0.3,1.2H139l0.3-1.2H138l-0.3,1.2h-0.5l0.3-1.2h-1v-0.5h1.1l0.2-1.1
						h-0.9v-0.5h1l0.3-1.2h0.5l-0.3,1.2h1.3l0.3-1.2h0.5l-0.3,1.2h0.8v0.5H140.2z M139.6,174.4h-1.3l-0.2,1.1h1.3L139.6,174.4z"/>
					<path class="st3" d="M144.7,173.2c0.3,0.2,0.6,0.4,0.8,0.7s0.3,0.7,0.3,1.1c0,0.4-0.1,0.8-0.3,1.1c-0.2,0.3-0.4,0.6-0.8,0.7
						s-0.7,0.3-1.2,0.3h-1.3V173h1.3C143.9,173,144.3,173.1,144.7,173.2z M144.7,176.3c0.3-0.3,0.4-0.7,0.4-1.2
						c0-0.5-0.1-0.9-0.4-1.2c-0.3-0.3-0.7-0.4-1.2-0.4h-0.8v3.3h0.8C144,176.8,144.4,176.6,144.7,176.3z"/>
					<path class="st3" d="M147.3,177.1c-0.3-0.1-0.5-0.3-0.6-0.6s-0.2-0.6-0.2-0.9c0-0.3,0.1-0.6,0.2-0.9c0.1-0.3,0.3-0.5,0.6-0.6
						s0.5-0.2,0.9-0.2s0.6,0.1,0.9,0.2s0.5,0.3,0.6,0.6c0.1,0.3,0.2,0.6,0.2,0.9s-0.1,0.6-0.2,0.9c-0.2,0.3-0.4,0.5-0.6,0.6
						c-0.3,0.1-0.5,0.2-0.9,0.2C147.8,177.3,147.5,177.2,147.3,177.1z M148.7,176.6c0.2-0.1,0.3-0.2,0.4-0.4
						c0.1-0.2,0.2-0.4,0.2-0.7c0-0.3-0.1-0.5-0.2-0.7c-0.1-0.2-0.2-0.3-0.4-0.4s-0.4-0.1-0.6-0.1c-0.2,0-0.4,0-0.6,0.1
						s-0.3,0.2-0.4,0.4c-0.1,0.2-0.2,0.4-0.2,0.7c0,0.3,0,0.5,0.1,0.7c0.1,0.2,0.2,0.3,0.4,0.4c0.2,0.1,0.3,0.1,0.5,0.1
						S148.5,176.7,148.7,176.6z"/>
					<path class="st3" d="M151.4,172.7v4.5h-0.6v-4.5H151.4z"/>
					<path class="st3" d="M153.2,177.1c-0.3-0.1-0.5-0.3-0.6-0.6s-0.2-0.6-0.2-0.9c0-0.3,0.1-0.6,0.2-0.9c0.1-0.3,0.3-0.5,0.6-0.6
						s0.5-0.2,0.9-0.2s0.6,0.1,0.9,0.2s0.5,0.3,0.6,0.6c0.1,0.3,0.2,0.6,0.2,0.9s-0.1,0.6-0.2,0.9c-0.2,0.3-0.4,0.5-0.6,0.6
						c-0.3,0.1-0.5,0.2-0.9,0.2C153.7,177.3,153.4,177.2,153.2,177.1z M154.6,176.6c0.2-0.1,0.3-0.2,0.4-0.4
						c0.1-0.2,0.2-0.4,0.2-0.7c0-0.3-0.1-0.5-0.2-0.7c-0.1-0.2-0.2-0.3-0.4-0.4s-0.4-0.1-0.6-0.1c-0.2,0-0.4,0-0.6,0.1
						s-0.3,0.2-0.4,0.4c-0.1,0.2-0.2,0.4-0.2,0.7c0,0.3,0,0.5,0.1,0.7c0.1,0.2,0.2,0.3,0.4,0.4c0.2,0.1,0.3,0.1,0.5,0.1
						S154.4,176.7,154.6,176.6z"/>
					<path class="st3" d="M157.6,174c0.2-0.1,0.4-0.2,0.7-0.2v0.6h-0.1c-0.6,0-0.9,0.3-0.9,1v1.8h-0.6v-3.3h0.6v0.5
						C157.3,174.2,157.5,174.1,157.6,174z"/>
					<path class="st3" d="M161.6,177.1c-0.2-0.1-0.4-0.2-0.5-0.4c-0.1-0.2-0.2-0.4-0.2-0.6h0.6c0,0.2,0.1,0.4,0.2,0.5
						s0.4,0.2,0.6,0.2c0.3,0,0.5-0.1,0.6-0.2s0.2-0.3,0.2-0.5c0-0.2,0-0.3-0.1-0.4c-0.1-0.1-0.2-0.2-0.3-0.2
						c-0.1-0.1-0.3-0.1-0.5-0.2c-0.3-0.1-0.5-0.1-0.7-0.2c-0.2-0.1-0.3-0.2-0.4-0.3c-0.1-0.2-0.2-0.4-0.2-0.6c0-0.2,0.1-0.4,0.2-0.6
						c0.1-0.2,0.3-0.3,0.5-0.4c0.2-0.1,0.5-0.1,0.7-0.1c0.4,0,0.7,0.1,1,0.3s0.4,0.5,0.4,0.8h-0.6c0-0.2-0.1-0.3-0.3-0.4
						c-0.1-0.1-0.3-0.2-0.6-0.2c-0.2,0-0.4,0.1-0.6,0.2s-0.2,0.3-0.2,0.5c0,0.2,0,0.3,0.1,0.4c0.1,0.1,0.2,0.2,0.3,0.2
						s0.3,0.1,0.5,0.2c0.3,0.1,0.5,0.2,0.7,0.2c0.2,0.1,0.3,0.2,0.4,0.3c0.1,0.2,0.2,0.4,0.2,0.6c0,0.2-0.1,0.4-0.2,0.6
						c-0.1,0.2-0.3,0.3-0.5,0.4c-0.2,0.1-0.5,0.2-0.8,0.2C162.1,177.3,161.9,177.2,161.6,177.1z"/>
					<path class="st3" d="M164.9,173.2c-0.1-0.1-0.1-0.2-0.1-0.3c0-0.1,0-0.2,0.1-0.3c0.1-0.1,0.2-0.1,0.3-0.1c0.1,0,0.2,0,0.3,0.1
						c0.1,0.1,0.1,0.2,0.1,0.3c0,0.1,0,0.2-0.1,0.3c-0.1,0.1-0.2,0.1-0.3,0.1C165,173.3,164.9,173.3,164.9,173.2z M165.4,173.9v3.3
						h-0.6v-3.3H165.4z"/>
					<path class="st3" d="M167.3,174.3v2c0,0.2,0,0.3,0.1,0.3c0.1,0.1,0.2,0.1,0.4,0.1h0.4v0.5h-0.5c-0.3,0-0.5-0.1-0.7-0.2
						c-0.2-0.1-0.2-0.4-0.2-0.7v-2h-0.4v-0.5h0.4V173h0.6v0.8h0.9v0.5H167.3z"/>
				</g>
				<g>
					<path class="st1" d="M127,170.8h6.8c0.4,0,0.8,0.3,0.8,0.8v6.8c0,0.4-0.3,0.8-0.8,0.8H127c-0.4,0-0.8-0.3-0.8-0.8v-6.8
						C126.3,171.1,126.6,170.8,127,170.8z"/>
					<path class="st7" d="M130.8,175l1.1-1.1c0.1-0.1,0.1-0.3,0-0.4s-0.3-0.1-0.4,0l-1.1,1.1l-1.1-1.1c-0.1-0.1-0.3-0.1-0.4,0
						s-0.1,0.3,0,0.4l1.1,1.1l-1.1,1.1c-0.1,0.1-0.1,0.3,0,0.4c0.1,0.1,0.1,0.1,0.2,0.1s0.1,0,0.2-0.1l1.1-1.1l1.1,1.1
						c0.1,0.1,0.1,0.1,0.2,0.1s0.1,0,0.2-0.1c0.1-0.1,0.1-0.3,0-0.4L130.8,175L130.8,175z"/>
				</g>
			</g>
		</g>
	</g>
</g>
</svg>
